<svg viewBox="0 0 344.49 103.98" xmlns="http://www.w3.org/2000/svg"><g fill="#231f20"><path d="m24.72 71.37a29.79 29.79 0 0 1 -10.6-1.61 22.74 22.74 0 0 1 -14.12-20.97 22.38 22.38 0 0 1 16.26-22 34 34 0 0 1 9.85-1.07h5.56v10.12h-3.67c-1.39 0-2.78 0-4.17.11-7.6.64-13.37 4.6-13.37 12.73a12 12 0 0 0 6.66 10.92c4.49 2.24 9.74 1.6 14.55 1.6v10.17z"/><path d="m56.89 72a23.5 23.5 0 0 1 -23.54-23.32 23.7 23.7 0 0 1 47.4 0c0 13.16-10.81 23.32-23.86 23.32zm.1-36.7a13.25 13.25 0 0 0 -13.16 13.28 13 13 0 0 0 13.17 13.16 13.22 13.22 0 1 0 0-26.43z"/><path d="m87.17 71.37v-71.37h10.48v71.37z"/><path d="m127.61 72a23.5 23.5 0 0 1 -23.54-23.33 23.7 23.7 0 0 1 47.4 0c0 13.17-10.81 23.33-23.86 23.33zm.11-36.7a13.24 13.24 0 0 0 -13.16 13.27 13 13 0 0 0 13.16 13.16 13.22 13.22 0 1 0 0-26.43z"/><path d="m167.84 47.4v24h-10.48v-26.89c0-11.66 5.88-19.26 18-19.26a22.26 22.26 0 0 1 2.57.21v10.06c-8.59.54-10.09 3.85-10.09 11.88z"/><path d="m197.16 35.74v68.26h-10.49v-84.53c0-5.88.43-10.7 4.93-15 4.27-4.04 9.3-4.47 14.87-4.47v10.27c-.43 0-.75-.11-1.18-.11-6.1 0-8.13 2-8.13 8.14v7.38h9.31v10.06z"/><path d="m216.42 18.83a6.63 6.63 0 0 1 -6.53-6.53 6.65 6.65 0 0 1 6.64-6.52 6.44 6.44 0 0 1 6.47 6.42 6.64 6.64 0 0 1 -6.58 6.63zm-5.24 52.54v-45.69h10.48v45.69z"/><path d="m271.31 51.14c-2.46 1.93-5 1.82-8 1.82h-23.89a12.93 12.93 0 0 0 12.42 8.78 12.74 12.74 0 0 0 10.48-5.14h11.24a23.33 23.33 0 0 1 -21.83 15.4 23.8 23.8 0 0 1 -23.43-23.53 23.4 23.4 0 0 1 23.32-23.47c10.38 0 22.68 8.6 22.68 19.72a7.85 7.85 0 0 1 -2.99 6.42zm-19.37-15.83a13.51 13.51 0 0 0 -12.41 8.34h24.47a12.61 12.61 0 0 0 -12.06-8.34z"/><path d="m280.72 71.37v-71.37h10.49v71.37z"/><path d="m344.49 44.51c0 6.31 0 11.45-3.63 17a23.6 23.6 0 0 1 -43.23-13.05c0-12.46 10.37-23.46 23-23.46a21.82 21.82 0 0 1 13.37 4.85v-29.85h10.48zm-23.21-9.2a13 13 0 0 0 -13.16 13.27 13.17 13.17 0 0 0 13.26 13.16c7.49 0 12.95-6.1 12.95-13.38a12.84 12.84 0 0 0 -13.05-13.05z"/></g></svg>