<svg enable-background="new 0 0 2500 1000" viewBox="0 0 2500 1000" xmlns="http://www.w3.org/2000/svg"><path d="m0 0v68.4h486.6v-68.4zm555.6 0v68.4h693.4s-70.8-68.4-164.6-68.4zm829.5 0v68.4h419.5l-24.9-68.4zm720.3 0-24.9 68.4h415.7v-68.4zm-2105.4 133.1v68.4h486.6v-68.4zm555.6 0v68.3h773.9s-9-52.6-24.8-68.3zm829.5 0v68.3h465.5l-23-68.3zm670.5 0-23.1 68.3h463.7v-68.3zm-1915.8 133v68.5h210.7v-68.6zm555.6 0v68.5h210.7v-68.6zm415.7 0v68.5h210.8s13.4-36.2 13.4-68.5zm413.8 0v68.5h373.6l-24.9-68.5zm484.8 0-25 68.5h375.5v-68.6zm-1869.9 133.2v68.4h210.8v-68.4zm555.6 0v68.4h538.3s45-35.1 59.4-68.4zm829.5 0v68.4h210.7v-38.1l13.4 38.1h386l14.4-38.1v38.1h210.8v-68.4h-395.6l-21 58-21.1-58zm-1385.1 133v68.4h210.7v-68.4zm555.6 0v68.4h597.7c-14.3-33.2-59.4-68.4-59.4-68.4zm829.5 0v68.4h210.7v-68.4zm249 0 25.5 68.4h289.5l24.2-68.4zm375.5 0v68.4h210.8v-68.4zm-2009.6 133v68.4h210.8v-68.4zm555.6 0v68.4h210.8v-68.4zm415.7 0v68.4h224.1c0-32.3-13.4-68.4-13.4-68.4zm413.8 0v68.4h210.7v-68.4zm296.9 0 24.7 68.4h194l24.9-68.4zm327.6 0v68.4h210.8v-68.4zm-2145.6 133.1v68.6h486.6v-68.6zm551.8 0v68.6h749.1c15.8-15.7 24.8-68.5 24.8-68.5zm833.3 0v68.6h346.8v-68.6zm480.8 0 25.4 68.6h98.7l23.8-68.5zm279.7 0v68.6h350.6v-68.6zm-2145.6 133.2v68.4h486.6v-68.4zm551.8 0v68.3h528.8c93.8 0 164.6-68.3 164.6-68.3zm833.3 0v68.4h346.8v-68.4zm529 0 24.4 68.2 4.2.1 24.8-68.3zm231.5 0v68.4h350.6v-68.4z" fill="#231f20"/></svg>