<svg viewBox="0 0 466.72 163.14" xmlns="http://www.w3.org/2000/svg"><path d="m0 104.82v-104.82h18.17v103.34q0 6.25 6.77 6.26h6.18v17h-8q-9.91 0-16.51-4.82t-6.61-16.96z" fill="#f93620"/><path d="m34.23 81.44q0-14.52 2.26-21.64a34.51 34.51 0 0 1 7.51-12.87 42 42 0 0 1 10.3-7.82q6.56-3.73 17.16-3.74 10.42 0 17 3.74a41.93 41.93 0 0 1 10.34 7.82 34.35 34.35 0 0 1 7.47 12.87q2.27 7.13 2.26 21.64 0 14.78-2.26 21.9a34.24 34.24 0 0 1 -7.47 12.86 39.2 39.2 0 0 1 -10.33 7.8q-6.61 3.64-17 3.65-10.61 0-17.16-3.65a39.28 39.28 0 0 1 -10.31-7.8 34.39 34.39 0 0 1 -7.48-12.86q-2.3-7.12-2.29-21.9zm56.23.17q0-9.81-1-13.82a24.69 24.69 0 0 0 -3.46-7.65q-4.78-6.6-14.6-6.6-10 0-14.6 6.6a21.33 21.33 0 0 0 -3.52 7.65q-.91 4-.91 13.65 0 9.9.91 14a20.37 20.37 0 0 0 3.52 7.6q4.61 6.62 14.6 6.61 9.82 0 14.6-6.61a23.44 23.44 0 0 0 3.44-7.56q1.02-4.04 1.02-13.87z" fill="#f660a1"/><path d="m118.3 104.82v-104.82h18.16v103.34q0 6.25 6.78 6.26h6.17v17h-8q-9.91 0-16.52-4.82t-6.59-16.96z" fill="#00abf3"/><path d="m156.48 104.82v-104.82h18.17v103.34q0 6.25 6.78 6.26h6.17v17h-8q-9.91 0-16.51-4.82t-6.61-16.96z" fill="#008b4f"/><path d="m216.14 144.89v18.16h-18.14v-18.16zm0-108.47v90.21h-18.14v-90.21z" fill="#ffb031"/><path d="m229.94 163.14v-126.72h18.17v9.47a30.13 30.13 0 0 1 23.29-10.52 28.79 28.79 0 0 1 14.25 3.35 32.24 32.24 0 0 1 9.91 8.39 27.55 27.55 0 0 1 5.09 11.34q1.35 6.48 1.35 23.16t-1.34 23.12a26.93 26.93 0 0 1 -5.09 11.3 30.81 30.81 0 0 1 -9.91 8.39 29.44 29.44 0 0 1 -14.25 3.26 27.42 27.42 0 0 1 -12.65-2.87 44.56 44.56 0 0 1 -10.64-7.74v46.07zm36-53.54q12.78 0 15.34-8.78a68.24 68.24 0 0 0 2.57-19.21 68.73 68.73 0 0 0 -2.57-19.25q-2.55-8.82-15.34-8.82t-15.29 9.13a72.32 72.32 0 0 0 0 37.85q2.5 9.08 15.27 9.08z" fill="#ff7a32"/><path d="m310.34 81.44q0-14.52 2.26-21.64a34.35 34.35 0 0 1 7.47-12.87 42 42 0 0 1 10.3-7.82q6.56-3.73 17.17-3.74 10.43 0 17 3.74a41.93 41.93 0 0 1 10.34 7.82 34.51 34.51 0 0 1 7.48 12.87q2.25 7.13 2.26 21.64 0 14.78-2.26 21.9a34.39 34.39 0 0 1 -7.48 12.86 39.2 39.2 0 0 1 -10.31 7.8q-6.6 3.64-17 3.65-10.62 0-17.17-3.65a39.28 39.28 0 0 1 -10.3-7.83 34.24 34.24 0 0 1 -7.47-12.86q-2.3-7.09-2.29-21.87zm56.23.17q0-9.81-1-13.82a24.66 24.66 0 0 0 -3.43-7.65q-4.78-6.6-14.6-6.6-10 0-14.61 6.6a21.5 21.5 0 0 0 -3.52 7.65q-.92 4-.91 13.65 0 9.9.91 14a20.53 20.53 0 0 0 3.52 7.6q4.6 6.62 14.61 6.61 9.81 0 14.6-6.61a23.41 23.41 0 0 0 3.43-7.56q1.01-4.04 1-13.87z" fill="#f65fa1"/><path d="m394.67 163.14v-126.72h18.16v9.47a30.15 30.15 0 0 1 23.3-10.52 28.82 28.82 0 0 1 14.25 3.35 32.24 32.24 0 0 1 9.91 8.39 27.54 27.54 0 0 1 5.08 11.34q1.35 6.48 1.35 23.16t-1.35 23.12a26.91 26.91 0 0 1 -5.08 11.3 30.81 30.81 0 0 1 -9.91 8.39 29.46 29.46 0 0 1 -14.25 3.26 27.39 27.39 0 0 1 -12.65-2.87 44.41 44.41 0 0 1 -10.65-7.74v46.07zm36-53.54q12.78 0 15.34-8.78a68.24 68.24 0 0 0 2.57-19.21 68.73 68.73 0 0 0 -2.58-19.25q-2.57-8.82-15.34-8.82t-15.3 9.13a72.32 72.32 0 0 0 0 37.85q2.51 9.08 15.29 9.08z" fill="#8e56a4"/></svg>