<svg viewBox="0 0 100.08 14.36" xmlns="http://www.w3.org/2000/svg"><path d="m11.79 3.17a8.28 8.28 0 0 1 .9 4c0 3.13-1.32 5.41-3.19 6.44a6.57 6.57 0 0 1 -3.15.74 5.8 5.8 0 0 1 -5.46-3.16 8.31 8.31 0 0 1 -.89-4c0-3.14 1.33-5.45 3.19-6.43a6.59 6.59 0 0 1 3.16-.76 5.74 5.74 0 0 1 5.44 3.17zm-5.44-.63a3.44 3.44 0 0 0 -2.66 1.17 5.08 5.08 0 0 0 -1 3.47 5 5 0 0 0 1 3.46 3.44 3.44 0 0 0 2.66 1.17 3.36 3.36 0 0 0 2.65-1.17 4.94 4.94 0 0 0 1.07-3.46 5 5 0 0 0 -1.07-3.47 3.36 3.36 0 0 0 -2.65-1.17m19 5.38 3.89 6.28h-2.9l-3.74-6.06h-3.41v6.06h-2.6v-14.04h7.16c2.72 0 4.27 1.58 4.27 4a3.65 3.65 0 0 1 -2.63 3.76zm-1.58-2.19c1.1 0 1.64-.52 1.64-1.58s-.54-1.58-1.64-1.58h-4.58v3.16zm33.13 5.16h-5.1l-1.07 3.31h-2.73l4.68-14h3.32l4.75 14h-2.75zm-2.75-7.28-1.57 4.87h3.55l-1.58-4.87zm27.16 10.59h2.6v-14.04h-2.6zm-14.31-9.27h-.41v9.27h-2.6v-14.04h3.14l6.54 9.26h.33v-9.26h2.61v14h-3.13zm-28.17 4.35h2.6a3 3 0 0 1 -3.14 2.72c-2.35 0-4-1.56-4-4.77s1.64-4.77 4-4.77a3.4 3.4 0 0 1 3.15 2h2.68a5.75 5.75 0 0 0 -5.77-4.46 6.52 6.52 0 0 0 -4.74 1.89 7 7 0 0 0 -1.94 5.29 7.16 7.16 0 0 0 1.88 5.29 6.23 6.23 0 0 0 4.6 1.89 3.79 3.79 0 0 0 3.4-1.67h.45l.23 1.51h2.18v-7.08h-5.58zm55.32 2.72a3.84 3.84 0 0 1 -2.92-1.22 5.05 5.05 0 0 1 -1.15-3.55 5 5 0 0 1 1.15-3.55 3.85 3.85 0 0 1 2.92-1.22 3.43 3.43 0 0 1 3.26 1.85h2.67c-.68-2.77-2.82-4.31-5.93-4.31a6.61 6.61 0 0 0 -4.8 1.91 7 7 0 0 0 -2 5.27 7 7 0 0 0 2 5.27 6.61 6.61 0 0 0 4.8 1.91c3.11 0 5.25-1.55 5.93-4.25h-2.67a3.43 3.43 0 0 1 -3.26 1.89" fill-rule="evenodd"/></svg>