<svg viewBox="0 0 258.61 89.3" xmlns="http://www.w3.org/2000/svg"><path d="m13.79 50.44a25 25 0 1 1 25 25 25 25 0 0 1 -25-25m-13.79 0a38.82 38.82 0 1 0 38.86-38.78 38.84 38.84 0 0 0 -38.86 38.78" fill="#e20d17"/><path d="m69.79 9.47a6 6 0 1 1 6 6 6 6 0 0 1 -6-6m-3.44 0a9.48 9.48 0 1 0 9.49-9.47 9.49 9.49 0 0 0 -9.48 9.47" fill="#e20d17"/><path d="m119 32h5.39v2.8h.07a6.53 6.53 0 0 1 2-2.42 5.2 5.2 0 0 1 3-.81h.93a5 5 0 0 1 .86.14v4.92a7.43 7.43 0 0 0 -1.13-.27 7.68 7.68 0 0 0 -1.17-.09 5.68 5.68 0 0 0 -2.44.43 3.28 3.28 0 0 0 -1.38 1.2 4.68 4.68 0 0 0 -.63 1.85 17.13 17.13 0 0 0 -.14 2.37v7.29h-5.36z"/><path d="m157.57 40.07-5.81-8.12h6.35l3.09 4.74 2.98-4.74h5.99l-5.67 8.12 6.71 9.33h-6.35l-3.81-5.82-4.09 5.82h-6.28z"/><path d="m173.63 31.95h5.38v7.94 9.51h-5.39z"/><path d="m183.26 32h5.17v2.36h.07a4.17 4.17 0 0 1 .72-1 5.34 5.34 0 0 1 1.11-.9 6.17 6.17 0 0 1 3.26-.9 6.83 6.83 0 0 1 3.28.8 4.8 4.8 0 0 1 2.13 2.32 5.87 5.87 0 0 1 2.26-2.4 6.74 6.74 0 0 1 3.27-.72 6.6 6.6 0 0 1 3 .59 4.86 4.86 0 0 1 1.9 1.61 7 7 0 0 1 1 2.41 13.77 13.77 0 0 1 .31 3v10.3h-5.38v-10.23a4.07 4.07 0 0 0 -.52-2.1 2 2 0 0 0 -1.85-.88 3.49 3.49 0 0 0 -1.56.31 2.62 2.62 0 0 0 -1 .84 3.62 3.62 0 0 0 -.54 1.26 7 7 0 0 0 -.16 1.51v9.23h-5.38v-10.41a4.4 4.4 0 0 0 -.25-1.29 2.52 2.52 0 0 0 -.7-1 2.09 2.09 0 0 0 -1.54-.43 3.3 3.3 0 0 0 -1.69.38 2.53 2.53 0 0 0 -1 1 3.93 3.93 0 0 0 -.45 1.42 13.06 13.06 0 0 0 -.11 1.65v8.69h-5.39z"/><path d="m214.56 31.95h5.39v8.73 8.72h-5.39z"/><path d="m236.81 36.26h-4.74v5.82a11.38 11.38 0 0 0 .07 1.31 2.73 2.73 0 0 0 .32 1 1.6 1.6 0 0 0 .77.66 3.43 3.43 0 0 0 1.38.23 10.54 10.54 0 0 0 1.13-.09 1.93 1.93 0 0 0 1.06-.41v4.53a7.94 7.94 0 0 1 -1.87.43 17.29 17.29 0 0 1 -1.9.11 10.08 10.08 0 0 1 -2.51-.29 5.7 5.7 0 0 1 -2-.92 4.16 4.16 0 0 1 -1.34-1.64 5.7 5.7 0 0 1 -.49-2.44v-8.28h-3.45v-4.28h3.45v-5.2h5.38v5.2h4.74z"/><path d="m250.69 52.24c-.36.93-.69 1.76-1 2.48a5.9 5.9 0 0 1 -1.28 1.81 5 5 0 0 1 -2 1.11 10.63 10.63 0 0 1 -3.12.38 12.65 12.65 0 0 1 -4-.65l.71-4.37a6.19 6.19 0 0 0 2.51.54 4.58 4.58 0 0 0 1.47-.2 2.44 2.44 0 0 0 1-.57 3.2 3.2 0 0 0 .63-.92q.25-.54.54-1.26l.4-1-7.68-17.59h5.81l4.49 11.52h.07l3.84-11.52h5.53z"/><path d="m141.57 31.56a9.11 9.11 0 1 0 9.11 9.11 9.11 9.11 0 0 0 -9.11-9.11m0 4.66a4.45 4.45 0 1 1 -4.45 4.45 4.45 4.45 0 0 1 4.45-4.45z"/><path d="m179.44 26.46a3.12 3.12 0 1 1 -3.12-3.12 3.12 3.12 0 0 1 3.12 3.12"/><path d="m220.38 26.46a3.12 3.12 0 1 1 -3.12-3.12 3.12 3.12 0 0 1 3.12 3.12"/><path d="m109.87 32a10 10 0 0 0 -2.18-.24 6.35 6.35 0 0 0 -1.69.24 7.62 7.62 0 0 0 -1.46.57 6.11 6.11 0 0 0 -1.17.78 5.37 5.37 0 0 0 -.81.84h-.07v-2.19h-4.93v25.58h5.44v-9.39a4.31 4.31 0 0 0 .73.54 5.49 5.49 0 0 0 1 .5 8.5 8.5 0 0 0 1.31.37 7.65 7.65 0 0 0 1.51.14h.45a9.11 9.11 0 0 0 1.87-17.74m-2.81 13.11a4.45 4.45 0 1 1 4.44-4.46 4.46 4.46 0 0 1 -4.44 4.45"/><path d="m215.05 72.58h6.52v-1.27h-6.52v-4.58h7v-1.26h-8.35v13.46h8.58v-1.26h-7.21zm-16.79 6.42h4.47a8 8 0 0 0 2.52-.42 6.89 6.89 0 0 0 2.28-1.26 6.33 6.33 0 0 0 1.64-2.1 7.17 7.17 0 0 0 0-5.88 6.37 6.37 0 0 0 -1.64-2.11 6.89 6.89 0 0 0 -2.28-1.26 8 8 0 0 0 -2.52-.42h-4.47zm1.37-12.21h2.66a7 7 0 0 1 2.67.47 5.41 5.41 0 0 1 1.88 1.24 4.88 4.88 0 0 1 1.16 1.7 5.88 5.88 0 0 1 0 4 4.88 4.88 0 0 1 -1.16 1.8 5.6 5.6 0 0 1 -1.84 1.24 7 7 0 0 1 -2.67.47h-2.66zm-6-1.26h-1.37v13.41h1.37v-13.45zm-20.76 0h-1.52l4 13.46h1.65l3.38-11.52 3.39 11.52h1.6l4-13.46h-1.57l-3.19 11.47-3.38-11.52h-1.64l-3.42 11.52zm-15.12 13.41h4.47a8 8 0 0 0 2.52-.42 6.89 6.89 0 0 0 2.26-1.26 6.33 6.33 0 0 0 1.64-2.1 7.25 7.25 0 0 0 0-5.88 6.37 6.37 0 0 0 -1.64-2.11 6.89 6.89 0 0 0 -2.28-1.26 8 8 0 0 0 -2.52-.42h-4.47zm1.37-12.21h2.66a7 7 0 0 1 2.67.47 5.41 5.41 0 0 1 1.88 1.24 4.88 4.88 0 0 1 1.11 1.75 5.88 5.88 0 0 1 0 4 4.88 4.88 0 0 1 -1.11 1.81 5.6 5.6 0 0 1 -1.88 1.24 7 7 0 0 1 -2.67.47h-2.66zm-10.46-1.26h-1.37v13.46h7.64v-1.26h-6.28zm-12.42 7.21h2.28l3.69 6.26h1.66l-3.87-6.39a3.8 3.8 0 0 0 2.56-1.11 3.36 3.36 0 0 0 .88-2.37 3.17 3.17 0 0 0 -1.19-2.7 5.31 5.31 0 0 0 -3.24-.89h-4.13v13.46h1.37zm0-6h2.43a5.81 5.81 0 0 1 1.55.18 2.55 2.55 0 0 1 1 .5 2 2 0 0 1 .55.75 2.52 2.52 0 0 1 .17.9 2.63 2.63 0 0 1 -.17.92 1.92 1.92 0 0 1 -.55.74 2.94 2.94 0 0 1 -1 .5 5.4 5.4 0 0 1 -1.55.19h-2.4zm-5.78 2.64a6.67 6.67 0 0 0 -3.7-3.71 7.55 7.55 0 0 0 -5.57 0 6.67 6.67 0 0 0 -3.7 3.71 7.81 7.81 0 0 0 0 5.67 6.67 6.67 0 0 0 3.7 3.71 7.55 7.55 0 0 0 5.57 0 6.67 6.67 0 0 0 3.7-3.71 7.81 7.81 0 0 0 0-5.67m-1.33 5a5.55 5.55 0 0 1 -1.06 2 5.32 5.32 0 0 1 -1.74 1.27 5.93 5.93 0 0 1 -4.64 0 5.32 5.32 0 0 1 -1.69-1.28 5.58 5.58 0 0 1 -1.09-1.85 6.6 6.6 0 0 1 0-4.43 5.58 5.58 0 0 1 1.09-1.85 5.32 5.32 0 0 1 1.74-1.27 5.93 5.93 0 0 1 4.64 0 5.32 5.32 0 0 1 1.74 1.27 5.58 5.58 0 0 1 1.04 1.82 6.6 6.6 0 0 1 0 4.43m-30.65-8.92h-1.51l4 13.49h1.6l3.4-11.55 3.36 11.55h1.64l4-13.46h-1.52l-3.23 11.46-3.38-11.52h-1.7l-3.38 11.52z"/></svg>