<svg viewBox="0 0 784.52 176.94" xmlns="http://www.w3.org/2000/svg"><path d="m124.19 69.35c2.13-6.19 11.73-6 15.84-8.76 2.87-1.9 5.67-3.84 5.8-12.91.1-7.78 3.76-9.83 5.93-10.53 0-2.22-3.35-.73-6.14 1.56 4-10 12.53-1.61 12.53-1.61-5-8.73-12.16-4.68-14.75-.37s-.66 14.16-6 16.58-8.11-2-11.83-1c-5.45 1.56-5.59 8.76-11 6.42 4.17-2.66 4-5.18 6.78-8.22 5.81-6.36 15.35.61 17.46-17.37l1 3.41c10.05-13.52 21.65-1.67 19.94 2-13.93-2.56-11 8.49-12.35 15.93h10.17zm18.91-18.54c1.57 10-19.36 6.25-21.85 14.35 4-13.07 19.77-4.74 21.85-14.35m11.31 84.32-1.75-1.78c2.42.47 5.35-1.44 7.1-2.48-3.27 1.93-7.52.77-10.44-1.56l1.56 2.5c-7.78-2.07-6.92-14.61-11.54-18.63-4-3.48-8.43-1.6-14.44-6.2s-8.39-16.59-19.39-24c15-4.23 19.87 22.8 34.19 22.8 7.14 0 10.91-6 17.35-7 4.51-.7 9.44-.31 10.22 3.76a13.51 13.51 0 0 1 -.8 7.63 9.9 9.9 0 0 0 2.18-6.47c0-8.16-8.17-8.06-11-7.84-6.32.52-7.86 4.59-15.75 2.78-10-2.32-12-19.78-23.74-20.87 6.1-5.08 12 4.11 17.48 4 4-.07 5.36-3.31 8-9.78 3-7.47 7.28-1.37 10.65 1.77s8.41 1.93 11.32-.6c-.78 2.41-3.47 2.35-2.42 3.94.46.71 1.17.38 1.92-.29 3.83-3.54 4.74-12.84.62-15.06 3.15 14.77-9.9 11.3-9.53 9.32 2.41.82 6.53-1.62 4.83-1.62-11.35 0-9.62-5.5-15.82-4.92 0 0-5.16-.23-8.26 8.07-2 5.31-7.31-2.06-13.61 0 4.22-5.59 7.39-.91 10.86-3.24s7.48-9.61 15.71-6l4.38-3.85-2.92 4.79c8.54 5.62 13.5 5.09 12.67-5.48 11 6.44 5 21.26-3.41 21.16-4.95 0-6.63-2.55-9.48-3.65-2-.76-3.62.78-5.5 2.76l7.93 3.12-9.58-1.38c-2.92 2.87-7.27 5.4-13.4 2.67l1.21 2.25h33.81l-23.14 10.31c6.18 1.28 13.8-6.31 22.53-1.06 8.42 5 4.61 16.54 1.1 16.52-3.15 0 2.87-10.33-5.73-10.12-3.15.08-5.68 2.66-8.75 5.09l2.83 7-4.65-5.67c-2.49 1.79-5.16 3.14-8.19 2.74l16 9.44h-10.9a13.09 13.09 0 0 0 1.2 6.85l1.1-.46c.85 1.75 5.76 4.7 12.67 3.52-2.57 9.93-17 7.14-19.7 4.35l.15 3.58c-6.3-15.52-11.14-16.44-20.51-16.44l21.81 22-5.21-1.09c1.57 6.18-5.83 16.95-11.13 17.56-2.07.23 3.74-4.08 3.74-10.22s-6.84-8.04-9.84-10.46c-5.35-4.42-7.51-13.45-9.57-16.93 3.75 2 8.2 9.26 11.46 13s10.22 6.44 10.22 12.26a13.91 13.91 0 0 1 -2.42 8.55c2.18 0 9-11.9 2.54-17.6-3.18-2.84-5.21-4.63-8.49-7.33a63 63 0 0 1 -11.2-12.5c-6-8.86-15.66-15.19-11.14-22.37-7 11.08 5.78 19.41 7.24 28.1s6.15 18 11.15 19.22a9.38 9.38 0 0 1 -2.49.33l-1.41-.13c-8.11-1.55-14.88-28.13-14.88-24.33 0 7 12.16 38.71 12.16 38.71l-11-7c-1.78 7.27 6.19 7.61 5.43 14.2-.9 7.46-9.56 6.77-9.4 5.07.11-1.08 3.43.05 3.43-1.72s-5.36-2.77-7.62-5.41c-1.39-1.62-2.6-2.94-3.08-9.15l-3.38 4.46s4.09-10.66 4.68-13.45-5.84-3.06-7.71-8.52l-1.27 27.13-8.17-11.08c-1.58 12.12-18.75 11.3-19.85 10.04 12.48-9.24 6.44-13.39 3.34-21.25l-6.57 3.94 5.74-6.49a16.17 16.17 0 0 1 -.37-5c.71-9.61 14.7-8.74 6.31-18.24l-22.68 36.24 2.86-19.53c-13.41 4.8-8.76 5.49-12.6 14.26-3.13 7.15-9.52 5.21-11.44 2.16-2.84-4.41.62-7.74 4.33-7.57 2.23-1.84-4.2-4.72-1.63-10.52 3.76-8.46 14.35-4.79 19.72-11.83l-13.23 1.4 14.78-4.1a26.09 26.09 0 0 0 1.7-10.16l-28.12 15.5 8.63-14.1c-15.7 13-19.49-3.3-27-2 1.93-8.69 9.21-3.73 12.42-3.73s7.93-5.74 9.56-7l-16.81-9h41.91c3.15 0 4.92-1.08 3.39-2.87-2-2.39-9.73.44-18.49 1.09a13.89 13.89 0 0 1 -11.19-4.1l-7.38 2.26 6.25-3.31c-4.3-4.27-7.59-8.64-17.73-2.5-3.14-8.15 4.43-15.1 11.24-15.29 9.67-.25 11.55 11.09 19 7.13l-12.78-14.88 20.83 10.24-2.67-7.89-9-2.35 8.73.71c-2.4-8.13-11.54-6.69-15.28-10.65-8.12-8.63.67-19.66 7.32-16.57-4.59 9.78 3.89 14 10.91 12.57l-3.4-11.39 26.9 27.21c-6.17 4.65-13 .53-16.42-9.55-3.25-9.65-9.89 1.23-20.07-2.52 5.38 2 12.4-.89 13.85 10.74 1 7.6 4.72 14.54 13 12.66-3.2 4.79-10.89-1.16-15.76 5.76 8.48-.94 11.56 6.13 17.43 10.16-7.26-5-2-10.2-11-11.37 3.25.42 5.77.74 8.91-.3s4.85-3.26 4.62-6.47c3.37 1.34 3.68 4.54 2.12 6.62s-4.71 3.24-4.79 5c0 0 .09-.32 2.26-1.37-1.63 2.17-.57 5.14 1.22 7.07-.1-1.29-.09-3.31.66-3.68 1.36 3.14 4.43 4.8 6.41 4.33-3.6-3.81-1.12-7.06-1.12-7.06-1.57 0-3.16 2.21-3.16 2.21a4.19 4.19 0 0 1 2.71-5.1 1.49 1.49 0 0 1 0-1.16c3.08 3.12 8.56 3 10.09 4 0 0-8-1.14-7 3.25.89 4.12 13.38 1.38 11.8-11.23 0 0 2.16-.23 3 .56s-.16 3.08-.16 3.08l1.59.73s-1.82 6.31-1.43 7.51c.23.69 3.08.75 3.52.77.63 0 .24.65 0 .65h-4.5c-.65 0-2.63 2.4-.76 2.81a18.78 18.78 0 0 0 9.34 0s-.38 1.88-4.72 1.88-6-.74-6-.74c-1 2.7 4.71 5.42 5.29 5.6a3.05 3.05 0 0 0 1.7 0c.2-.14 4.16-3.28 4.16-3.28l-1.2 1.92c5.31-1.23 4.52-3.9 2.69-4.5-.07-1.21 3-1 3 1.31-.24 2.95-7.77 4.58-8.71 6.58-.6 1.26.94 5.37 2.23 5.76a9.64 9.64 0 0 0 5.65-.48c.45-.25 4.46-7.75 4.46-9.6s-4.13-10.94-4.13-10.94c.79-2.34 4.31-1.73 7.53-3.79-5.24 5.43-1.68 6.13 2.16 6.3-2.91 2.46-4.94 4.06-3.78 7.85 16.94 3.71 13.58 23.32 25.84 27.49-9.75 1.48-17.63-10.87-18.54-16.52-.36 6 1.85 11.39 6.47 16.24 4 4.19 11 3.54 16.66 3.56 10.05.1 6.65 13 15.05 16a23.07 23.07 0 0 0 8.51 1.32m-63.41-85.94c-7 3.17-5.54-5.1-3.62-7.25 0 0 3.33 4.66 8 6.59-6.24-10.29.8-10-.36-23.56-.58-6.83-4.23-9.09-4.13-15.36.11-7.55 11.24-9.54 11.36-6.62.08 2.07-8.11 2.3-8.24 10.1-.11 7.31 8.08 9.07 7.88 16.17-.13 4.68-8.49 8.93-3.27 17.68l11.87-33.39-9.09 10.23c-2.91-3.61-5.21-4-5.21-10.45s7.28-7.45 7.28-10.47c0-2.44-3.65-2.79-6.3-2.91-4.12-.18-11.39 3.36-11.39 10.92s5.12 11.4 0 18.49l-4.4-6.62 3.26 8.47a15.57 15.57 0 0 0 -3 9.63c0 12.1 10 13.22 9.26 8.35m-.08-28.47c4.29 13.85-5.67 13.83-5.64 20.65-1.75-8 7.89-13.21 5.64-20.65m19.73 49c.72 1.56 3.65-1.92 8.07-.58-2.13-1.45-8.45-1.44-8.07.58m-4.88-27.68c-1.62 4.38-6.13 5.6-8.32 9.42 1.23 0 7.62-2.44 10-6.51s.18-14.44 7.67-17.25c7.81-2.94 16-7.27 6.76-16.68 14.18 3.59 6.2 18.66 4.53 20.88-1.6 2-6.82 6.17-6.82 12.81 0 4.9-4.43 10.5-7.87 11.18 3.64 1.46 9.06-6.84 9.06-6.84l17.69-22.78-10.07 5.2s2.79-2.4 2.79-10.36c0-11.24-12.13-13.26-12-9.76.09 2.31 4.12 3.95 4.24 7.78s-5.26 6-9.46 7.21l-1.87-6.29v7.07c-6.87 3.54-4.55 10.27-6.27 14.88m10.83-5.91c3.75-5.47 7.18-4.53 9-10.35-2.51 4.64-8.94 5.6-11.52 9.42-4.5 6.66 1.51 16.33-7.94 19.12 11.91.3 6.2-13.44 10.5-18.19m11.36 14.48c3.35-.86 5.43 2.08 8 1.3a1.3 1.3 0 0 0 .33-2.5s4.43-4.57 2.95-7.13c-3.64 7.4-10.63 7.13-11.33 8.33m-20.6 24.13c.34 2 4-2.22 10.91.74-2.38-3.44-11.44-3.78-10.91-.74m-49.55-14.55c-13.87 2.29-5.9-14.4-16.58-15.12 5.86 2.8 3.42 6.46 4.31 12.26 1.09 7 9.82 7.89 12.27 2.86m36.3 29.2c-.86.62-2.93 1.22-4.55 2.3-.18.28-.45 1.26-.8 1.5 1.65.34 5.21-2 5.35-3.8m45.43-7.83c2.83.2 11.65-10 8.61-11.23s-2.8 9-8.61 11.23m-105.66-40c-12.29-2.1-9.27-9.07-7.06-12.9-7.37-.58-7.75 16.17 7.06 12.9m-31.04 32.52s6.94-6.62 12.88-.7c-4.86-4.84-10.83-6.05-12.88.7m39.63 4.65c-7.8 1.46-19.09-8.7-21.21-11.16-1.27-1.48-2.47-3-4.91-3.32-.15 0-.11.17-.08.42s.08.86-.13 1-.49 0-1.36-.73a5 5 0 0 0 -3.78-1 7.27 7.27 0 0 0 -3.62 1.24c-.9.67-1.22 1.42-.9 2.11.46 1.08 2 .26 3.72.13a13.61 13.61 0 0 1 4.4 1c1.13.34 1.92 1.59 3.07 2.84 5.74 6.22 17.05 10.72 24.8 7.47m.81 14.25c5.49-.32 9.75-2 10-6.08-1.31 1.52-4.53 3.59-10.23 3.94s-14.88-6.57-18.43 3.62c8.03-4.48 15.43 5.42 20.83.68m-32.47 13.9c3.18 2.4 7.43-1.51 5.42-5.44-7.55 4.16-10.06-4.83-14.93 1.07 1.84-.5 3.68.55 6.89 3zm38.98-16.06c-2.67 4.24-7.16 8.19-12.8 6.9s-14.31-3.15-16.85 5.31c6.55-7.27 19.3 10 29.65-12.21m-24.14 49.26c-.69 4.36-2.63 3.35-3 3.17a.68.68 0 0 1 -.22-1 .82.82 0 0 0 -.07-1.21c-.43-.35-3.57.57-3 3.66a3.64 3.64 0 0 0 4.2 2.79c2.35-.3 4.63-2.41 2.05-7.41m28-34.67c-.28-8 4.72-18.2 6.87-19.35-15.69 8.39-8.87 22.4-13.29 30.45-6.81 12.38-18.81 5.6-22.8 13.1-2.48 4.65 4.17 4.87 4.17 14.87 0-2.42-.86-8.26 3.7-10.72l-2.09.2a2.33 2.33 0 0 0 -3-1.62c2.4-4.05 11.75-1.25 24.94-12.47 11.67-9.92 10.89-25.67 14.19-31.66l-3.14 3.16c-4.66 5-4.84 13.14-10.73 22.58 1.12-1.81 1.35-4.28 1.2-8.54m22.85-8.09c-.6 0-.73.2-.73.32s.28.49.73.62a32.34 32.34 0 0 0 6.76.87 32.91 32.91 0 0 0 6.76-.87c.45-.13.75-.4.73-.62s-.15-.32-.76-.32c-.11 0-4.45.12-6.73.12s-6.62-.12-6.76-.12m-2.81-14.07c.14 2.94 4.42 3.74 6.17 3.5-5.37-1.22-5.06-4.21-3.22-4.81.09-1.21-3-1-2.95 1.31m-2.29 3.77c.14 1.14 5.16 3 5.16 3s-1.24 1-3.82 0c1.33 2.29 4.63 2.26 4.63 2.26s-.24 1.36-3.86.39c.88 2.57 4.72 3.19 5.94 2.83s2.82-4.5 2.23-5.76a32.9 32.9 0 0 0 -10.28-2.72m-2.07 62.32c0-6.67-2-6.23-2-14.32 0-8.83 7.53-11.2 8.16-18.14.87-9.37-8.42-9.63-5.44-22.74-3.94 17.34 1.66 16 1.66 22.16s-9.87 7-9.87 17.84c0 6.41 3.94 8.18 3.94 15s-4.43 8.7-4.43 8.7c1.66.19 8-1.06 8-8.5m4.28-3.24c6.08-7.62 2.18-3.88 4.37-14.14 1.35-6.34 3.28-6.12 5.33-11.3 1.77-4.51.91-14.55-6.1-19.35 3.78 6.52 3.54 11.09 2 16.5s-3.78 6-6.15 12.06a18.25 18.25 0 0 0 -.86 9.17zm16.87-46.46c4.79 8.49-4.76 11.37-1.82 24.5 2 8.9 6.49 8.08 6.89 14.67s-3.56 11.09-.65 15.47 8.57 6.26 6.74 11.8c3-5.45-2.68-9.76-4.16-15.73-1.11-4.6 5.83-8.69 3.85-14.67a55.7 55.7 0 0 0 -3.4-7.25l-3.41-6.87c-4.12-8.69 4.12-14.95-4-21.92m2.77-10c-.15.4-1.32.87-3.69 1.77a6.35 6.35 0 0 1 -1.79 1.85c2.83.78 6-2.08 5.48-3.62m-4.3-28.29c4 0 4.58-1.87 7.61-1.87s4.12 2 6.56 2 3.87-1.75 2.76-3.27c-1.56 2.57-4.35-.91-6.41-.91-3.14 0-4.49 1.29-6.53 2.31-2.3 1.17-4.5.06-3.64-1.29-1.78 0-2.9-2.19.12-4.75-5.33.59-4.48 7.79-.47 7.79m-15.11-3.72c-3 0-6.47 3.33-7.1 1.16-.47-1.68 2.61-4.48 6.63-4.76-3.4-1-9 2.2-10 5.64-1.08.1-2.95-1.3-2.95-1.3.93 7.9 8.29 1 11.09 1 2.52 0 10.4 5.69 10.56-1.38-2.77 3.23-4.72-.32-8.19-.32m-25.44-28.86c.39-5.24 3.74-9.87 3.69-15.21-.06-7.85-9.07-.42-10.44-3.73-3.6-8.76 23-13.18 22.71 2.34-.18 8.16-2.44 17.19 4 18.13l4.85-19.78 5.09 28.38c-4.64-5.84-13.82-3.43-15.87-12.78-1.51-6.79 7-23.83-11.76-22.58 21.71 6.6-12.08 25 8 36.76 5.37 3.16 7.26 8.76 4.85 11.18-.32-8-8.24-9-11.14-12.34a14.82 14.82 0 0 1 -3.98-8.27l-7.47-3.56zm3.9-19.3c-1.63-5.51-10.66-3.06-8.83-.85.86 1 4.38-2 8.83.85m5.38 17.14c-8.88 16.66 21.74 9.09 17.77 23.27 6.95-16.58-20.89-8-17.77-23.27m16.22 44.72c-2.54-1.4-8.85-1.71-11.56-5.64 2.88-1.32 5.87-3.85 8.37-3.33 5.69 1.12 3.77 8.08 3.19 9m-4.18-8c-3.43-.71-4.52 4.24-1.94 5.24a19.72 19.72 0 0 1 1.94-5.24m2.17 1.23c-.19.44-1 3.38-2.12 4.58 2.12.83 4.61-2.68 2.12-4.58m22.85-2.54c2.55-.52 5.62 2.06 8.58 3.43-2.78 4-9.29 4.36-11.9 5.8-.59-.9-2.56-8.08 3.32-9.23m3 6.43c2.64-1 1.53-6.08-2-5.36a20 20 0 0 1 2 5.36m-2 .58c-1.16-1.21-2-4.22-2.19-4.67-2.52 1.93 0 5.53 2.19 4.67" fill="#9ea2a2"/><g fill="#d62130"><path d="m754.27 15.77c14.5 0 22.29 6.72 22.29 6.72l-3.19 2.65s-6-5.13-17.15-5.13c-8.13 0-13.79 5.66-13.79 13.62 0 10.08 9.72 19.27 21.22 31.12 10.08 10.44 20.87 22.28 20.87 36.61 0 18.57-16.63 29.89-37.67 29.89-10.16 0-17.38-2.51-23.82-7.86l2.83-3.36c4.6 4.07 11.61 7 20.1 7 10.61 0 18.57-5.48 18.57-14.68 0-9.72-10.61-21-20.87-31.65-11.66-12.2-23-24.58-23-38 0-16.44 13.62-26.88 33.6-26.88m-105.73 29.66c-26.53 0-41.21 18.75-41.21 42.79 0 26.53 15 43 41.38 43 16.27 0 23.52-7.61 23.52-7.61l-2.83-2.66a26.62 26.62 0 0 1 -14.86 5c-16.44 0-21.92-17.15-21.92-37.84 0-23.87 5.65-37.68 20.33-37.68a24.87 24.87 0 0 1 13.8 4.07l2.83-3s-6.9-6-21-6m-366.28 85.7c29.18 0 49.16-20.87 49.16-50.93 0-35.55-29.53-60.66-62.07-60.66-35.37 0-61 24.93-61 59.77a67.08 67.08 0 0 0 9.55 35l3.53-1.77c-4.24-7.78-7.07-18.93-7.07-29.18 0-29.54 21.22-46.16 47.93-46.16 26.34 0 46.15 18.39 46.15 45.8 0 25.3-14 43.51-36.43 43.51v-62.19h-23.52v102.69h23.48v-36.41a91.08 91.08 0 0 0 10.26.53m113.52-1.81h23.52v-81.34h-23.49v59.77c0 8.84-8.66 16.62-17.33 16.62-9 0-14-6.18-14-18.74 0-14 10.09-57.65 10.09-57.65h-23.49s-9.91 43.68-9.91 56.94c0 15.91 11.32 26.17 28.12 26.17 13.09 0 22.28-6 26.52-13.26zm134.25 0h23.52v-129.09h-23.49zm-51.29 1.76c-9.37 0-15.91-4.24-19.27-9.72v8h-23.47v-129.13h23.5v55.18c3.5-6.2 11.5-10.08 21.75-10.08 21.75 0 36.43 15 36.43 39.61 0 28.12-15.56 46.15-38.91 46.15m-4.6-5c16.28 0 19.11-22.1 19.11-40.85 0-20.87-6.19-35.37-17.86-35.37-7.61 0-14.69 6-15.92 17.68v42.8c0 8 6.72 15.74 14.67 15.74m96.28-78.13h23.55v81.35h-23.55zm11.85-37.44c7.43 0 12.73 5.3 12.73 12.55s-5.3 12.56-12.73 12.56-12.73-5.3-12.73-12.56 5.3-12.55 12.73-12.55m101.37 37.49h23.51v81.35h-23.51zm11.85-37.49c7.42 0 12.73 5.3 12.73 12.55s-5.31 12.56-12.73 12.56-12.74-5.3-12.74-12.56 5.3-12.55 12.74-12.55"/><path d="m625.43 165.06v-.06a11.64 11.64 0 0 1 11.69-11.95 12 12 0 0 1 9 3.66l-1.78 1.92a10.05 10.05 0 0 0 -7.27-3.17c-5.11 0-8.94 4.16-8.94 9.47v.07c0 5.34 3.86 9.53 8.94 9.53 3.17 0 5.25-1.22 7.46-3.33l1.72 1.68a12 12 0 0 1 -9.24 4.06 11.52 11.52 0 0 1 -11.58-11.88z"/><path d="m661 153.28h2.44l10.56 23.27h-2.81l-2.7-6.11h-12.6l-2.74 6.11h-2.67zm6.44 14.82-5.25-11.78-5.28 11.78z"/><path d="m680.18 153.44h2.44l14.56 18.56v-18.56h2.54v23.11h-2.08l-14.92-19v19h-2.54z"/><path d="m716.45 153.28h2.44l10.53 23.27h-2.81l-2.7-6.11h-12.58l-2.74 6.11h-2.67zm6.43 14.82-5.24-11.78-5.28 11.78z"/><path d="m735.62 153.44h8c7.26 0 12.28 5 12.28 11.49v.07c0 6.5-5 11.55-12.28 11.55h-8zm8 20.7c5.84 0 9.57-4 9.57-9.08v-.06c0-5.12-3.73-9.15-9.57-9.15h-5.41v18.29z"/><path d="m770.11 153.28h2.44l10.53 23.27h-2.81l-2.7-6.11h-12.57l-2.74 6.11h-2.67zm6.43 14.82-5.25-11.78-5.29 11.78z"/></g></svg>