<svg viewBox="0 0 131.49 18" xmlns="http://www.w3.org/2000/svg"><path d="m126.9 4.5-4.59-4.5h-45.86v.13l4.45 4.37 4.59 4.5-4.59 4.5-4.45 4.37v.13h45.86l4.59-4.5 4.59-4.5z" fill="#49d360"/><path d="m97.86 4.86a2.46 2.46 0 1 0 -4 1.92 3.9 3.9 0 0 1 -1.62 2.22c-3 1.84-3.19 3.07-3.16 5.08v.54 1.36h2.31v-1.34c0-.2 0-.39 0-.56 0-1.51 0-1.83 2-3.07a6.32 6.32 0 0 0 2.7-3.71 2.43 2.43 0 0 0 1.77-2.44zm-2.44 1.76a1.74 1.74 0 1 1 1.71-1.76 1.73 1.73 0 0 1 -1.71 1.76z" fill="#231f20"/><path d="m91.39 8.12v-5.4h-2.31v7.28a9.45 9.45 0 0 1 2.31-1.88z" fill="#231f20"/><path d="m85.49 9-4.59-4.5-4.45-4.37v-.13h-76.45v18h76.45v-.13l4.45-4.37z" fill="#fff"/><g fill="#231f20"><path d="m100.92 10.16v-1.6a1.81 1.81 0 0 1 1.83-2.05 1.36 1.36 0 0 1 1.49 1.15v-1.25-1.6h.91v7.29h-.91v-1a1.35 1.35 0 0 1 -1.49 1.15 1.82 1.82 0 0 1 -1.83-2.09zm3.33-.06v-1.49a1.22 1.22 0 1 0 -2.43 0v1.49a1.22 1.22 0 1 0 2.43 0z"/><path d="m106.93 10.1v-1.49a2.16 2.16 0 0 1 4.32 0v1h-3.43v.53a1.18 1.18 0 0 0 1.27 1.34c.69 0 1.13-.25 1.23-.74h.91a1.93 1.93 0 0 1 -2.14 1.5 2 2 0 0 1 -2.16-2.14zm3.43-1.2v-.29a1.27 1.27 0 1 0 -2.54 0v.29z"/><path d="m112.6 6.61h.93l1.29 3.69c.15.44.25.89.31 1.11.06-.22.15-.67.3-1.11l1.24-3.69h.94l-1.91 5.49h-1.18z"/><path d="m13.26 3.81h1l-3.6 9.39h-.95z"/><path d="m15.46 6.61h.93l1.28 3.69c.15.44.25.89.31 1.11.06-.22.15-.67.3-1.11l1.24-3.69h.94l-1.91 5.49h-1.18z"/><path d="m21.81 11.28h2v-3.85h-1.81v-.82h2.65v4.67h1.85v.82h-4.7zm1.59-6.28a.71.71 0 0 1 1.42 0 .72.72 0 0 1 -1.42 0z"/><path d="m27.81 10.1v-1.49a2 2 0 0 1 2.19-2.1 1.93 1.93 0 0 1 2.14 1.9h-.9a1.11 1.11 0 0 0 -1.24-1.1 1.19 1.19 0 0 0 -1.29 1.29v1.5a1.19 1.19 0 0 0 1.29 1.3 1.11 1.11 0 0 0 1.24-1.1h.9a1.93 1.93 0 0 1 -2.14 1.9 2 2 0 0 1 -2.19-2.1z"/><path d="m35.06 10.65v-3.22h-1.55v-.82h1.55v-1.55h.94v1.55h2.2v.82h-2.2v3.22a.58.58 0 0 0 .6.63h1.5v.82h-1.5a1.38 1.38 0 0 1 -1.54-1.45z"/><path d="m39.81 10.08v-1.45a2.15 2.15 0 0 1 4.3 0v1.46a2.15 2.15 0 0 1 -4.3 0zm3.4 0v-1.45a1.25 1.25 0 1 0 -2.5 0v1.45a1.25 1.25 0 1 0 2.5 0z"/><path d="m46.05 6.61h.95v1a1.3 1.3 0 0 1 1.46-1.15 1.83 1.83 0 0 1 1.88 2v.38h-.9v-.3a1.16 1.16 0 0 0 -1.25-1.32c-.78 0-1.2.45-1.2 1.32v3.56h-.9z"/><path d="m51.81 10.1v-1.49a2 2 0 0 1 2.19-2.1 1.93 1.93 0 0 1 2.14 1.9h-.9a1.11 1.11 0 0 0 -1.24-1.1 1.19 1.19 0 0 0 -1.29 1.29v1.5a1.19 1.19 0 0 0 1.29 1.3 1.11 1.11 0 0 0 1.24-1.1h.9a1.93 1.93 0 0 1 -2.14 1.9 2 2 0 0 1 -2.19-2.1z"/><path d="m57.88 4.81h.9v2.85a1.3 1.3 0 0 1 1.46-1.15 1.73 1.73 0 0 1 1.81 1.9v3.69h-.9v-3.59a1.11 1.11 0 0 0 -1.15-1.24 1.17 1.17 0 0 0 -1.21 1.34v3.49h-.9z"/><path d="m63.61 10.55a1.63 1.63 0 0 1 1.85-1.64h1.7v-.55a1 1 0 0 0 -1.16-1.06 1.11 1.11 0 0 0 -1.19.76h-.9a2 2 0 0 1 2.09-1.55 1.81 1.81 0 0 1 2 1.82v3.77h-.88v-1c-.08.71-.73 1.15-1.69 1.15-1.11-.05-1.82-.68-1.82-1.7zm3.55-.2v-.78h-1.68a.88.88 0 0 0 -1 .93c0 .62.44 1 1.19 1s1.49-.5 1.49-1.15z"/><path d="m69.88 6.61h.9v1a1.3 1.3 0 0 1 1.46-1.15 1.73 1.73 0 0 1 1.81 1.9v3.74h-.9v-3.59a1.1 1.1 0 0 0 -1.15-1.22 1.16 1.16 0 0 0 -1.21 1.32v3.49h-.9z"/></g></svg> 