<svg viewBox="0 0 26.91 26.91" xmlns="http://www.w3.org/2000/svg"><rect fill="#35b44a" height="26.91" rx="3.12" width="26.91"/><g fill="#fff"><path d="m9.84 12.24v-9.95h-4v13.66c.56-1.52 1.71-2.17 4-3.71z"/><path d="m21.07 6.04c0-2.36-1.92-4.28-4.28-4.28s-4.28 1.92-4.28 4.28c0 1.34.63 2.52 1.59 3.31-.53 1.49-1.38 2.88-2.79 3.73-5.28 3.18-5.5 5.31-5.45 8.79v.94l.03 2.35 4-.06-.03-2.32c0-.34 0-.67 0-.97-.04-2.61-.05-3.16 3.52-5.31 2.23-1.34 3.8-3.53 4.68-6.4 1.74-.54 3.01-2.15 3.01-4.07zm-4.28 3.26c-1.8 0-3.26-1.46-3.26-3.26s1.46-3.26 3.26-3.26 3.26 1.46 3.26 3.26-1.46 3.26-3.26 3.26z"/></g></svg>