<svg width="100%" height="100%">
  <defs>
    <style>
      .d {
        fill: #e7d0ba;
      }

      .e {
        fill: #d6cec5;
      }

      .f {
        fill: #a38a70;
      }
    </style>
    <pattern id="skadis" x="20" y="-15" patternUnits="userSpaceOnUse" width="107" height="111" viewBox="0 0 107 111">
      <g id="hole">
        <!-- <rect fill="#c6a479" x="0" y="0" height="100%" width="100%"/> -->
        <rect class="e" x="1" y="1.12" width="15" height="40" rx="7.5" ry="7.5" />
        <path class="f"
          d="M15.91,4.33C14.18,1.26,11.07,0,8.5,0,3.81,0,0,3.81,0,8.5v25.29c0,1.15,.27,2.38,.83,3.55-.95-2.29,.5-3.89,1.17-5.47V8.5c0-3.58,2.92-6.5,6.5-6.5s6.5,2.92,6.5,6.5v1.87c.73-1.71,2.37-3.43,.91-6.03Z" />
        <path class="d"
          d="M1.1,37.9c1.73,3.07,4.83,4.33,7.41,4.33,4.69,0,8.5-3.81,8.5-8.5V8.44c0-1.15-.27-2.38-.83-3.55,.95,2.29-.5,3.89-1.17,5.47v23.37c0,3.58-2.92,6.5-6.5,6.5s-6.5-2.92-6.5-6.5v-1.87c-.73,1.71-2.37,3.43-.91,6.03Z" />
      </g>
      <use x="0" y="0" href="#hole" />
      <use x="53" y="55" href="#hole" />
    </pattern>
  </defs>
  <rect x="0" y="0" width="100%" height="100%" fill="url(#skadis)" />
</svg>