<svg viewBox="0 0 197.8 70.85" xmlns="http://www.w3.org/2000/svg"><path d="m124.33 37.6-3.1 8.32 2.16-11.06-3.91 10.57 2.16-11.06-3.92 10.56 2.16-11.06-3.91 10.57 2.15-11.06-3.91 10.57 1.86-9.54-2.88 10.26 8.49 2.39 2.66-9.45zm2.46-7.38c1.32-.4 4.75-2.89 6.22-2.23l56.91 15.99c6.57 1.84 9.11 7.84 6.81 16.03s-7.6 11.99-14.16 10.15l-56.91-15.99c-1.61-.21-3.15-4.12-4.14-5.14l-9.19-2.58c-1.26.42-4.49 2.68-5.9 2.08-5.15-1.18-6.7-1.85-6.57-9.33-9.06-2.21-77.97-22.85-84.23-22.59.46.6-13.69-5.57-13.79-5.56-2.61-.98-1.28-4.12-.75-6.01.47-1.9 1.03-5.25 3.74-4.74.22.13 15.04 2.1 14.65 2.43 5.47 3.58 74.46 21.64 83.69 24.59 3.79-6.46 5.45-6.23 10.47-4.55 1.52.24 3.08 3.82 3.95 4.86l9.19 2.58zm46.05 10.49c-11.24-3.28-29.82-8.4-39.89-10.82 15.33 4.87 42.59 12.53 58.21 16.35-1.41-.49-13.91-4.29-18.32-5.53zm-61.32-13.3c-.68-.25-1.36-.34-2.13-.37l-5.63 16.67 3.76-16.63c-.41.03-.82.07-1.2.12-2.3 3.24-5.2 15.76-2.9 17.72l3.71 1.04.83-.4 4.1-1.95.08.02 3.77-13.42c-.73-.62-1.69-1.38-2.72-1.99l-5.59 16.58 3.93-17.38zm81.81 24.28-66.38-18.65-.98 3.49 67.12 18.86c.16-1.17.26-2.4.24-3.69zm-175.21-46.65-.1-.02-13.59-2.08-1.58 5.64 12.7 5.31.08.03c14.7 1.69 67.58 18.33 84.73 22.63l1.23-4.37-66.26-20.18 40.81 10.51c-21.85-6.49-47.38-12.35-58.02-17.47zm173.63 51.5c-20.3-6.32-44.66-13.16-65.27-18.34 9.73 3.08 21.95 6.6 32.51 9.6 10.59 2.94 22.84 6.29 32.76 8.74zm-.61 5.5-67.04-18.83-.63 2.23 64.2 19.4-63.4-16.49 2.11 3.24c2.36-.01 54.89 16.95 61.26 16.08.95-1.13 2.33-3.05 3.5-5.62z" fill="#3f4040"/><path d="m132.95 29.88c10.07 2.42 28.65 7.54 39.89 10.82 4.41 1.24 16.91 5.04 18.32 5.53-15.62-3.82-42.88-11.49-58.21-16.35z" fill="#fff"/><g fill="#87c660"><path d="m109.39 27.03c.77.03 1.45.12 2.13.37l-3.93 17.38.37.77-.83.4-3.71-1.04c-2.3-1.95.6-14.48 2.9-17.72.38-.05.78-.09 1.2-.12l-3.76 16.63z"/><path d="m107.59 44.78 5.59-16.58c1.03.61 1.99 1.37 2.72 1.99l-3.77 13.42-.08-.02-4.1 1.95-.37-.77z"/><path d="m126.95 33.04 66.38 18.65c.02 1.29-.08 2.52-.24 3.69l-67.12-18.86.98-3.49z"/></g><path d="m18.03 5.03.1.02c10.63 5.12 36.17 10.98 58.02 17.46l-40.82-10.51 66.25 20.19-1.23 4.37c-17.14-4.3-70.02-20.94-84.72-22.63l-.08-.03.24-.58c.49-.67 1.24-2.47 1.55-3.64.36-1.16.64-3.09.57-3.91l.12-.75z" fill="#eee"/><path d="m4.43 2.94 13.59 2.08-.12.75c-1.17 1.65-2.25 5.53-2.12 7.55l-.24.58-12.69-5.32z" fill="#eee"/><path d="m118.12 33.38-2.16 11.06 3.92-10.56-2.16 11.05 3.92-10.56-2.16 11.06 3.91-10.57-2.16 11.06 3.1-8.32-2.66 9.45-8.49-2.38 2.88-10.27-1.86 9.55z" fill="#0cc"/><path d="m126.47 38.2c20.62 5.18 44.98 12.01 65.27 18.34-9.92-2.44-22.17-5.79-32.76-8.74-10.56-3-22.78-6.53-32.51-9.6z" fill="#fff"/><path d="m17.91 5.77c.07.82-.21 2.76-.57 3.91-.31 1.17-1.06 2.96-1.55 3.64-.13-2.02.95-5.9 2.12-7.55z" fill="#3f4040"/><path d="m124.09 43.2 67.04 18.83c-1.17 2.57-2.55 4.49-3.5 5.62-6.37.87-58.9-16.09-61.26-16.08l-2.11-3.24 63.4 16.49-64.2-19.4.63-2.23z" fill="#87c660"/></svg>