<svg viewBox="0 0 190.74 98.42" xmlns="http://www.w3.org/2000/svg"><path d="m46.95.28c1.62-.3 2.42 2.11.96 2.84-6.16 3.47-18.04 23.48-19.64 30.11-.36 1.49.86 4.23 11.06 7.52 4.4 1.17 9.85 2.52 16.07 4.04l-.31 1.3c.54 3.33-.67 7.33-1.43 10.7 11.71 1.79 28.6 4.12 40.94 7.1 1.98.48 3.86.97 5.57 1.49-12.67-2.97-33.39-4.37-47.22-5.65-.44 1.52-.89 3.29-1.67 4.41l132.15 31.91c.48-.21 1.3-1.01 1.79-1.72-20.05-9.82-47.24-9.86-67.51-19.44 20.92 8.78 48.37 7.5 69.02 16.73 1.46-3.72 2.75-8.95.8-12.57l.51-1.68c.56.17 1.09.33 1.62.49.29.53 1.69 3.55-.03 10.69s-4.35 9.19-4.86 9.53c-1.69 1.88-101.45-24.47-103.35-24.15-6.59-1.56-42.89-10.53-48.71-11.44-8.73.79-9.04 12.77-7.59 17.01l-1.91 7.92c-1.07 6.69-24.96.93-22.83-5.51l1.91-7.92c.7-1.71 2.9-1.94 4.73-9 .17-.93.24-1.75.22-2.5h2.81c.08 4.46-1.59 9.2-4.16 11.96-.24.25-.48.49-.73.71l-1.8 7.48c-.02.07-.32 1.76 8.02 3.78 2.12.51 3.73.79 4.96.91 1.47-2.47 2.1-5.16 1.27-7.93l-10.1-3.84 11.18 1.24c1.84-4.17 2.82-8.72 2.87-13.28-2.41-.25-6.04-1.47-7.59-2.3 1.43.49 4.93 1.11 7.1 1.02-4.62-.86-8.35-2.57-11.63-4.72 7.04 2.82 17.31 1.68 23.98-1.73-.03-.05-.05-.09-.07-.15-4.22 1.6-10.6 2.17-14.93 1.41 4.25.2 10.28-1.11 14.12-3.15-2.46-7.17-10.21-12.26-11.15-19.71 1.92-8.22 9.49-17.99 14.31-24.39 2.1-2.56 3.19-4.7 3.81-5.1-.32.1-.63.2-.95.28l-.61-2.82c2.74-.78 5.74-1.4 9.01-1.86zm5.09 45.26c-.04-.12-.05-.2-.05-.2-.02 4.57-2.39 13.48-3.83 17.78 3.02-4.78 4.98-11.96 3.88-17.58z" fill="#3f4040"/><path d="m37.94 2.14.61 2.82c-29.63 9.26-26.27 31.41-32.26 48.7 1.32 1.04 2.26 2.41 2.86 3.95.6 1.49.88 3.17.9 4.88h-2.81c-.14-5.23-4.46-6.46-4.14-8.7l3.11-12.87c2.41-10 5.2-31.27 31.73-38.78z" fill="#3f4040"/><path d="m24.26 14.45c-.3.25-5.04 4.44-9.22 12.23-2 3.74-3.26 9.6-3.44 12.64 1.98-9.88 5.49-15.95 12.66-24.86zm14.3-9.49c.32-.09.63-.19.95-.28-.62.4-1.71 2.54-3.81 5.1-4.83 6.41-12.39 16.17-14.31 24.39.94 7.45 8.69 12.54 11.15 19.71-3.85 2.04-9.87 3.36-14.12 3.15 4.33.77 10.7.2 14.93-1.41.02.06.04.1.07.15-6.67 3.41-16.93 4.55-23.98 1.73l-.27.11c-.6-1.54-1.54-2.91-2.86-3.95 5.97-17.29 2.61-39.44 32.25-48.7z" fill="#ddd"/><path d="m15.04 26.68c4.17-7.79 8.92-11.98 9.22-12.23-7.17 8.92-10.67 14.98-12.66 24.86.18-3.03 1.44-8.89 3.44-12.64z" fill="#3f4040"/><path d="m55.41 44.79c37.87 9.21 104.02 23.88 132.64 32.57l-.51 1.68c.34 1.28.13 3.45-.1 4.94l-16.72-4.04c-3.82-.08-7.75.15-11.77-.03-15.12-1.4-32.29-4.28-45.72-10.68 16.02 4.99 34.92 8.39 52 9.39l-70.09-16.92-39.28-9.48c.26-2.03.16-4.29-.67-5.92-.05-.09-.07-.16-.09-.19l.31-1.31z" fill="#3f4040"/><path d="m55.1 46.1s.04.09.09.19c.83 1.63.93 3.89.67 5.92l39.28 9.48-.53 2.19c-12.34-2.98-29.23-5.31-40.94-7.1.76-3.37 1.96-7.36 1.43-10.68z" fill="#d8ae50"/><path d="m51.98 45.34s.01.08.05.2c1.09 5.62-.87 12.8-3.88 17.58 1.44-4.3 3.81-13.21 3.83-17.78z" fill="#ccc"/><path d="m187.44 83.98c.24-1.5.44-3.67.1-4.94 1.94 3.63.66 8.85-.8 12.57-20.65-9.22-48.1-7.95-69.02-16.73 20.27 9.57 47.47 9.62 67.51 19.44-.49.7-1.31 1.5-1.79 1.72l-132.16-31.91c.78-1.12 1.23-2.89 1.67-4.41 13.84 1.28 34.55 2.69 47.22 5.65-1.71-.51-3.58-1.01-5.57-1.49l.53-2.19 70.09 16.92c-17.08-1-35.98-4.4-52-9.39 13.43 6.4 30.6 9.28 45.72 10.68 4.02.19 7.95-.04 11.77.03l16.72 4.04zm-74.96-8.22c-5.42-3.07-13.05-5.5-19.64-6.53-6.46-1.02-14.27-1.59-20.4-2.8 12.2 4.7 27.75 4.94 40.04 9.33z" fill="#d8ae50"/><path d="m92.84 69.23c6.58 1.03 14.21 3.46 19.64 6.53-12.29-4.39-27.84-4.62-40.04-9.33 6.13 1.2 13.94 1.77 20.4 2.8z" fill="#3f4040"/><g fill="#ddd"><path d="m9.15 57.61.27-.11c3.28 2.15 7.01 3.86 11.63 4.72-2.17.08-5.67-.54-7.1-1.02 1.55.83 5.19 2.04 7.59 2.3-.05 4.56-1.03 9.1-2.87 13.28l-11.18-1.24-1.61-1.1c2.57-2.75 4.24-7.49 4.16-11.95-.02-1.71-.3-3.39-.9-4.88z"/><path d="m5.89 74.43 1.61 1.1 10.1 3.84c.83 2.77.2 5.46-1.27 7.93-1.23-.12-2.84-.4-4.96-.91-8.34-2.01-8.03-3.71-8.02-3.78l1.8-7.48c.25-.22.49-.46.73-.71z"/></g></svg>