<svg viewBox="0 0 199.52 90.21" xmlns="http://www.w3.org/2000/svg"><path d="m182.47 49.24c16.32-5.04 22.34-37.84 11.78-31.63-12.44 9.81-9.77 15.26-21.75 1.08 1.24-1.76 14.4-11.15 13.38-13.77-.7-3.68-12.05-8.91-25.86-.03-1.9-2.38-5.47-6.82-8.11-2.58-4 7.66-11.42 19.04-15.4 20.36-57.97 19.11-96.58 29.19-125.78 37.43-7.27 2.41-13.11 9.35-9.77 19.44s12.17 12.17 19.44 9.76c28.28-10.78 65.4-25.81 123.26-45.06 12.39-2.73 25.08 10.19 38.81 4.99zm-30.09-19.21c-.32.64-.59 1.25-.79 1.81-.02.04-.03.08-.04.12l-1.13-1.23c.07-.06.14-.13.22-.2.36-.34.75-.74 1.14-1.18l.62.67zm7.58-4.96-1.5 1.38-.67-.73c.23-.49.43-.96.59-1.4.09-.25.17-.48.24-.7zm-10.55 4.58-1.07-1.16s.05-.05.08-.08c.4-.37.83-.82 1.25-1.31l.58.63c-.34.67-.63 1.33-.85 1.92zm8.49-6.82c-.23.19-.49.41-.76.67-.24.22-.48.47-.73.73l-.75-.81c.19-.43.37-.84.51-1.22.12-.32.22-.63.3-.9l1.42 1.54zm-10.62 4.5-1.1-1.2 1.41-1.3.55.6c-.34.67-.63 1.31-.86 1.9zm7.06-5.36-.79-.86c.16-.36.31-.72.43-1.05.15-.41.27-.77.36-1.1l1.5 1.63c-.27.21-.57.47-.9.78-.2.18-.4.39-.6.6zm-148.09 55.47c-4.17-12.78 15.23-19.2 19.51-6.46 4.17 12.78-15.23 19.2-19.51 6.46z" fill="#3f3f3f"/><path d="m182.33 43.47c8.56-4.01 12.05-15.31 14.06-23.46-4.81 3.46-12.93 15.46-19.43 8.33-6.47-7.13-15.89-17.32-22.19-24.55 0 0-10.22 19.6-17.24 21.92-64.13 21.25-121.04 35.87-125.78 37.44s-10.71 6.36-7.73 15.37c1.16 3.68 5.26 8.24 9.98 8.05 7.07-.17 12.74-4.3 19.63-6.59 7.92-3.21 16.26-6.48 24.51-9.66 27.5-10.5 58.23-21.4 85.44-29.4 12.87-3.36 26.06 7.89 38.76 2.54zm-29.95-13.45c-.34.69-.61 1.31-.83 1.93l-1.13-1.23c.47-.41.88-.85 1.35-1.37l.62.67zm7.58-4.96-1.5 1.38-.67-.73c.34-.73.61-1.39.83-2.1zm-10.55 4.58-1.07-1.16c.45-.4.88-.86 1.34-1.39l.58.63c-.34.67-.63 1.33-.85 1.92zm8.49-6.82c-.49.4-1.01.89-1.49 1.39l-.75-.81c.33-.72.6-1.43.81-2.12l1.42 1.54zm-10.62 4.5-1.1-1.2 1.41-1.3.55.6c-.34.67-.63 1.31-.86 1.9zm6.69-7.27c.15-.41.27-.77.36-1.1l1.5 1.63c-.47.37-1.04.89-1.5 1.38l-.79-.86c.16-.36.31-.72.43-1.05zm-134.73 63.91c-12.78 4.17-19.21-15.22-6.46-19.5 12.77-4.17 19.19 15.23 6.46 19.51z" fill="#ccc"/><g fill="#3f3f3f"><path d="m19.16 84.47c5.5-1.82 8.49-7.78 6.67-13.27s-7.77-8.49-13.27-6.67-8.49 7.78-6.67 13.27 7.78 8.49 13.27 6.67zm-10.22-7.68c-1.27-3.82.81-7.94 4.63-9.21s7.94.81 9.21 4.63-.81 7.94-4.63 9.21-7.94-.81-9.21-4.63z"/><path d="m139.32 33.61c-1.62-4.89-6.44-3.06-15.36-.34-8.03 2.46-82.01 25.66-96.65 30.25-.61.19-.89.84-.71 1.38.06.18.17.34.33.48.93.79 2 2.16 2.78 4.53s.75 4.11.47 5.3c-.05.2-.03.4.02.58.18.54.79.89 1.39.68 14.49-5.06 87.69-30.6 95.6-33.43 8.79-3.14 13.74-4.55 12.12-9.44zm-107.79 35.7c-.39-1.18-.88-2.22-1.45-3.12 10.6-3.31 99.75-31.12 103.05-31.89 2.73-.64 3.55 1.5 3.78 2.49-1.15 1.04-3.76 2.1-8.85 3.91-.49.17-1 .35-1.51.54-7.67 2.74-77.1 26.97-94.28 32.97.09-1.49-.15-3.13-.73-4.88z"/><path d="m163.59 16.98c.63.71 1.27 1.44 1.92 2.16.65.71 1.31 1.43 1.95 2.13.64.71 1.29 1.38 1.91 2.04 1.25 1.32 2.43 2.53 3.46 3.55 2.06 2.05 3.51 3.34 3.51 3.34s-1.13-1.58-2.96-3.84c-.91-1.13-1.99-2.44-3.17-3.81-.59-.68-1.19-1.41-1.83-2.11-.63-.71-1.27-1.43-1.92-2.16-.65-.71-1.31-1.43-1.95-2.13-.64-.71-1.29-1.38-1.91-2.04-1.25-1.32-2.43-2.53-3.46-3.55-2.06-2.05-3.51-3.34-3.51-3.34s1.14 1.58 2.96 3.84c.91 1.13 1.99 2.44 3.17 3.81.59.69 1.19 1.4 1.83 2.11z"/><path d="m101 47.72c2.81-.98 5.53-1.93 8.11-2.82 2.57-.91 5.01-1.78 7.25-2.58 4.49-1.6 8.2-3.01 10.82-3.97 1.31-.48 2.32-.88 3.02-1.14.7-.27 1.07-.41 1.07-.41s-.38.11-1.1.31c-.72.21-1.77.49-3.1.89-2.66.8-6.49 1.88-11.05 3.27-2.28.7-4.74 1.46-7.35 2.26-2.6.82-5.35 1.68-8.19 2.58-2.83.91-5.77 1.83-8.74 2.81-2.97.97-5.99 1.96-9.01 2.95-3.01 1.01-6.02 2.02-8.99 3.01-2.97.98-5.87 2-8.69 2.96-5.63 1.94-10.88 3.78-15.36 5.4-4.49 1.6-8.2 3.02-10.81 3.97-1.31.48-2.32.88-3.02 1.14-.7.27-1.07.41-1.07.41s.38-.11 1.1-.31c.72-.21 1.77-.49 3.1-.89 2.66-.8 6.49-1.88 11.05-3.27 4.56-1.38 9.87-3.03 15.55-4.84 2.83-.91 5.77-1.83 8.74-2.81 2.97-.97 5.99-1.96 9.01-2.95 3.01-1.01 6.02-2.02 8.99-3.01s5.87-2.01 8.69-2.97z"/><path d="m160.95 28.08 12.14 11.05-10.82-12.27c.83-.6 1.69-1.75.79-2.69l-7.75-8.41c-.54-.59-1.45-.62-2.04-.08-.18.35-11.34 9.92-10.58 10.31-.76.36 7.96 9.06 8.13 9.45.54.59 1.45.62 2.04.08l8.08-7.45zm-7.41-6.97c.16-.36.31-.72.43-1.05.15-.41.27-.77.36-1.1l1.5 1.63c-.27.21-.57.47-.9.78-.2.18-.4.39-.6.6zm2.94.18 1.42 1.54c-.23.19-.49.41-.76.67-.24.22-.48.47-.73.73l-.75-.81c.19-.43.37-.84.51-1.22.12-.32.22-.63.3-.9zm-10.31 4.85 1.41-1.3.55.6c-.34.67-.63 1.31-.86 1.9zm13.79-1.07-1.5 1.38-.67-.73c.23-.49.43-.96.59-1.4.09-.25.17-.48.24-.7zm-11.62 3.41s.05-.05.08-.08c.4-.37.83-.82 1.25-1.31l.58.63c-.34.67-.63 1.33-.85 1.92l-1.07-1.16zm2.07 2.25c.07-.06.14-.13.22-.2.36-.34.75-.74 1.14-1.18l.62.67c-.32.64-.59 1.25-.79 1.81-.02.04-.03.08-.04.12l-1.13-1.23z"/></g><path d="m146.84 29.33c.2-.35.46-.85.81-1.44.69-1.18 1.65-2.73 2.66-4.25s2.07-3 2.89-4.1c.41-.55.77-.99 1.02-1.31.25-.31.4-.49.4-.49s-.1.21-.3.56-.46.85-.81 1.44c-.69 1.18-1.65 2.73-2.66 4.25s-2.07 3.01-2.89 4.1c-.41.55-.77.99-1.02 1.31-.25.31-.4.49-.4.49s.1-.21.3-.56z" fill="#ccc"/><path d="m149.04 31.46c.2-.35.46-.85.81-1.44.69-1.18 1.65-2.73 2.66-4.25s2.07-3 2.89-4.1c.41-.55.77-.99 1.02-1.31.25-.31.4-.49.4-.49s-.1.21-.3.56-.46.85-.81 1.44c-.69 1.18-1.65 2.73-2.66 4.25s-2.06 3.01-2.89 4.1c-.41.55-.77.99-1.02 1.31-.25.31-.4.49-.4.49s.1-.21.29-.56z" fill="#ccc"/><path d="m151.25 33.59c.2-.35.46-.85.81-1.44.69-1.18 1.65-2.73 2.66-4.25s2.07-3.01 2.89-4.1c.41-.55.77-.99 1.02-1.31.25-.31.4-.49.4-.49s-.1.21-.3.56-.47.85-.81 1.44c-.69 1.18-1.65 2.73-2.66 4.25s-2.06 3.01-2.89 4.1c-.41.55-.77.99-1.02 1.31-.25.31-.4.49-.4.49s.1-.21.29-.56z" fill="#ccc"/><path d="m163.81 9.34 3.24-4.01-4.26 2.92-.77-.82c11.04-7.65 20.68-2.18 20.68-2.18l-12.33 11.04-.45-.48 9.77-10.24-10.99 8.95-4.88-5.18z" fill="#ccc"/></svg>