<svg viewBox="0 0 125.36 35.93" xmlns="http://www.w3.org/2000/svg" xmlns:xlink="http://www.w3.org/1999/xlink"><linearGradient id="a" gradientUnits="userSpaceOnUse" x1="18.49" x2="16.88" y1="36.97" y2="22.5"><stop offset="0" stop-color="#3b6e8f"/><stop offset="1" stop-color="#000018"/></linearGradient><g transform="translate(-.00153 .00229)"><g fill="#3b6e8f"><path d="m50.9 7.2h2.75l6.54 16.12h-3.74l-1.3-3.41h-5.84l-1.25 3.41h-3.66zm1.28 4.69-1.83 5.01h3.68z"/><path d="m62.82 7.2h3.3v12.84h6.15v3.28h-9.45z"/><path d="m75.1 7.2h5.01l3.46 10.52 3.48-10.52h4.99v16.12h-3.26v-12.36l-3.95 12.36h-2.58l-3.8-12.36v12.36h-3.35z"/><path d="m96.26 7.2h10.22v3.29h-6.9v2.97h6.51v3.29h-6.51v3.28h7.27v3.28h-10.6v-16.11z"/><path d="m115.13 14.76-4.97-7.71h4.16l3.21 5.65 3.07-5.65h4.02l-4.82 7.63 5.43 8.49h-4.21l-3.67-6.48-3.55 6.49h-3.95l5.27-8.42z"/></g><path d="m90.98 35.09c-.96.56-2.04.85-3.15.84-2.44.06-4.47-1.87-4.53-4.31 0-.14 0-.29.01-.43-.14-2.48 1.76-4.61 4.24-4.74h.29c1.13-.06 2.22.38 3 1.19l-.75.84c-.59-.65-1.43-1.01-2.3-1-2.07.18-3.6 2-3.43 4.07.16 1.86 1.66 3.33 3.53 3.43.73 0 1.45-.19 2.09-.53v-2.79h-1.94v-1h2.94v4.44z" fill="#a7a9ac"/><path d="m93.27 26.72h2.15c1.64 0 3.36.26 3.36 2.49.05 1.23-.88 2.28-2.11 2.38l2.39 4.13h-1.22l-2.28-4h-1.29v4h-1zm1 4h.89c1.11 0 2.55 0 2.55-1.49 0-1.3-1.06-1.49-2-1.49h-1.4z" fill="#a7a9ac"/><path d="m100.22 31.19c.16-2.45 2.28-4.31 4.73-4.15s4.31 2.28 4.15 4.73-2.28 4.31-4.73 4.15c-2.34-.15-4.15-2.09-4.16-4.43 0-.1 0-.2 0-.3zm7.74 0c-.22-1.84-1.88-3.16-3.73-2.95-1.84.22-3.16 1.88-2.95 3.73.2 1.71 1.66 2.99 3.38 2.97 1.91-.09 3.39-1.72 3.3-3.63 0-.04 0-.08 0-.12z" fill="#a7a9ac"/><path d="m117.49 32.26c0 2-.86 3.67-3.17 3.67s-3.19-1.71-3.19-3.67v-5.54h1v5.44c0 1.45.49 2.83 2.18 2.83s2.17-1.38 2.17-2.83v-5.44h1v5.54z" fill="#a7a9ac"/><path d="m119.91 26.72h2.5c1.55 0 2.95.59 2.95 2.48.01 1.35-1.07 2.46-2.42 2.48-.13 0-.25 0-.38-.03h-1.65v4h-1zm1 4h1.65c1 0 1.69-.48 1.69-1.49s-.69-1.51-1.69-1.51h-1.65z" fill="#a7a9ac"/><path d="m9.76 25.47c-1.25 3.74-3 8.93-3 8.93h-4v1.53h9.9v-1.53h-3.57l3-9.32zm18.1 1.32 2.4 7.61h3.56v1.53h-12.8v-1.53h3.84l-3.54-11-.21-.7c1.63-.64 3.22-1.36 4.77-2.16.37 1.16 1.09 3.39 1.83 5.76z" fill="url(#a)"/><path d="m33.34 8.95c-3.58-4.99-9.11-8.24-15.21-8.95l-4.26 12.83c-3.35 1.19-6.55 2.77-9.54 4.71-2.5 1.72-4.3 3.59-4.33 5.06 0 .2.03.39.09.58.51 1.39 2.76 1.7 5.56 1.72 1.45-.02 2.89-.14 4.32-.37l1.52-.26c2.53-.49 5.03-1.16 7.47-2 .72-.25 1.43-.51 2.13-.77 1.31-.44 4.56-2 4.56-2 1.45-.69 2.85-1.48 4.19-2.35.38-.25.75-.5 1.09-.76.35 1.17.7 2.7.93 3.93l.36-.37c-.24-1.29-.55-2.57-.94-3.83 1.29-.83 2.3-2.03 2.9-3.44.67 1.57 1.14 3.21 1.4 4.89 0 2.22-2.7 5.21-7.08 7.93l.1.53c3.68-2.25 6.27-4.68 7.16-6.91 0 .52.06 1.06.06 1.59 0 2.42-.43 4.82-1.26 7.09l.29.55.16-.38c1.01-2.53 1.6-5.2 1.75-7.92.07-3.97-1.13-7.86-3.42-11.1zm-4.37-3.43c1.01.91 1.93 1.91 2.74 3-1.29 0-2.58.08-3.87.22-.63-1.02-1.32-2-2.06-2.94l-.37-.45c-.49-.61-1.03-1.19-1.6-1.73 1.38.25 2.67.56 3.91.9.24.19.49.36.72.55zm-7.46.95-.14-.46-.92-2.9c.88.1 1.73.22 2.56.36.64.62 1.26 1.26 1.85 1.94l.37.43c.76.94 1.47 1.93 2.12 2.95-1.54.19-3.16.46-4.85.83zm5.18-2.77c-1.09-.27-2.24-.51-3.43-.72-.73-.67-1.5-1.31-2.29-1.9 2.03.57 3.96 1.45 5.72 2.62zm-6.92-3 .09.06c.9.63 1.75 1.32 2.57 2.05-.69-.1-1.39-.2-2.1-.28l-.57-1.83h.01zm-2.69 8.66 3 9.35-.9.31c-1.9.67-3.84 1.23-5.8 1.68.5-1.59 3.01-9.17 3.7-11.27zm12.51 7.39c-2.68 1.77-6.51 3.23-10.83 4.68-4.09 1.46-8.38 2.25-12.72 2.34-2.77 0-4.48-.29-4.78-1.28-.04-.14-.07-.28-.07-.42 0-1.12.94-2.53 3.41-4.21 2.84-1.85 5.89-3.36 9.08-4.51-.23.67-.45 1.32-.66 2-1.98.79-3.9 1.74-5.72 2.85-1.57 1-2.54 1.86-2.58 2.71-.02.09-.02.18 0 .27.29.71 1.21.88 2.55.9 2.63 0 7.08-.92 12-2.57 1.88-.63 3.64-1.31 5.21-2l.49-.17-1.56-4.93-.14-.46-.58-1.84c1.65-.36 3.32-.64 5-.84.22.36.46.7.66 1.07l.23.43c.89 1.65 1.63 3.39 2.2 5.18-.37.32-.77.61-1.19.87zm-16.77-.84c-.84 2.55-1.51 4.57-1.74 5.24-1.24.24-2.5.38-3.77.41-1.31 0-2.05-.29-2.09-.57 0-.04 0-.08 0-.12 0-.41.81-1.34 2.36-2.3 1.68-1 3.43-1.86 5.24-2.59zm18.33-.21c-.56-1.73-1.27-3.4-2.12-5l-.23-.44c-.19-.34-.41-.66-.61-1 1.18-.12 2.37-.19 3.56-.19h.4l.12.16.37.57c.41.64.79 1.31 1.12 2 .03.11.05.22.05.34.02.91-.94 2.2-2.66 3.56z" fill="#3b6e8f"/></g></svg>