<svg viewBox="0 0 438.71 196.08" xmlns="http://www.w3.org/2000/svg"><path d="m425.81 63.28h2.6c1.8 0 3.8-.2 3.8-2.3 0-1.9-1.6-2.4-3-2.4h-3.3v4.7zm-1-5.6h4.5c2.7 0 3.9 1.1 3.9 3.3 0 2-1.4 2.9-3.1 3.2l3.6 5.5h-1.1l-3.6-5.6h-3.1v5.6h-1v-12zm-5.5 6c0 5.2 4 9.3 9.2 9.3s9.1-4.2 9.1-9.3-3.9-9.3-9.1-9.3-9.2 4.1-9.2 9.3m19.4 0c0 5.6-4.6 10.2-10.2 10.2s-10.2-4.6-10.2-10.2 4.6-10.2 10.2-10.2 10.2 4.6 10.2 10.2"/><path d="m125.51 123.78s-.5.4-1.4.8c-1.5.6-4.9 1.1-7 1.7-1.6.4-3.5.9-5.5 1.7-5.3 2.2-8 5.9-9.4 12.6-.8 3.9-.3 7.2 1.4 9.3 1.3 1.6 3.2 2.4 5.5 2.4 9.4 0 12.4-9 13.8-15.9zm.3-44.1c12.9 0 20.8 2.3 24.8 7.1 2.1 2.6 3.2 6.2 3.3 10.6 0 2.5-.3 5.2-.9 8.3l-8.9 42.8c-1.2 5.9-2 10.5-1.9 14.2 0 1.2.1 2.3.3 3.3h-24.2v-.8c0-1.8.1-3.6.3-5.6l.3-3.5h-1.3l-.5.8c-4.4 7-14.2 11.3-22.7 11.3-7 0-12-1.8-14.9-5.3-3.2-3.9-4-10.1-2.3-18.3 3.3-16 10.6-22.7 28.8-26.8l12.1-2.8c7.2-1.6 10.6-4.7 11.9-10.9.7-3.4.3-6-1.1-7.8-1.3-1.6-3.5-2.5-6.4-2.5-6.5 0-9.9 3.3-12.1 11.7h-21.6c5.4-22.3 25.4-25.8 37-25.8"/><path d="m235.81 122.88c-2.6 12.5-2.4 17.3.1 20.4 1.2 1.5 3.1 2.3 5.7 2.3 7.2 0 10.7-4.3 14.3-21.9 2.6-12.6 2.9-20.5.4-23.6-1.2-1.5-3-2.2-5.5-2.2-7.4-.1-11.3 7.5-15 25m-23.4 35.7c-5.1-6.3-6.1-16.2-2.6-33.8 7.7-38.3 22.3-45.1 34.9-45.1 6 0 15.1 2.2 16.2 12.8l.2 1.6h1.8s2.1-9.9 2.5-12.2h23.6c-.9 4.1-17.5 84.1-17.5 84.1-4.2 20.1-17.1 30.1-40.7 30.1-21.9 0-25.2-12.9-25.7-16.9-.2-1.5.3-6 .3-6h22.9c0 2 .2 5.1.9 5.9.9 1.2 1.7 2.6 5.4 2.6 4.8 0 9.5-1.4 11.7-12.3l3.9-18.9h-1.9l-.5.9c-4.7 8.1-13.4 12.2-22.7 12.2-5.7.1-9.8-1.6-12.7-5"/><path d="m326.71 81.98c-.8 4.1-16.8 81.4-17.4 84.1h-25.5c.8-4.1 16.9-81.4 17.4-84.1z"/><path d="m373.51 53.98c-.9 4.1-22.6 109.4-23.2 112.2h-25.5c.9-4.1 22.7-109.4 23.2-112.2z"/><path d="m414.41 53.98c-.9 4.1-22.7 109.4-23.2 112.2h-25.5c.9-4.1 22.7-109.4 23.2-112.2z"/><path d="m216.11 79.68c-8.3 0-18.3 5.8-23.2 15.2l-.5 1h-1.9s2.2-10.8 2.9-13.9h-26.5c.2 1 .3 2.1.3 3.3 0 2.7-.4 5.8-1 9.6-4.7 22.8-14.1 68.1-14.7 71.2h25.5c1.6-7.9 9.6-46.4 9.6-46.4 2.4-11.6 9.2-17 21.4-17 2.1 0 3.9.1 5.8.4.6-2.7 4.1-19.9 4.8-23.4z"/><path d="m5.01 161.68c-6.4-7.8-6.6-22.2-1-49.6 9.1-43.9 22.2-58.7 52-58.7 11.9 0 20.3 2.8 24.8 8.4 3 3.6 4.4 8.6 4.5 14.8 0 3.4-.4 7.1-1.2 11.2 0 0-.8 3.7-1.2 5.8h-25.1s1.9-12 1.9-14.6c0-3-.1-4.6-1.3-6.1-1.2-1.6-2.9-2.8-5.7-2.8-11.1 0-14.7 10.6-21.1 41.1-4.9 23.7-6.7 34.6-2.9 39.2 1.4 1.8 3.6 2.6 6.6 2.6 8.7 0 12.2-7.5 16.6-28.3h25.3c-.5 2.4-1.3 6.4-1.3 6.4-5.3 25.7-20.4 38.7-44.8 38.7-13.2.2-21.5-2.4-26.1-8.1"/><path d="m328.91 72.08c2-46.2-53.7-80.9-105.7-70.1-52 10.8-77.1 56.1-83.7 70h8.5c11.4-19.1 22.9-34 42.6-39.5 12.5-3.5 22.3-2.7 46.4 10.8 11.1 6.2 36.3 24.8 63.3 28.6 11.6 1.5 28.6.2 28.6.2" fill="#008c44"/></svg>