<svg viewBox="0 0 600 183.77" xmlns="http://www.w3.org/2000/svg"><path d="m206.7 79.58c0-15.9 14.4-21.8 30.5-21.8s30.3 5.9 30.3 21.8v79.9c0 16-14.4 21.79-30.3 21.79s-30.5-5.89-30.5-21.79zm35.1 3.1c0-3.3 0-7.9-4.6-7.9s-4.6 4.6-4.6 7.9v73c0 3.3 0 7.9 4.6 7.9s4.6-4.6 4.6-7.9zm35.5 96.32v-118.92h30.4c15.9 0 30.5 5.9 30.5 24.7v9.4a18.47 18.47 0 0 1 -17.4 19.5h-2.6c16.3.9 20 6.5 20 20.2v23.6a56.51 56.51 0 0 0 3.8 21.2h-26.3a28.63 28.63 0 0 1 -3.5-15.4v-27.28c0-7.4 0-13.3-9.1-13.3v56zm25.4-69.8h3.1c4.2 0 6-1.8 6-7.5v-17.62c0-5.7-1.8-7.5-6-7.5h-3.1zm44.3-29.62c0-15.9 14.4-21.8 30.5-21.8s30.3 5.9 30.3 21.8v79.9c0 16-14.4 21.79-30.3 21.79s-30.5-5.89-30.5-21.79zm35.3 3.1c0-3.3 0-7.9-4.6-7.9s-4.6 4.6-4.6 7.9v73c0 3.3 0 7.9 4.6 7.9s4.6-4.6 4.6-7.9zm35 96.3v-118.9h34.2l11.7 75.69.1 2.8h.4v-78.57h20.6v118.9h-31.9l-14.1-90.8-.1-3.3h-.2v94.11h-20.7zm121.9-99.4c0-15.9 14.4-21.8 30.5-21.8s30.3 5.9 30.3 21.8v79.9c0 16-14.4 21.79-30.3 21.79s-30.5-5.89-30.5-21.79zm35 3.1c0-3.3 0-7.9-4.6-7.9s-4.6 4.6-4.6 7.9v73c0 3.3 0 7.9 4.6 7.9s4.6-4.6 4.6-7.9zm-39.3-22.6h-45.6v17.92h9.9v101h25.9v-101h9.9c-.1 0-.1-17.92-.1-17.92zm-318.1-29.08h-64.7v19.1h19.1v128.9h26.4v-128.92h19.2zm-66.7 152.27v-.7a118.36 118.36 0 0 0 -54.1-9.5h-96v6.5h129.5a81.13 81.13 0 0 1 20.6 4.2m-38.2-179.77-3.8-3.62a4.51 4.51 0 0 0 -3.6 0l-5.8 3.19v28.2a45.3 45.3 0 0 1 -18.4 16.9 4.39 4.39 0 0 0 -2.6 4.4v105.2a90.84 90.84 0 0 0 -10 .9v-89c0-3.29-1.5-4.29-4.6-5.1a186 186 0 0 1 -33.5-11.3v-18.29l-4.9-2.48a6.07 6.07 0 0 0 -4.2 0 44.75 44.75 0 0 0 -6 3.5 28.48 28.48 0 0 0 -14.4 23.68v108.82h9.7v-108.82a18.43 18.43 0 0 1 9.2-16.3h.7v125.12h9.6v-104.82c7.6 2.8 12.3 4.8 20.6 7.4l7.9 2.1v87.1a115.88 115.88 0 0 0 -27 8.4h18.5a114.56 114.56 0 0 1 46.5-9.9l-8.9-.7v-102.7h1a47.85 47.85 0 0 0 10.7-8.8v121.8h10v-153.7a47.09 47.09 0 0 1 9.5 27.5v127.32a36.44 36.44 0 0 1 9.7 1.6v-129.12a57.56 57.56 0 0 0 -15.9-38.48" fill="#165788"/></svg>