<svg viewBox="0 0 642.3 154.1" xmlns="http://www.w3.org/2000/svg"><path d="m174.7 14.4c-25.3-9.1-56.2-14.4-89.7-14.4-4.5 0-9 .1-13.4.3 42.4 68.4 48.5 112.2 53.9 151.1a238.15 238.15 0 0 0 49.2-11.7z" fill="#ffc116"/><g fill="#3e82ba"><path d="m0 21.7v42.6c40.8 9.6 56.6 48.4 72.7 89.5q6.15.3 12.3.3c2 0 4-.1 6-.1-7.4-39.2-35.9-89.3-91-132.3z"/><path d="m24.2 6.3c-4.1.9-8.1 1.8-12.1 2.9 55.1 49.7 74.6 103.8 87.8 144.6 2.2-.1 4.5-.2 6.7-.4-16.3-70.2-63.4-130.2-82.4-147.1z"/><path d="m0 71.2v70.1c20.2 6.7 43.8 11 69.2 12.3-24.5-60.8-42.8-74.7-69.2-82.4z"/></g><path d="m40.8 3.2c44.8 55.2 61.3 114 70 149.8l6.4-.6c-14-83.72-43.27-126.06-62-150.94-.04 0-9.2.94-14.4 1.74z" fill="#ffc116"/><path d="m347.75 112.14h-16.65"/><path d="m255.51 119.39 8.28-48.56h15.16l-7.48 46.61s-1.29 7.61-2.27 12c-1.17 5.26-5.75 9.1-10.31 9h-12.18l-21.59-47.76-8.39 49.19h-15.23s8.27-52.27 9.4-59.05a13.47 13.47 0 0 1 3.43-7 11.92 11.92 0 0 1 7.6-3.15h10.71c1.07 0 1.33.4 1.78 1.41 2.58 5.86 21.09 47.31 21.09 47.31z"/><path d="m423.58 111.45c-1.67-.4-5.15-.44-7.88-4.74a23.52 23.52 0 0 1 -3.49-8.55l28.38.1-5.78 36.31c-9 4.54-28.73 8.72-40.87 5.44-7.41-2-12.05-4.75-16.17-10.13a26.92 26.92 0 0 1 -5.49-14.79 43.1 43.1 0 0 1 6.23-26 41.71 41.71 0 0 1 27.61-19.68 61.33 61.33 0 0 1 22.84.27 29.23 29.23 0 0 1 13.76 7.6c-2 2.24-6.64 6.13-9.12 6.94a12.48 12.48 0 0 1 -8.91.21 30.89 30.89 0 0 0 -11.34-1.79 24.17 24.17 0 0 0 -19.35 9.67 26.78 26.78 0 0 0 -5.57 19.82c.73 6.75 5 12.86 13.8 14.47 6.93 1.45 15.94-1 19.52-2.77z"/><path d="m371.91 139.65h-17.17c-.14-.51-3.58-14.56-3.58-14.56h-27.09l-8.07 14.67h-16.94s38.58-64.38 39.11-65.07a9.29 9.29 0 0 1 6.49-3.85c2.39-.25 8.18-.68 8.45-.41zm-24.16-27.51-4.84-21.14-11.81 21.14z"/><path d="m306.48 60.24a58.92 58.92 0 0 1 -8.68-.37 6.3 6.3 0 0 1 -5.25-4.46c-1.37-4.17-4.61-13.6-4.61-13.6h-5.21l-2.91 18.33h-10l5.88-37.46c1.2-8.46 4.47-7.86 10.6-8.12h8.61c5.55 0 15.29 1 15.27 10.07.17 5-1.16 9.32-4.95 12.8a14.88 14.88 0 0 1 -7.23 3.38zm-22.26-26.84h7.39c6.64-.12 7.91-3.27 8-5.55.17-3.61-1.55-4.79-7.12-4.79h-6.56z"/><path d="m317.35 50.85a7.2 7.2 0 0 1 4.89-.37c1.3.42 2.3.78 3.63 1.13a11.09 11.09 0 0 0 6.74-.54 6.89 6.89 0 0 0 2.38-1.6c1.46-1.27 2-4.42-.19-6s-9.71-3.59-12.8-5.47a8.32 8.32 0 0 1 -4.37-8.16 16.25 16.25 0 0 1 7.28-13 24.2 24.2 0 0 1 20-2.75 15.55 15.55 0 0 1 6 3.7c-1.81 2.35-4 4.75-8.16 5.42a9.19 9.19 0 0 1 -4.13-.7 11 11 0 0 0 -7.2.84 7.31 7.31 0 0 0 -2.37 2 3.72 3.72 0 0 0 1.12 5.45c1.37 1.06 7.23 2.85 9.31 3.6 6.62 2.62 8.11 6.85 6.41 13.72a16.84 16.84 0 0 1 -9.65 10.9c-5.8 2.62-13.15 2.49-17.22 1.06s-6.89-4-7.2-4.8a21.11 21.11 0 0 1 5.53-4.43z"/><path d="m225.23 42.25-2.95 17.61h-9.94s1.93-12.86 2.86-18.49c1-6.29 2.18-12.56 3.08-18.87a9.22 9.22 0 0 1 7.52-7.72 22.48 22.48 0 0 1 4.09-.39c6.38 0 20.53.11 20.53.11l-1.49 9-20.67.11-1.54 9.23 19.13.07-1.5 9.17z"/><path d="m362.62 59.86c1.94-12.26 5.72-36.77 5.72-36.77l-14.83.08c1.09-7.06 2.53-8.89 8.79-8.8h31.1l-1.53 8.63h-13.25c-2 12.33-4 24.65-6 36.86z"/><path d="m262 59.86h-10.07c2.49-15.2 5-30.24 7.46-45.4h10.06z"/><path d="m623.5 70.43c-.27-.27-6 .16-8.45.41a9.27 9.27 0 0 0 -6.48 3.85c-.47.6-29.58 49.16-37.27 62l-11.55-26.42s6.69-1 10.94-5.14c5.76-5.28 7.78-11.78 7.52-19.42 0-13.71-14.75-15.34-23.17-15.28l-13.04-.08c-9.3.4-14.27-.51-16.09 12.32l-8.91 56.83 15.23.05 4.41-27.81h7.9s4.92 14.31 7 20.64c1.29 3.93 4 6 8 6.76a65.83 65.83 0 0 0 10 .59h16.94l8.07-14.69h27.09s3.44 14 3.58 14.56h17.08zm-73.42 28.57h-11.21l2.61-15.72h9.95c8.45 0 11.05 1.79 10.8 7.27-.16 3.45-2.08 8.25-12.15 8.45zm51.41 13.15 11.82-21.15 4.83 21.19z"/><path d="m510.61 139.65h-17.17c-.14-.51-3.57-14.56-3.57-14.56h-27.1l-8.07 14.69h-16.94s38.59-64.38 39.12-65.07a9.29 9.29 0 0 1 6.49-3.85c2.39-.25 8.18-.68 8.45-.41zm-24.16-27.51-4.83-21.14-11.82 21.14z"/><path d="m294.24 139.76h-15.24c3.8-23.08 7.55-45.93 11.34-69h15.28c-3.83 23.05-7.62 45.9-11.38 69z"/></svg>