<svg viewBox="0 0 490.47 500.71" xmlns="http://www.w3.org/2000/svg"><path d="m427.9 228.9c10.9.1 22-1.4 31-4.5 13.3-4.6 22.6-12.6 28-23.5 7.7-15.7 1.2-31.4-3.3-39.5-8.9-15.7-31.5-19.8-47.5-19.5-12.4.3-15.4 1.4-24.1 3.2-11.9 2.6-23.3 5.1-32.9 7.1-8.4 1.8-16.9 3.4-25.1 3.4-10.2-.1-15.5-1.6-19.7-3.4-10-4.3-13.2-12.8-10.3-21 3.9-11 16.5-14.1 22.9-14.1 7.4-.1 15.4 2.7 22.6 6.1 5.7 2.7 14 6.5 19.3 8.6 12.5 5 18 5.5 27.6 5.8 18.3.6 45.9-13.3 53.8-25.2-4.2 2.2-8.6 2.7-13 2.9 11.1-7.2 22.8-23.6 20.8-45.6-15 19.8-37.7 26-56.5 26.7-12.2.5-18.4-.8-36.2-4.1-9-1.7-18-3.1-26.8-3.1-8.6 0-11.6.5-19.5 2.5-13 3.2-25.4 11.2-32.5 19.2a44.93 44.93 0 0 0 -10.6 28.5c.1 19.5 12.6 31.3 33 37.3-3.9 3.2-7 15.1-3.8 18.9a16.58 16.58 0 0 1 13.3-6 24.78 24.78 0 0 0 12.4-3s-.1 6.4 2.8 8.4c2.5-4.3 5.4-5.6 12.9-7.7 4-1.1 8-3 10.4-5.6-1 4.2-.5 10 1.7 11.4a14.49 14.49 0 0 1 9.8-6.9c5.2-1 8.5-1.7 13.4-5.4-.5 3 .2 9.4 2.2 12a19.47 19.47 0 0 1 5.8-6.4c4.1-2.9 8.4-3.9 15.9-6.7 8.6-3.2 13.8-7.8 16.2-12 13.6-.3 22.9 6 22.9 18.1a14.75 14.75 0 0 1 -3.9 10.3c-4.7 4.7-12.6 8.2-28.4 8.6-11 .3-30.1-.8-39.6-2.6-7.1-1.3-14.9-2.4-30.1-2.4a79.71 79.71 0 0 0 -19 2.3c-6.9 1.6-12.2 2.5-16.7 3.3-12.2 2.1-24.9.4-31.4-3.9 4.9-5.4 6.3-13.5 3.9-17.4-5.4 5.4-17.4 4.5-22.8-3.9 11-2.9 13.5-11.1 12-20.5-3.3 4.3-11.5 3-17-9-2.3-5-4.2-8.3-7.3-11.1a8.92 8.92 0 0 0 -5.5-2.6 12.16 12.16 0 0 1 0-2c5.4-1.5 9.4-5.1 12.2-10.1a30.23 30.23 0 0 0 3.3-14.6c-4.6-1.6-8.9-2-12.6-.6 1.8-6.6-1.3-9.5-3.3-11.2a47.57 47.57 0 0 0 6-5.2l-2.3-4.1c2.6-.8 3.2-3.9 1-5.3l1.2-3.5a5.7 5.7 0 0 0 2.2.4 5.08 5.08 0 0 0 4.9-3.4 5.55 5.55 0 0 0 -3.7-7h-.1c.2-.5.3-1.1.5-1.6a5.45 5.45 0 0 0 3.1 1 5.17 5.17 0 0 0 3.5-9 5.34 5.34 0 0 0 4-5.1 5.45 5.45 0 0 0 -2.1-4.3 5.34 5.34 0 0 0 3-4.8 5.21 5.21 0 0 0 -3.1-4.8 5.46 5.46 0 0 0 1.1-3.3 5.55 5.55 0 0 0 -5.5-5.5c-.4 0-.9.1-1.3.1a5.9 5.9 0 0 0 .2-1.4 5.7 5.7 0 0 0 -5.7-5.7 5.38 5.38 0 0 0 -4.2 1.9 5.67 5.67 0 0 0 -10.3-.2 5.38 5.38 0 0 0 -3.1-.9 5.48 5.48 0 0 0 -5.1 3.4 6.46 6.46 0 0 0 -1.9-.4 5.32 5.32 0 0 0 -4.8 3.1 5.37 5.37 0 0 0 -2.1-.5 5 5 0 0 0 -1.2.2c.1-.4.1-.8.2-1.1a12.29 12.29 0 0 0 -3.5-9.8l6.6 2.5v-21l-6.8 3.7 3.5-6.8h-24l3.5 6.8-6.8-3.7v21.3l6.6-2.5a12.35 12.35 0 0 0 -3.6 8.6 10.87 10.87 0 0 0 .1 1.8c-.3 0-.6-.1-.8-.1a4.65 4.65 0 0 0 -2.1.5 5.32 5.32 0 0 0 -4.8-3.1 4.06 4.06 0 0 0 -1.9.4 5.66 5.66 0 0 0 -5.1-3.3 6.81 6.81 0 0 0 -2.8.7 5.76 5.76 0 0 0 -5-2.9 5.68 5.68 0 0 0 -5.3 3.6 5.59 5.59 0 0 0 -4.1-1.8 5.7 5.7 0 0 0 -5.7 5.7 6.93 6.93 0 0 0 .3 2 5.42 5.42 0 0 0 -2.5-.6 5.55 5.55 0 0 0 -5.5 5.5 5.65 5.65 0 0 0 2.1 4.4 5.31 5.31 0 0 0 -5.2 5.3 5.41 5.41 0 0 0 3 4.8 5.5 5.5 0 0 0 -2.4 4.4 5.34 5.34 0 0 0 5.3 5.3h.2a5.07 5.07 0 0 0 -1.7 3.9 5.16 5.16 0 0 0 5.2 5.2 5 5 0 0 0 3.3-1.2c0 .1 0 .1.1.2a7.6 7.6 0 0 0 .4 1.1h-.1a5.9 5.9 0 0 0 -3.3 2.7 5 5 0 0 0 -.4 4.3 4.83 4.83 0 0 0 4.7 3.4 5.7 5.7 0 0 0 2.2-.4c.2.7.5 1.5.8 2.7-2.2 1.4-.7 3.4 1.4 3.7-.9 1.9-1.9 3.6-2.7 5.1a51.31 51.31 0 0 1 5.5 5.2c-3.1 3.4-3.5 7.8-1.5 10.6-2.6-.4-8.9-1.4-11.9.1a46.23 46.23 0 0 0 1.7 13.3c1.9 6.4 6.1 10.6 13.2 12.5a20.83 20.83 0 0 0 0 2.5c-5.9.4-9.9 5.4-11.8 9.7a36.07 36.07 0 0 1 -6.7 11c-2 2.2-8.2 5.1-11.6 2.5a15.61 15.61 0 0 0 2.2 12.8 19.36 19.36 0 0 0 10 7.3c-10.4 12.6-22.8 4.9-23.8 1.1-3.8 14.6 5.5 23.9 12.2 25-1.8 1.8-3.9 4.6-4.3 6.4-14.2 4.1-27.8-4.6-35.1-12a81.33 81.33 0 0 1 -8.7-10 35.67 35.67 0 0 0 0-8c-.3-4.6-1.8-6.7-3.4-8a28.15 28.15 0 0 0 -10.3-5.3c0-2.5.1-4.3 0-5.5l34.8 6.3-8.3-21.2 37.9-29.9-9.9-7.4 7.5-29.6-24.7 7.3-8.8-15.6s-11.4 13.7-12.4 15c-.5.6-1.6 0-1.4-.8.3-1.1 10.3-35.4 10.3-35.4l-21.1 9.9-17.4-28.8-14.8 28.5-20.4-9.2s7.6 32.4 8 34.5c.3 1.4-1.2 2.3-1.9 1.3-1.2-1.7-10.9-14.7-10.9-14.7l-7.8 14.5-25.5-6.4 6.4 28.8-11.5 8.1 39.9 29.7-7.6 21.7 33.3-6.4v2.7a39 39 0 0 0 -10.3 5.3 5.59 5.59 0 0 0 -2.5 3.2 15.89 15.89 0 0 0 1.5 11.4c-1.8 2.4-4.1 6.8-4.3 9.8a12.22 12.22 0 0 0 1.2 7.3 46.55 46.55 0 0 0 3.3 4.8c-1.4 7.9 1.5 14.8 10.9 21l.1.1c-1.2 12.2-6.2 26.3-21.3 29.1 9.5 7.7 17.5 18.3 23.4 34.7 10.5-12.7 19-31.4 21.3-48.3a45.87 45.87 0 0 1 3.6 6.2c2.3 4.8 4 9.8 1.7 13.5 3.7-.4 7.9-5.1 9.1-7.1a66.34 66.34 0 0 0 4.2 9.5c2 3.4 4.2 6.4 4.1 10.4a9.34 9.34 0 0 1 -3.1 6.6c7.1 2.6 11.5-.9 13.2-3.3.6-.9 1.1-.4 1.1.2-.1 1.2.8 3.4 2.7 7a58.79 58.79 0 0 0 3.9 6.4 13.07 13.07 0 0 1 2.3 7.6 8.53 8.53 0 0 1 -2.9 6.7c17.8.7 23.9-14.2 22.6-24.3 3.2 3.3 7.4 6.2 10.7 7-2.2 9.5-4.3 35-4.6 59.2-.2 20.7-1.8 30.9-4.3 38.8a19.35 19.35 0 0 1 -13.6 13.4 22 22 0 0 0 -8.8 4.8c-4.3 3.7-6.6 8.4-6.6 12.5a13.16 13.16 0 0 0 3 8.1c-1.8 3.1-1.6 8 .1 12.1-4.9 3.8-11.4 12.6-11.4 28.5 0 20.9 17.9 30.7 27.9 30.6 10.9-.1 18.7-4.9 21.8-8.8 9 5.2 21.6 2.7 27.8-4.9 4.3 3.3 18.7 5.1 24.5-4.9 6.7 4.1 19.6 5.5 25.8-2.2 7.3 5.8 20.2 6 28.1-.2 5.6 4.5 16.8 6.3 25.8-.1 9.4 7.5 20.1 7.7 29.4 1.2 4.9 5.4 15.6 7.9 25.9 2.2 8.2 7.8 20.1 7.8 27.3 3.2 5.7 6.4 19.7 11.9 29.5 6.8 2.9 4.1 9.2 7.4 18.7 7.7 12 .3 25.8-11.7 25.7-26.4s-5.8-25.5-17.3-33.5l.1-.1c6-6.2 4.2-14.6 2.6-17.8 3-1.3 5.7-3.7 5.8-7.8a15.23 15.23 0 0 0 6 1.1 14.18 14.18 0 0 0 5.6-1.2 41.18 41.18 0 0 0 6.6-6c.4-.5.3-1-.2-1.1a7.92 7.92 0 0 1 -4.4-3.4c-2.1-3.4-1.4-6.2-3.2-7.5 7.1 1 13.4-1.7 17.4-10.6-3.5 2-6.1.5-7.3-1.6-.9-1.6-1.4-2.7-1.6-6.2a7.9 7.9 0 0 0 -2.6-5.2c7.1 0 11.9-3.2 15-9.9 1.8-4 2.6-7.7 1.2-9.7-.4-.6-.9-.7-1.2-.2-1.6 2.6-4.5 2.2-5.8 1.7-2-.7-3.1-1.9-6.1-5.8-2.7-3.6-3.8-4.7-5.4-5.4-.6-.3-.7-.6-.2-.9a14.82 14.82 0 0 0 2.6-2.4c1.2-1.2 1.7-2.4 1-6a45.69 45.69 0 0 0 -5.9-14.7c-1.3-1.9-2.3-1.9-4.5-2.2-9.6-1-15.7-4.7-18.9-11.4-2.6-5.4-4.1-12.1-5.1-25.8-1.5-20.3-6.2-36.1-19.5-47.8 2.2-3.1 5.4-4 19.1-4m-168.1-184.1a18.13 18.13 0 0 0 -12.8 3.6c-.7-.4-1.2-.8-2.1-1.4 8-5.5 12.7-3.9 14.9-2.2m-79.6 1c.2-1.7 1.9-2.9 5.1-2.9a21.71 21.71 0 0 1 11.2 3.5l-3.3 2.1c-1.7-2.3-5.8-3.1-8.6-3.1a30 30 0 0 0 -4.4.4m132.1 316.9a219 219 0 0 1 -11.2 22.8c-3.3 6.1-7.5 8.4-11.5 8.6-12.4.5-16.1 11.1-13.8 18.6-1.6 2.5-2.4 8.8-2.5 11.6-4.2.1-9 1.6-11.2 5.4-3.8-3.8-19.6-8.2-27.2 1.1-4.8-3-16.6-5.9-26.3 1.9a18.67 18.67 0 0 0 -15.7-2.2v-.1c1.9-5.4 1.9-10.3-2.9-14.1 2.7-.9 4.5-2.3 5.2-4.4 8.7 6.2 19.5 4.4 25-3.1-6.2-2.9-8.9-7.2-8.6-13.4 6.7 3.4 12.7 2.6 16.2-2.9-3.7-.3-5.3-2.5-5.8-6.8a36.25 36.25 0 0 1 .5-8 9.31 9.31 0 0 0 0-4.4 13.9 13.9 0 0 0 17.9-6.6c-7.6.6-11.8-6.9-11.6-12 .1-1.7.1-3.4.1-4.2 9.5 6 16.2 1.4 19.7-3.6-3-.6-4.3-1.5-5.4-3.4-2.2-3.5-2.7-7.3-2.4-12.4.3-4.6-.6-6.6-1.3-8 16.1 0 28.2-7 40.7-15.3-.5 8.1 1.2 14.5 5 19 6.5 7.7 16.1 14.3 22.8 19.2a14.06 14.06 0 0 1 4.3 16.7m92.1 7.2c-1.3 5.2-2.5 10.2-3.9 14.9-1.2 3.9-3.6 13.3-7.7 16.6-1.7 1.4-3.1 2.4-7.5 3.1-6.1.9-9 4.1-9.9 9.5-.9 5 .2 13.3 1.1 17.3-5.3-2.7-17.7-4.8-25.6 1.8-4.8-6.2-11.5-8.3-21.2-5.9l.1-.1c5.9-5.7 4.4-11.2 2.6-13.6 2.6.3 3.8-.5 5.6-1.9 2.5 7.9 8.1 10.4 15.5 8.8-2.7-2.3-3.1-6.9-2-9.2s1.5-7.2 1.8-8.6c2.3 2.9 13.3 5.4 15.6-2.5-3 .1-4.8-2.4-4.3-7.5a57.44 57.44 0 0 0 -.1-6c7.1.9 13.6-1 16.4-8-3.5 1.3-5.7-.8-5.9-4.3a49.7 49.7 0 0 0 -.8-8.5c-.9-4.4-1.7-6.5-6.1-8.9 1.3-1.3 2.9-2.6 3.9-3.7 1.8-1.8 1.6-3.7 1.1-5.8-1-4.2-1.7-8.7-2.5-13.7-.4-2.3-1.7-2.9-3.9-3.2-8.2-1.2-12.9-10.3-9-15.6 6.1 8.6 15.8 14.6 26.1 20 5.7 2.9 10.9 5.1 15.7 7.4 5.5 2.6 7.7 3.7 7.5 7.7a102 102 0 0 1 -2.6 19.9"/><path d="m164.6 440.5c4.2 4 7.7 5.6 10.7 5.8a7.69 7.69 0 0 1 1.3-5c7 .8 16 6.9 22.8 12.4-3.1-6.3-8.7-11-14-14.5 4.3-3.7 16.1-4.7 22.9-.4 5 3.3 14.1 14.2 17.9 20.4 4.2 6.8 9.9 12.1 15.5 16.8-12.8 7.8-28-2.2-35.4-11.5-.6-.7-1.3-.3-1.1.3a35.38 35.38 0 0 0 9.6 13.5c-10.9 9.8-25.2-.1-31.8-12.6-5.7-10.8-18.1-19.2-25.2-23.5 2.6-.1 5.1-.5 6.8-1.7m102.7-6.8a91 91 0 0 1 20.6 25.2 59.58 59.58 0 0 0 9.2 12.4c7.5 7.3 17.1 10.9 26.5 4.8a59.43 59.43 0 0 1 -7.3-14.6.57.57 0 1 1 1.1-.3c5.8 12.6 20.1 24.7 32.7 16.7-4.2-4.6-7.9-10-13.4-19.8-5.7-10.1-12.4-20.7-19.7-26.6a18.19 18.19 0 0 0 -4.1-1.5 22.38 22.38 0 0 0 -.7 3.4c-.2 1.4-.9 1.3-2.1.7a25 25 0 0 1 -5.4-3.9c-.8.4-2.5.7-5.2.2 5.6 7.2 10.9 13.5 10.3 17.3a92.56 92.56 0 0 0 -14.5-13.6 4.48 4.48 0 0 0 -.1 1.2 10 10 0 0 1 -4.9-4.6c-.7-.5-1.5-.9-2.3-1.4a27.27 27.27 0 0 1 -7-1.1c-1.3 1.5-1.1 3.6-.9 5.8a15.07 15.07 0 0 1 -5.7-5.2c-1.4.4-3.6 1.3-7.1 4.9m115.8 4.3a441.32 441.32 0 0 1 23.1 39.1c9.3 17.9 24.6 19 32.9 12.7 4.7-3.6 9-8.6 9-17.9 0-5.1-2.4-14.7-6.8-19.9-2.8-3.4-7.1-6.1-12.3-8.3-2.9 1.1-8.7 1-12.2-1.8a10.46 10.46 0 0 1 -1.7 1.9c1.4 1.2 4.2 4.5 5.3 11.4s3.6 11.9 7.6 12.1a2.22 2.22 0 0 0 2.5-2.5 3.08 3.08 0 0 0 -2-2.5c-.5-.2.3-2.2 1.3-1.6 2.3 1.4 4.3 3.3 4.3 5.9 0 2.3-2.2 5.2-4.6 5.2a11.14 11.14 0 0 1 -8.3-5.3 37.11 37.11 0 0 1 -4.2-10 28.54 28.54 0 0 0 -5.7-10.9c-.3.6-.6 1.1-.8 1.6a8.68 8.68 0 0 1 -1.6-4 15.1 15.1 0 0 0 -2.6-1.8c-1.9.1-4.9.1-6.9-1.7a8 8 0 0 0 -.8 3.6c-2.2-.9-5.2-2.9-5.9-5.8-2.4.8-6.1 1.2-8.4-.9a8.7 8.7 0 0 0 -1.2 1.4" fill="#ef4123"/><path d="m433.3 470.8-.5-1a4.58 4.58 0 0 1 -3.3 1.9 11.14 11.14 0 0 1 -8.3-5.3 37.11 37.11 0 0 1 -4.2-10 28.54 28.54 0 0 0 -5.7-10.9 13 13 0 0 0 -.8 1.7 8.63 8.63 0 0 1 -1.6-4.1 15.1 15.1 0 0 0 -2.6-1.8 22.38 22.38 0 0 1 -2.6 0 62 62 0 0 1 7.6 9.2 74.38 74.38 0 0 1 5.2 9.6c2.9 6.6 5.5 13.1 11.4 13.2 3 .1 4.4-.9 5.4-2.5" fill="#f89728"/><path d="m198.9 453.4c-6.8-5.4-15.5-11.2-22.3-12a5.86 5.86 0 0 0 -1 2.1c5.1 1.5 8.7 2.3 12.8 4.9a96.56 96.56 0 0 1 9.4 6.7c1.2 1.1 3 .7 1.5-1.3a.78.78 0 0 1 -.4-.4" fill="#f89728"/><path d="m309.5 450.3c.6.7 1.7-.6 1.2-1.3-.1-.2-.5-.7-.9-1.3v.1a92.56 92.56 0 0 0 -14.5-13.6 4.48 4.48 0 0 0 -.1 1.2 10 10 0 0 1 -3.5-2.6 4.14 4.14 0 0 0 1 2.4c2.9 2.3 6 4.8 9.9 8.1a56.37 56.37 0 0 1 6.9 7" fill="#f89728"/><path d="m146 442.2a16.85 16.85 0 0 0 8.7 5.6 6.88 6.88 0 0 1 .3-2.5c4.3 2.6 8.4 4.9 12.5 8.8a60.27 60.27 0 0 1 11.1 14.7c2.9 5.4 6.4 10.3 11.4 14.1-5.4 7.2-20.3 7.5-29.5-4.6a32.64 32.64 0 0 0 -6.9-7c-4.4-3.3-8.1-1.1-9.9.8a4.72 4.72 0 0 0 -.4 5.1 10.36 10.36 0 0 0 5.6 4.2c1.3.4 1.7-1 .6-1.6-1.9-1-5.1-3.1-2.4-5.8 3.1-3 6.3 1.5 8.6 4.9s4.2 5.5 6.5 6.8c-1.5 3.1-4.4 6.8-15.9 7.2-14.4.5-25.3-12.2-25.3-27.5 0-9.4 5.5-15.6 10.1-19.1a10.64 10.64 0 0 0 4.4 2c.4-3 .9-5.4 2.6-7.8 2.2 1.6 4.8 2 7.9 1.7m68.8-4.8c6.8 5.1 9.7 8.4 15 17.1a85 85 0 0 0 8 11.3c7.8 9 19.1 17.3 29.7 7.9-2.4-2.8-7.1-8.9-8.1-13.5 2 1.2 8.9 9.8 16.8 14.6 6.1 3.7 12.7 5.1 18.2-.8-5.6-4.5-8.3-9.3-12.5-15.8a122 122 0 0 0 -15.9-18.3c-7.9-7.3-14.7-12.3-25.5-5.4 5.9 3.5 10.7 11.7 13.1 18.6-5.4-6.2-12.3-13.5-19.6-17.2-6.2-3.1-15.2-3.1-19.2 1.5m113.1-2.4a237 237 0 0 1 13.5 19.7c2.3 3.8 6.8 11.6 9.6 16.6 5.9 10.6 16.3 15.5 26.3 9.8a42.66 42.66 0 0 1 -5.3-15.2c4.9 9.6 17.6 27.4 34.3 21.2-5.8-6.9-9.2-14.1-13.3-22.6a156 156 0 0 0 -14.9-23.6c-4.9-6.3-12-8.9-21.3-3.8 4.2 5.2 8.2 12.2 8.5 17.6-10.5-17.9-24.9-26.1-37.4-19.7" fill="#fff"/><path d="m441.4 452a27.34 27.34 0 0 0 -7.3-5.9c-2.9 4.8-11.7 3.2-15.7 2.2a23.81 23.81 0 0 1 2 6.9c1.1 6.8 3.6 11.9 7.6 12.1a2.22 2.22 0 0 0 2.5-2.5 3.21 3.21 0 0 0 -2-2.5c-.5-.2.3-2.2 1.3-1.6 2.3 1.4 4.3 3.3 4.3 5.9a6.11 6.11 0 0 1 -2.6 4.6c.9 3.8-7.5 7.1-12.4 6.9a38.19 38.19 0 0 1 -14.3-3.6 24.37 24.37 0 0 1 1.4 2.8c9.3 17.9 24.6 19 32.9 12.7 4.7-3.6 9-8.6 9-17.9.1-5.3-2.4-14.9-6.7-20.1" fill="#ba272b"/><path d="m297 471.2c7.5 7.3 17.1 10.9 26.5 4.8a64.14 64.14 0 0 1 -6.6-12.6c-10.3 5.3-20.9 2.2-28.4-3.4a56.9 56.9 0 0 0 8.5 11.2" fill="#ba272b"/><path d="m350.1 477.9a68.84 68.84 0 0 1 -8.4-11.4c-6.8 3.5-18.2-.1-22.9-2.7 6.4 11.5 19.6 21.4 31.3 14.1" fill="#ba272b"/><path d="m206.7 468.3c-3.2 3.7-13.7 3.7-21.3 1.5 7.2 10.5 19.7 17.4 29.4 8.7a34.5 34.5 0 0 1 -8.1-10.2" fill="#ba272b"/><path d="m230.2 465c-5.2 5.1-16.8 4.1-21.7 2.3 8 8.5 21.5 16 33.2 8.9a80.82 80.82 0 0 1 -11.5-11.2" fill="#ba272b"/><path d="m406.2 487a71.82 71.82 0 0 1 -9.2-14.2c-7.3 2-16.9 1.5-23.4-3.9 5.9 9.8 17.7 23.7 32.6 18.1" fill="#afd2e3"/><path d="m372.4 468.2c-7.5 3.9-17.9 1.9-23.6-.9.8 1.4 1.6 2.8 2.2 3.9 5.9 10.6 16.3 15.5 26.3 9.8a40.75 40.75 0 0 1 -4.9-12.8" fill="#afd2e3"/><path d="m285.4 463.6c-8.8 5.1-17.2 2.6-22.1.4 3.2 3.2 7.8 7.8 12.8 10.8 6.1 3.7 12.7 5.1 18.3-.8a46.42 46.42 0 0 1 -9-10.4" fill="#afd2e3"/><path d="m267.5 473.7a48.12 48.12 0 0 1 -7.2-10.8c-6.8 4.3-13.6 4.7-23.3 2 .3.3.5.6.8.9 7.8 9 19.2 17.3 29.7 7.9" fill="#afd2e3"/><path d="m124.2 479.4c4.3 8.3 12.4 13.9 22 13.6 11.5-.4 14.3-4.1 15.9-7.2-2.3-1.3-4.2-3.4-6.5-6.8s-5.6-8-8.6-4.9c-2.7 2.7.6 4.7 2.4 5.8 1.1.6.7 2-.6 1.6a9.87 9.87 0 0 1 -5.6-4.2c-5 4.4-12.1 4.9-19 2.1" fill="#afd2e3"/><path d="m179.6 470.8c-6.9 5.4-13.7 5.1-23.3 2.9a31.41 31.41 0 0 1 4.1 4.7c9.2 12.1 24.1 11.9 29.5 4.6a40.37 40.37 0 0 1 -10.3-12.2" fill="#afd2e3"/><path d="m377.3 481a40.33 40.33 0 0 1 -3.1-6.5c-7.8 4.3-14.5 2.6-22-1.4 6 9.3 15.7 13.2 25.1 7.9" fill="#9ba2a8"/><path d="m243.6 471.7c7.1 6 15.7 9.3 23.8 2a34 34 0 0 1 -3.5-4.6c-4.1 3.3-10.2 5.4-20.3 2.6" fill="#9ba2a8"/><path d="m290 469.7c-5.8 4.1-12.3 3.6-19.2 1.2a47 47 0 0 0 5.3 3.8c6.1 3.6 12.7 5.1 18.3-.8a35.12 35.12 0 0 1 -4.4-4.2" fill="#9ba2a8"/><path d="m401.9 481c-7.1 3.1-16.5-.4-22.1-3.6 6.4 7.4 15.7 13.6 26.5 9.6a48.4 48.4 0 0 1 -4.4-6" fill="#9ba2a8"/><path d="m146 442.3c-3.2.2-5.7-.1-8-1.6a14.74 14.74 0 0 0 -2.4 6.3 9.69 9.69 0 0 0 3.4 2.7c1-.9 2.2-3 3.4-4a23.58 23.58 0 0 0 6.5-.7 18.89 18.89 0 0 1 -2.9-2.7" fill="#9ba2a8"/><path d="m146.2 493c11.5-.4 14.3-4.1 15.9-7.2-2.3-1.3-4.2-3.4-6.5-6.8s-5.6-8-8.6-4.9c-2.7 2.7.6 4.7 2.4 5.8.7.4.8 1.2.3 1.5.8 3.8-4.7 8.8-17.6 7.4a23 23 0 0 0 14.1 4.2" fill="#9ba2a8"/><path d="m154.7 447.3a12.55 12.55 0 0 0 3.6 2.4 15.3 15.3 0 0 1 1.3-1.6l-4.5-2.7a3.81 3.81 0 0 0 -.4 1.9" fill="#9ba2a8"/><path d="m184.5 477.8c-6.6 6.7-14.7 5.7-20.9 4.1 9.2 8.5 21.5 7.6 26.4 1.1a34.11 34.11 0 0 1 -5.5-5.2" fill="#9ba2a8"/><path d="m311.7 434.4a11.33 11.33 0 0 1 2.7 2.2c.7.7 1.5.4 1.7-.7.1-.8 1.1-2 2.7-2.9-.6-.5-1.2-1.1-1.8-1.5a18.19 18.19 0 0 0 -4.1-1.5 22.38 22.38 0 0 0 -.7 3.4c-.1.5-.2.9-.5 1" fill="#8d364a"/><path d="m325.8 473c6.9 6.6 16 10.2 24.3 4.9-1.3-1.4-2.5-2.9-3.8-4.5-5.9 2.9-15.3 1-20.5-.4" fill="#8d364a"/><path d="m295.4 434.1a2 2 0 0 0 -.1.8 11.73 11.73 0 0 0 1.1.5v-.5a8.74 8.74 0 0 1 -1-.8" fill="#8d364a"/><path d="m430.1 487.3a33.32 33.32 0 0 1 -20.9-5.3c9.3 13.2 22.5 13.5 29.9 7.8a21.08 21.08 0 0 0 9-16.6c-2.1 4.9-8.1 13.5-18 14.1" fill="#8d364a"/><path d="m420.9 457.6c1.3 5.6 3.6 9.4 7.1 9.6a2.22 2.22 0 0 0 2.5-2.5 3.08 3.08 0 0 0 -2-2.5c-.5-.2.3-2.2 1.3-1.6a2.09 2.09 0 0 1 .6.4c-2.2-3-5.5-3.5-9.5-3.4" fill="#8d364a"/><path d="m386.9 441.1a1.28 1.28 0 0 1 1.4-.2 5.53 5.53 0 0 0 2.5.7 20.72 20.72 0 0 0 4.3-.4 6.91 6.91 0 0 1 -2.5-3.8c-2.4.8-6.1 1.2-8.4-.9-.2.4-.7 1-1 1.5.9 1.4 1.8 2.8 2.7 4.1z" fill="#8d364a"/><path d="m409.2 444.9a5.93 5.93 0 0 1 -.4-1.7 15.1 15.1 0 0 0 -2.6-1.8c-1.9.1-4.9.1-6.9-1.7a8.78 8.78 0 0 0 -.8 3.1 15.64 15.64 0 0 0 1.9 3c.3.4.7.5 1.3-.1 2.1-1.8 3-2.1 6-1.1.6.1 1 .2 1.5.3" fill="#8d364a"/><path d="m310.1 434.1a25 25 0 0 1 -5.4-3.9c-.8.4-2.5.7-5.2.2 1.2 1.6 2.5 3.2 3.6 4.6 2.5-.2 6.1-.5 7.7-.7a2.54 2.54 0 0 1 -.7-.2" fill="#8d364a"/><path d="m162.5 445.3c2-.9 3.7-1.6 5-2.3a30.12 30.12 0 0 1 -2.9-2.5 14.69 14.69 0 0 1 -6.7 1.8c1.3.9 2.9 1.9 4.6 3" fill="#8d364a"/><path d="m185.4 439.3c1.3.9 2.6 1.8 3.9 2.8 3.6-2 5.2-4.1 5.8-6-4 .3-7.7 1.5-9.7 3.2" fill="#8d364a"/><path d="m181.2 442.6a20.87 20.87 0 0 0 -4.6-1.2 7.25 7.25 0 0 0 -1.3 4.7c1.2.5 2.3 1.1 4.8 2a12 12 0 0 1 1.1-5.5" fill="#8d364a"/><path d="m218.5 475.2c7.2 4.1 15.6 5.7 23.2 1.1q-2.4-1.95-4.8-4.2c-5.7 3.1-13 3.5-18.4 3.1" fill="#8d364a"/><path d="m211.3 475c-3.6 4.7-14 3.4-19.1 2.2 6.9 5.6 15.5 7.6 22.6 1.2a22.58 22.58 0 0 1 -3.5-3.4" fill="#8d364a"/><path d="m323.6 476.1a31.31 31.31 0 0 1 -2.2-3.6c-6.1 3.1-13.3 3.1-23.8-.8 7.4 7 16.7 10.3 26 4.4" fill="#8d364a"/><path d="m290.4 430.7c-.7-.5-1.5-.9-2.3-1.4a27.27 27.27 0 0 1 -7-1.1c-1.1 1.3-1.1 3-1 4.7.7 2.1 1.8 4.5 3.6 4.1s1.5-2.9 2.3-3.8a42.66 42.66 0 0 0 7.2.7 7.12 7.12 0 0 1 -2.8-3.2" fill="#8d364a"/><path d="m382.4 421.4c-1.4 1.9-4.4 7.8-2 13.1a21.83 21.83 0 0 1 7.8-9.1 3.27 3.27 0 0 0 .2-5.3c-1.2-1.1-4.2-1.2-6 1.3" fill="#ef4123"/><path d="m398.8 423.9a12.49 12.49 0 0 0 -1.4 13.6 19.09 19.09 0 0 1 6.4-9.3c1.6-1.3.9-3.9-.2-4.7a3.48 3.48 0 0 0 -4.8.4" fill="#ef4123"/><path d="m414.6 426.3c-2.2 2.3-5.7 8.1-2.1 13.7a23.72 23.72 0 0 1 6.9-7.8 3.67 3.67 0 0 0 .5-5.6 3.62 3.62 0 0 0 -5.3-.3" fill="#ef4123"/><path d="m300.6 414.1c-1.2-1.1-3.9-1.1-5.9.5-4.2 3.4-4.7 11.1-.9 13.8a11.47 11.47 0 0 1 5.1-6.9c1.9-1.2 2.7-2.2 3-3.8a3.7 3.7 0 0 0 -1.3-3.6" fill="#ef4123"/><path d="m280.3 413.6c-2 1.9-5.9 8.2-1.5 14.7 1.1-3.8 2.3-5.7 4.7-7.1s3.9-3.4 2.9-5.9a4.67 4.67 0 0 0 -2.2-2.4 4 4 0 0 0 -3.9.7" fill="#ef4123"/><path d="m310.3 414.9c-2.4 1.5-6.8 10-.8 15.6a18.65 18.65 0 0 1 5.3-10.2c2.3-2.5.9-4.4 0-5a3.39 3.39 0 0 0 -4.5-.4" fill="#ef4123"/><path d="m132.4 443.1c-2.9-2.6-3.5-7.1-2.4-11.1 1.8-6.7 5.4-7.6 8.1-5.6 1.8 1.4 3 4.1 1.1 5.9-2.6 2.6-5.6 5.9-6.8 10.8" fill="#ef4123"/><path d="m150.6 426c-4.9 3.8-3.9 13 1.3 16.1.5-4 2.4-7.1 4.8-10.1a4.39 4.39 0 0 0 -.7-5.8 3.86 3.86 0 0 0 -5.4-.2" fill="#ef4123"/><path d="m169.6 426.5a9.43 9.43 0 0 0 -3.4 7.3c.2 2.9 1.7 5.4 5 7.5.1-2.5.6-5.8 3.6-8.2s1.6-5.2.5-6.1-3.3-2.4-5.7-.5" fill="#ef4123"/><path d="m478.7 165.3c-17.8-23.7-51.1-17.6-68.6-13.9s-32.1 8.6-58.4 10.3c-24.3 1.5-42.5-14.8-33.4-32.4 5.2-10 14.3-17.2 28.4-17.5 8.1-.2 17.3 3.1 26.3 6.7 6.7 2.7 13.6 5.6 18.2 7.4 27.7 10.8 41.4 3.7 52.2-4.4a128 128 0 0 1 -15.9-4.9 24.47 24.47 0 0 0 -19.8 1.4c1.7-3.4 8.6-6.9 15.9-6.7 8.9.2 16.4 2.1 22.5 3.7 9.9-3.6 17-18.7 18.6-24.5-25.4 19.8-68 10.1-84.4 7.2-7.4-1.3-24.5-4.7-43.4 1.3-20.9 6.7-35.9 23.6-35.4 39.1.6 18.9 16 35 38.7 34.2 1 0 2 .8.8 1.5a21.22 21.22 0 0 0 -8.5 10.7c2.3-1.8 6.9-2.7 9.5-2.6 10 .3 15-4.4 20.3-10.7.5-.6 1.4-.1 1 .4-2.5 3-6.5 8.2-6.9 13.8 2.8-2.3 8.6-4.8 13.8-5.8 6-1.1 9.7-2.4 16-12h2.2c-4.6 4.2-8 9.7-6.4 15.7 2.2-2.2 5.5-4.9 9.9-5.7 6.5-1.1 13.9-5.5 18.9-12.3 1.1-1.5 2.1-2.3 3.2-2.4.6-.1 1.1.1.2.8-3.5 3-8.7 9.2-7.3 18.3 2.8-2.9 6.7-4.2 14.1-6.4 10.1-3 13.1-9.6 13.3-10.6a2.76 2.76 0 0 1 2.7-2.1c17.5-1.7 33.3 4.7 33.4 24 .1 15.3-17.8 27.4-56.3 23.7-8.6-.8-17.7-1.4-30.3-3.2s-29.2-2.6-38.7.1c-7.6 2.1-22.9 4.6-31.4 5.4-6.6.6-16.7 1.4-21.7-1.2 5.1 14.9-.1 25.1-9.9 29.7-.3 20.8-14.1 27.8-23.8 27.3-1.2 8.7-7.6 16.2-15.6 15.8-1.1 8.6-6.3 13.9-11.5 15.6a11 11 0 0 1 -2 8.8c4.9 1.2 7.5 3.4 12.5 3.5 5.6.1 14.6-2.6 23.8-6.8 8.2-3.8 12.9-6.3 19.7-10 4.6-2.5 10.2-5.7 18.8-9.8 15.1-7.2 23.5-2.2 28.5 2.6 4.2-3.7 7.4-4 10.3-3.9-2-11-8.5-20.9-13.7-24.8-.5-.4-.2-1.1.6-.9 3.7 1.2 8.9 5.7 12.9 12.5 3.7 6.2 5.3 11.1 7.5 17.7 8 24.2 25.3 37.5 51.5 47.9 4.9 2 7.1 2.8 9.2 4.5a4.78 4.78 0 0 1 1.8 4.3c-.1 1.4-1.7 11.8-4.1 24.8s-6.6 23.4-8.1 29.1c-1.1 4-2.9 6.3-5.8 7.6-1.9.9-3.2.8-5.5.6-4.9-.3-7.9 3.5-8.6 7.7a12.42 12.42 0 0 0 0 4.3c2.1-1.8 6.2-4.5 8.9-1.1 2.5 3.1 2.2 7.3-3.5 10.8a13.66 13.66 0 0 0 2.1 1.5c1.9 1 4.7.7 5.9-1.3a3 3 0 0 0 -.2-2.6c-2.8-6.2-.6-10.6 2.2-13.1s6.4-5.6 8.9-8a17.4 17.4 0 0 0 4.1-6.4c.4-1.1 1.8-.6 1.6.7a16.75 16.75 0 0 1 -3.6 7c-1.8 2.2-6.8 6.5-8.7 8.6a7.64 7.64 0 0 0 -2.4 4.9 13.13 13.13 0 0 0 .1 2.8c2-2.3 6.1-4.7 9.1-1.1 2.6 3.1 1.4 5.6-.3 7.5a18.06 18.06 0 0 1 -2.8 2.8c2.3 1.3 4.9 1.4 6.9-.9a10.72 10.72 0 0 1 1.3-12.5c1.3-1.5 3.5-3.9 6.1-6.7s3.7-6.5 4.4-9c.2-.8.9-.6 1 .1a18.88 18.88 0 0 1 -.2 3.2 12.71 12.71 0 0 1 -2.9 6.6c-1.8 2.2-4.3 4.3-6 7.2-1.5 2.6-1.9 4.4-1.6 5.9 2.9-3.4 7.1-4.8 10-1.7 2.3 2.5 3.4 7.3-3.3 11.1 4.8 3.9 11.1 2 14.5-1.4 5-5.1 3.8-10.8 2.2-15.2-.5-1.4-.4-1.8 1.4-2.3 5.1-1.3 8.9-8.2 5.2-15.2-.4-.7.6-1.7 1.1-.8 4.7 8.5 8.2 9.2 12.1 8.5a1.22 1.22 0 0 0 .7-2.1c-3.4-3.6-3.5-7.7-3.2-12.3a4.87 4.87 0 0 0 -1.2-4 30.2 30.2 0 0 0 -3.1-3.1c-.6-.5.1-1.1.6-.8 4.1 2.5 11.1 4.2 14 1.5-2.9-.9-4.4-7.4-4.6-12.1a15.31 15.31 0 0 0 -4.9-10.6c-.4-.4-.4-.7-.1-1a.77.77 0 0 1 1.1-.1c11 6.5 15.4-1.2 16.5-4.6-4.9.2-8.5-4.8-10.7-9.1a28.45 28.45 0 0 0 -3.1-4.5c-1.6-1.8-2.6-2.5-3.5-2.8s-1.3-1.1-.2-2.3 1.8-1.9 3-3.4c.8-.9 1.5-3.4.5-6.4a20.16 20.16 0 0 0 -5-8.2 3.6 3.6 0 0 0 -3.5-1.3 21 21 0 0 1 -18.5-9.8c-3.8-5.7-5.3-9.2-6.7-21.2-1.8-15-4.2-26.9-7.3-36.7-5.5-17.5-17.4-30.7-28.1-37-.7-.4-.2-1.1.5-.9 4.4 1.5 9.8 4.5 14.1 6.9 58.5 1.2 71.7-8.8 80.1-26 6.4-13.4.2-28.4-2.8-32.5m-40.2 165.6a.91.91 0 0 1 1.2-.5c1.2.6 2.4 1.1 3.6 1.6l.9.4a10.37 10.37 0 0 0 1 .4 7.46 7.46 0 0 1 1.2.7 2.84 2.84 0 0 1 .9 1.4 2.49 2.49 0 0 1 .1.8v.5c0 .3-.1.6-.1 1-.1.7-.2 1.3-.3 2l-.6 3.9a1 1 0 0 1 -1.2.9 1.17 1.17 0 0 1 -.9-1.1c.1-1.3.1-2.6.2-3.9v-3.9a1.76 1.76 0 0 0 -.4-.5 5.58 5.58 0 0 0 -.8-.5c-.3-.2-.6-.3-.9-.5-1.2-.6-2.3-1.2-3.5-1.7-.3.1-.6-.5-.4-1m-4.4 62.1a65.08 65.08 0 0 0 4-9c1.1-3.1 2.2-6.2 3-9.4s1.4-6.4 1.9-9.7c.2-1.6.4-3.3.6-4.9a39.9 39.9 0 0 0 .3-4.8 1.88 1.88 0 0 1 1.9-1.8 1.79 1.79 0 0 1 1.8 1.8 21.75 21.75 0 0 1 -.1 2.6c-.1.9-.1 1.7-.2 2.6-.2 1.7-.4 3.4-.7 5.1s-.7 3.4-1.1 5a39.43 39.43 0 0 1 -1.4 4.9c-.5 1.6-1.1 3.2-1.7 4.8s-1.3 3.2-2 4.7a52 52 0 0 1 -5 8.9.71.71 0 0 1 -1.1.2.78.78 0 0 1 -.2-1m-194.7-46.7c-3 1.4-8.1.5-12.7-5.2-1-1.2-3.6-4.4-5.7-5.3-1.3-.6-2.6.7-1.7 1.5 3.4 3.1 6 8.7 4.4 16.5-1.2 5.8.3 9 2.1 11.6.4.7.2 1.2-.8 1-6.4-1.3-10.1-6.1-12.6-9.6-.4-.5-1.4-.2-1 .3 4.9 6 5.8 11.6 4.7 20.3-.4 3.3-1.5 7.3 1.3 12.1a7.89 7.89 0 0 1 -7.2-2.4 29.37 29.37 0 0 1 -4.9-6c-.4-.7-1.6.1-1.2.7 2.3 3.2 3.7 7.5 1.7 14.1-1.5 4.8-2.2 9.6 2.3 13.2.6.5.4 1-.3 1-7 .3-11.9-3.1-14.7-8.9-.5-.9-1.8-.8-1.7.2.2 5.5-2.1 11.1-9.3 11.1 2.1 2.3 7.5 7.5 5 14.4-2.1 5.9-5.8 8.8-10.6 7.4a16.34 16.34 0 0 0 1.9-2.7c.8-1.5 1.2-3.8-.2-5.4a9.55 9.55 0 0 0 -3.5-2.5c-2.9-1.3-5.2-.3-7 1.4a19.2 19.2 0 0 0 -1.4 1.5 10.73 10.73 0 0 1 -1.1-4.9c-.1-3.7 2.3-7.1 4.8-10.3 1.6-2.1 3.2-4.2 3.3-6.8.1-1.4-1.7-1.8-1.9-.1a6.33 6.33 0 0 1 -1.5 3.2c-.7.9-3.5 3.8-5.6 6.4s-4 9.9.1 15.8a6.92 6.92 0 0 0 -.1 4.7c-1.5 1.1-5.7 3.3-8.9 1.9 3.6-3.7 4.3-7.2 3.6-9.6a6.92 6.92 0 0 0 -6.3-4.7 5.74 5.74 0 0 0 -5.7 2.9c-1.2-4.2 1.1-8.3 4.4-11 2-1.6 3.6-2.8 5.2-3.9 2.7-1.8 4.3-2.8 5.7-5a22.32 22.32 0 0 0 1.7-3.5c.1-.2-.2-1.7-.9-.6a26 26 0 0 1 -5.8 6.3 90.08 90.08 0 0 1 -7.6 5.1c-3.5 2.2-10.2 8.3-4.6 18.1a14.27 14.27 0 0 0 .1 5.8c-1.4.2-5 .3-6.7-1.1 2.1-1.8 4.3-4.4 1.9-9.3s-7.2-3.5-9-2.3c-.3-4.3.2-9.6 5.5-13.8a13.74 13.74 0 0 1 4-2.4c1.7-.5 3.9-1.2 5.6-1.9 3.9-1.7 8.7-4.5 11-11.6a100.35 100.35 0 0 0 5.1-27.6c.7-11.4.6-24.3 1-33.7.6-16.7 3.4-41.9 11.3-57.1 2.3 10.2 8.6 20.1 21.6 27.6a16.11 16.11 0 0 1 -12.9 12.1c1.1 3.7 10.1 10.3 21.4 10.2 1.2 0 2.5-.1 3.7-.2a119.09 119.09 0 0 1 -2.5 18.2 169.48 169.48 0 0 1 -15.5 41.2c-1.3 2.3 1 3.1 2.1 1.1a207.54 207.54 0 0 0 15.4-36.5 172 172 0 0 0 6.1-25.4c4.6-1.7 8.9-5.1 12.6-11.2 2.7 2.9 5.5 5.9 4.9 13.6-.7 8.1-.7 12.8 7.6 20m88-52.4c6.8-3.5 12.8-3.9 16.4-3.4a53.47 53.47 0 0 0 5.7 12.5c-6.7 15.5.9 28.6 12 32 1.9.6 3.2 1 3.8 3.7a70.2 70.2 0 0 1 1.5 9.7 5.4 5.4 0 0 1 -.9 3.7 39.23 39.23 0 0 1 -4.3 4.9c3.1 1.6 5.4 5.7 5.7 10.2.2 2.9.6 9.4 4.1 12.3-7.1 3.6-13.9-3-15.5-4.2-.6-.5-1.1.6-.7 1a11.67 11.67 0 0 1 3 10c-.3 1.8-1.6 7.9 1 11.3-3-.1-6.3-3-8.9-6.4-2-2.6-4.2-4.2-5.8-4.5.7 1 6.8 10.5 3.3 16.2a17.57 17.57 0 0 0 -2.5 9.3c-2.7-1.9-4.7-6.4-5.8-12.6-.2-1.3-1.3-1.3-1.7-.2-2.5 6.3-7 7.1-10.4 6.8-1-.1-1.8.4-1 1.2 1.5 1.5 4.7 5.9 2.2 11.2-2 4.3-7.1 9.7-14.1 4.7 4.8-4.4 4-7.1 1.6-9.3-1.3-1.2-4.1-3.2-7.8.6-2.3-3-.8-6.5 2.1-8.7a29 29 0 0 0 8-9.1c.4-.7.1-1.5-.8-.6a34.94 34.94 0 0 1 -5.9 5.7 24.17 24.17 0 0 0 -6.3 5.9c-2.5 3.2-.8 8 .1 9.7-1.2 1.9-1.4 4.3-1.1 7.2-1.1.2-3.2.5-4.3-1.2 3.6-2.4 4.8-5.8 2.7-9.3a5.72 5.72 0 0 0 -8.4-1.9c-.8.6-2.3.4-1.7-1.4.9-2.6 5-6.4 8.6-8.1 4.6-2.1 6-5.6 7-8.4.2-.6-.5-1.1-.9-.3a12.67 12.67 0 0 1 -7 6.9c-4.9 2-12.4 5.1-11 13.8a6.46 6.46 0 0 1 0 2.4 13.2 13.2 0 0 1 -.8 2.2c-.2.5-1.4.4-.9-.6a5.7 5.7 0 0 0 -8.3-7.2c-1.1-5.6.6-8.9 6.1-12 2-1.1 3.7-1.3 6.7-1.4 3.2-.1 8.4-1.3 12.6-9.2 7.5-14 12.2-23.7 15.6-32.3.9-2.2 1.7-5.6-3.1-9.5-7.4-5.9-17-13.9-25-21.2-6.4-5.9-3.8-18.2-.6-24.5a6.88 6.88 0 0 1 1.6-2.1 68.61 68.61 0 0 1 17.3-9c5.3-1.7 12.9-2.3 16.8 3.5m26.1 43.6c-.5-.7-.7 0-.7.4a3.73 3.73 0 0 0 1 2.7c1.5 1.3 2.9 2.9 3.1 4.9.2 1.7-.8 4.1-2.2 6.2-.4.6-.3 2.1.8 1.2a19 19 0 0 0 2.9-3.1 5.31 5.31 0 0 0 .7-2.5 31.15 31.15 0 0 0 -.4-5.2 2.14 2.14 0 0 0 -1.2-1.6 13.14 13.14 0 0 1 -4-3m-3.4 24.9a132.45 132.45 0 0 1 -6.7 14.3c-2.1 3.8-3.6 6.8-5.7 9.3-.4.5-.2 2.7 1.2 1.4s5.7-6.7 8.5-11.2a90.72 90.72 0 0 0 8-15.9c.4-1.1.3-1.7-.2-2s-.7-.5-.9-.7a1.62 1.62 0 0 0 -1.5.1c-.9.8-1.6 1.7-2.7 4.7" fill="#fd0"/><path d="m388.3 420a4 4 0 0 0 -2.4-.7 2.71 2.71 0 0 1 .9 2.7 8.82 8.82 0 0 1 -3.3 4.2 10.6 10.6 0 0 0 -4 4.8 8.62 8.62 0 0 0 .9 3.4 22.57 22.57 0 0 1 7.8-9.1 3.32 3.32 0 0 0 .1-5.3" fill="#ba272b"/><path d="m403.6 423.5a3.78 3.78 0 0 0 -3.2-.6c1.5.5 2.5 1.4 2.2 2.6-.2 1-.5 1.2-2.3 2.5s-3.1 3-4.1 6.4a10.46 10.46 0 0 0 1.2 3.2 19.09 19.09 0 0 1 6.4-9.3c1.6-1.4.9-4-.2-4.8" fill="#ba272b"/><path d="m419.9 426.6a3.63 3.63 0 0 0 -4.9-.6c1.7.4 3.3 1.2 3.1 2.8s-1 2.4-3.2 3.8a11 11 0 0 0 -3.6 4.6 8.81 8.81 0 0 0 1.3 2.8 23.72 23.72 0 0 1 6.9-7.8 3.73 3.73 0 0 0 .4-5.6" fill="#ba272b"/><path d="m300.6 414.1c-1.1-1-3.5-1.1-5.5.2a4.85 4.85 0 0 1 2.8 1c.7.8 1.2 2.8-1.2 4.5a11.11 11.11 0 0 0 -4.8 6.4 5.78 5.78 0 0 0 1.8 2.3 11.47 11.47 0 0 1 5.1-6.9c1.9-1.2 2.7-2.2 3-3.8a3.52 3.52 0 0 0 -1.2-3.7" fill="#ba272b"/><path d="m284.1 413a2.85 2.85 0 0 0 -1.6-.2 3.18 3.18 0 0 1 2 1.7c.2.9.4 1.7-1.6 3.2a19.87 19.87 0 0 0 -5.5 7.9 15.25 15.25 0 0 0 1.4 2.9c1.1-3.8 2.3-5.7 4.7-7.1s3.9-3.4 2.9-5.9a4.09 4.09 0 0 0 -2.3-2.5" fill="#ba272b"/><path d="m309.5 430.5a18.65 18.65 0 0 1 5.3-10.2c2.2-2.5.9-4.4 0-5a3.67 3.67 0 0 0 -4.2-.5 2.73 2.73 0 0 1 1.9 1.5 2.51 2.51 0 0 1 -.7 3 12.5 12.5 0 0 0 -4.7 7.6 9.45 9.45 0 0 0 2.4 3.6" fill="#ba272b"/><path d="m175.3 427.1c-1-.8-2.8-2.1-4.8-1.1 2.2.2 3.3 1.1 3.2 2.7a3.08 3.08 0 0 1 -2 3c-2.1 1.3-2.6 5.9-2.2 8.4.5.4 1.1.8 1.7 1.2.1-2.6.6-5.8 3.6-8.2s1.6-5.1.5-6" fill="#ba272b"/><path d="m156 426.1a3.85 3.85 0 0 0 -4-.9c3.4.3 4.2 3.1 2 5.1s-3.7 5-4.3 9.6a7.71 7.71 0 0 0 2.3 2.1c.5-4 2.4-7.1 4.8-10.1a4.81 4.81 0 0 0 -.8-5.8" fill="#ba272b"/><path d="m139.1 432.5c1.9-1.8.7-4.6-1.1-5.9a4 4 0 0 0 -4.5-.5 3.59 3.59 0 0 1 3.4 1.5c1 1.6.8 2.9-1 3.8s-4 2.3-5.7 8.8a9 9 0 0 0 2.1 3 22.53 22.53 0 0 1 6.8-10.7" fill="#ba272b"/><g fill="#dfb120"><path d="m346.2 181.7c7.1-1 11.4-5.1 15.7-10.3-1.7 0-6 .3-7.5.5-1.7.2-3.4.4-4.4.5s-2.7.3-1.4 1.2 4.5 2.2-2.4 8.1"/><path d="m241.7 312.4c5.6.1 14.6-2.6 23.8-6.8 8.2-3.8 12.9-6.3 19.7-10 4.6-2.5 10.2-5.7 18.9-9.8 15.1-7.2 23.5-2.2 28.5 2.6 4.2-3.7 7.4-4 10.3-3.9a46.51 46.51 0 0 0 -4.2-12.4c-3.4-1.7-7.4-3.1-14.4-3.5-12.7-.6-28.9 8-45.8 17.8a139.27 139.27 0 0 1 -13.8 7.1c-10.1 4.6-20 3.9-27.5 2.7a15.1 15.1 0 0 1 -5.8 3.6 11 11 0 0 1 -2 8.8c4.7 1.4 7.3 3.7 12.3 3.8"/><path d="m338.2 163.2c7.1 1.1 10.7.1 13.1-1.4-24.1 1.4-42.1-14.9-33.1-32.4 5.2-10 14.3-17.2 28.4-17.5a50.24 50.24 0 0 1 5.4.3c-.9-2.5-5.2-2.7-10.2-2.8-16.9-.4-30.1 14.9-29.6 27.5.7 18.2 17.1 24.9 26 26.3"/><path d="m406 119.3c6.4-1.4 10.4.5 10.5 5.7.1 2.9-1.6 4.5-4.2 6.2 14.4 1.2 23.5-4 31.1-9.7a128 128 0 0 1 -15.9-4.9 24.47 24.47 0 0 0 -19.8 1.4c1-1.9 3.7-3.9 7.2-5.2a11.8 11.8 0 0 0 .1-10.3c-4.6-.2-9.1-.7-13.3-1.2 2.9 1.6 5.7 4.2 5.6 8.1-.2 5.8-5.4 9.4-14.5 6.3l-1.8 1c3.1 2.5 8.6 4 15 2.6"/><path d="m171.5 404.7c.1-.8.4-1.1.8-1.1-.1-.1-.3-.2-.4-.3-2.1.1-6.5.1-7.8-1.2a22.32 22.32 0 0 1 -1.7 3.5c-1.4 2.2-3 3.2-5.7 5-.2.1-.4.3-.6.4a15.48 15.48 0 0 1 9.2 2.2c1.9-2.3 4.1-4.6 4.7-5.3a6.33 6.33 0 0 0 1.5-3.2"/><path d="m164.4 430.1a14.26 14.26 0 0 1 -2.2-5.3 9.08 9.08 0 0 1 -3.4 1.7c.1.2.1.4.2.6.7 2.5 0 6-3.6 9.6 3.2 1.4 7.4-.8 8.9-1.9a7.58 7.58 0 0 1 .1-4.7"/><path d="m231.8 326.7c.7-7.7-2.1-10.7-4.9-13.6-3.6 6.1-7.9 9.5-12.6 11.2a160.27 160.27 0 0 1 -6.1 25.4 215.38 215.38 0 0 1 -15.4 36.5c-1.1 2-3.4 1.2-2.1-1.1a172.57 172.57 0 0 0 15.5-41.2 109 109 0 0 0 2.5-18.2c-1.2.1-2.3.2-3.5.2-1.7 6.5-4.5 11.1-11 14.4-.8.4-.4.9.2.7a20.24 20.24 0 0 0 5.4-2.1c.6-.4 1.1-.2 1.1.8-.1 2.3-.7 8.7-9 13.6-.7.4-.4.7.3.6 1.5-.1 4.3-1.7 5.1-2.1s1.9-.5 1.5.6c-1.6 4.5-5.8 10.3-10 12.1-2 .8-.8 1.9.2 1.8a11.64 11.64 0 0 0 4.3-1.7c.8-.6 1-.5.9.4-.5 3.4-5.6 10-10.7 11-1.8.3-2 2.1.2 1.8a30.66 30.66 0 0 0 6.9-2.2c-2.8 6.2-7 9.3-11.7 9.4-1.3 0-1.8 1.7-.1 1.7 2.8 0 6.3 1.2 6.3 5.8 0 2.9-1.2 8.5-3.6 10.7a7.18 7.18 0 0 1 -8.3.9 1.27 1.27 0 0 1 .1.6c-.2 2.6-1.7 4.6-3.3 6.8-.2.3-.5.7-.7 1a12.71 12.71 0 0 1 10.5.8c2.2 1.3 4.7 4.4 4.5 7.8a6.4 6.4 0 0 1 -5.5 6.3 5.18 5.18 0 0 1 -.5 4.4 14.54 14.54 0 0 1 -1.9 2.6c4.8 1.3 8.5-1.6 10.6-7.4 2.4-6.9-3-12.1-5-14.4 7.2-.1 9.5-5.7 9.3-11.1a.77.77 0 0 1 1.3-.6 27.61 27.61 0 0 1 -1.6-7.5c-.3-5 2.8-7.9 6.5-7.9 3.3 0 7.3 1.6 8.6 9.1 1.4-5.8 0-9.8-2.1-12.7-.4-.5.4-1.1.9-.9-1.5-3.8-2.8-9.1-1.3-13.3 1.8-5 6.3-3.5 7.8-1.6a25.2 25.2 0 0 1 4.8 10.4c.9-8-.1-13.5-4.8-19.2-.5-.6.6-.8 1-.3 0 .1.1.1.1.2-2.1-4.5-3-11.5 1.8-13.2s8.5 2.5 9.8 6.9c.4-6.2-1.9-10.8-4.8-13.5-1-.9.4-2.2 1.7-1.6 2.1 1 4.6 4.1 5.6 5.3 4.6 5.7 9.7 6.5 12.7 5.2-8.2-7.2-8.2-11.9-7.5-19.6"/><path d="m367.3 367.2c-.3-4.5-2.6-8.6-5.7-10.2a32.35 32.35 0 0 0 4.3-4.9c.8-1.1.9-1.9.9-3.7a70.2 70.2 0 0 0 -1.5-9.7c-.6-2.7-1.9-3.2-3.8-3.7-11.1-3.3-18.7-16.5-12-31.9a53.47 53.47 0 0 1 -5.7-12.5c-3.7-.5-9.6-.2-16.4 3.4-3.9-5.7-11.5-5.2-16.7-3.6a70.32 70.32 0 0 0 -17.3 9 4.14 4.14 0 0 0 -1.5 2.1c-3.2 6.3-5.8 18.6.6 24.5 8 7.3 17.6 15.2 25 21.2 2.8 2.2 3.7 4.3 3.8 6.1 1.8-.3 3.9-.7 4.9-.8 4.9-.5 12.7-.3 17 7.4 3.4 6.2.8 9.6-1.4 10.8a21 21 0 0 1 -6.3 2.1c-1.5.2-.3 1.3 1 1.3h4.7c-.8 1.6-3.8 3.4-6.7 3.5a11 11 0 0 0 -3.5.6c-.7.4-.4 1.5.8 1.3 1.7-.3 6-.1 7.1-.4-1.5 1.7-4.1 4.3-12.5 6.1-1.2.3-.9 1.8 1.8 1.1s3.5-.6 3.8.1c.5.8 1.8 3.4.7 5.8-1.2 2.7-3.5 6.4-6.5 8.2-1.2.7-5.8 2.5-8.8-1.8a24.83 24.83 0 0 1 -3.4 4.2c2.9-.1 6.1.2 8.3 2.4 2.7 2.7 4.1 7.1 1.8 10.5a7.85 7.85 0 0 1 -6.4 3.8 14.35 14.35 0 0 1 -3 3.8c7 5.1 12.1-.3 14.1-4.7 2.5-5.3-.7-9.6-2.2-11.2-.8-.8 0-1.3 1-1.2 3.4.3 7.9-.5 10.4-6.8.2-.5.5-.8.8-.8.2-6.6 3.7-7.4 5.8-5.5 1.3 1.2 1.6 4.1.1 7a6.18 6.18 0 0 1 -4.2 3.6c1.1 4.1 2.8 7.1 4.9 8.6a17.57 17.57 0 0 1 2.5-9.3c3.5-5.7-2.6-15.2-3.3-16.2a3.49 3.49 0 0 1 1.3.5c-.5-2.5-.4-4.9 1.7-6.4 2.3-1.8 5.3-2 7.4 1a19.94 19.94 0 0 1 3 6.3c.1-.7.2-1.3.3-1.7a11.89 11.89 0 0 0 -3-10 .68.68 0 0 1 .1-1c-1.7-2.7-2.5-6.9.2-9 3.1-2.5 7-2.1 9.2 1.3 1.7 2.6 2.1 3.4 3.3 5.3a34.54 34.54 0 0 1 -.8-5.9m-12-6.9a90.72 90.72 0 0 1 -8 15.9c-2.8 4.5-7 9.9-8.5 11.2s-1.7-.9-1.2-1.4a72.9 72.9 0 0 0 5.7-9.3 132.45 132.45 0 0 0 6.7-14.3c1.1-2.9 1.8-3.9 2.7-4.6a1.62 1.62 0 0 1 1.5-.1 3.63 3.63 0 0 1 .9.7c.5.3.7.9.2 1.9m3.6-13.2a3.73 3.73 0 0 1 -.7 2.5 15.32 15.32 0 0 1 -2.9 3.1c-1.1 1-1.2-.6-.8-1.2 1.4-2.1 2.4-4.5 2.2-6.2a7.49 7.49 0 0 0 -3.1-4.9 3.16 3.16 0 0 1 -1-2.7c0-.4.2-1.1.7-.4a11.67 11.67 0 0 0 3.9 2.9 2.43 2.43 0 0 1 1.2 1.6 16.42 16.42 0 0 1 .5 5.3"/><path d="m152.8 410.9a35.83 35.83 0 0 0 4.5-3.1 26 26 0 0 0 5.8-6.3 1.38 1.38 0 0 1 .3-.4c-.2-.4-.3-.5-.4-.7s-.4-.2-.7-.2a8.77 8.77 0 0 1 -6.3-2.3 18.21 18.21 0 0 1 -9.4 8.1h-.1c2.8.6 5.1 1.9 6.3 4.9"/><path d="m458.9 351.7a28.45 28.45 0 0 0 -3.1-4.5c-1.6-1.8-2.6-2.5-3.5-2.8s-1.3-1.1-.2-2.3 1.8-1.9 3-3.4c.8-.9 1.5-3.4.5-6.4a20.87 20.87 0 0 0 -5-8.2 3.6 3.6 0 0 0 -3.5-1.3c-6.6.3-13.6-2.5-18.5-9.8-3.8-5.7-5.3-9.2-6.7-21.2-1.8-15-4.2-26.9-7.3-36.7a70.1 70.1 0 0 0 -20.5-31.5c4.8 6.1 8.4 13.1 13.4 23.1 6.3 12.9 9.3 39.4 10.3 47.1.8 7.1 1.5 14.4-4.4 20.5-9 9.2-25.1 3.2-38.2-4-12.9-7.1-21.5-22.4-27-33.3-5.1-10.1-9.4-15.3-15.8-16.9 3.3 2 7.2 5.9 10.4 11.3 3.7 6.2 5.3 11.1 7.5 17.7 8 24.2 25.3 37.5 51.5 47.9 4.9 2 7.1 2.8 9.2 4.5a2.84 2.84 0 0 1 .9 1c15.6 2.6 26.8 8.9 27 15.8.2 5-3.4 9.8-8.9 13.2-1.2.7-.9 1.3.2 1.1s4-1.3 7.5-2.6c-2.2 6.4-5.4 7.7-9.6 10.2-.6.4-.7 1.2.4.9 1.7-.5 3.7-1.9 7.4-3.1-2.1 6.6-5.4 8.6-9.7 9.5-1 .2-1.2 1.4.4 1.3a42.62 42.62 0 0 0 6.4-2 18.45 18.45 0 0 1 -9.9 10.1c-1.3.6-.5 1.8 1.1 1.1 5.8-2.5 9.5-1.1 9.3 3.6-.1 2.3-1.6 6.7-4.9 8.6-2.3 1.3-5.8.1-7.5-1.4a13.66 13.66 0 0 1 -2.6 4.9c-.3.4-.6.7-.9 1.1 5.7 0 11.1 2.8 11.7 3.6a10.58 10.58 0 0 1 1.7 6.5c-.6 6.2-5.7 7.6-9.2 7.4a11.91 11.91 0 0 1 -4.3 3.9c4.8 3.9 11.1 2 14.4-1.4 5-5.1 3.8-10.8 2.2-15.2-.5-1.4-.4-1.8 1.4-2.3 5.1-1.3 8.9-8.2 5.2-15.2-.3-.6.3-1.3.8-1.1a4.94 4.94 0 0 1 1.4-3.1c1.8-2.1 4.9-1.1 5.9-.2.6.5 1.4 1.5 2.6 2.6a26 26 0 0 1 .1-4.8 4.87 4.87 0 0 0 -1.2-4 30.2 30.2 0 0 0 -3.1-3.1c-.5-.4-.2-.8.2-.9-1.9-2.5-1.4-5.9 1.1-8.3 2.7-2.6 6.2-1.3 8.8-.4a10.87 10.87 0 0 1 -.1-1.8 15.31 15.31 0 0 0 -4.9-10.6c-.4-.4-.4-.7-.1-1a.62.62 0 0 1 .7-.2c-1.5-3.2 2.1-6.3 6.5-5.7a19.83 19.83 0 0 1 9 4.2 11.13 11.13 0 0 0 1.4-3c-5.1.4-8.7-4.7-10.9-9m-20.4-20.8a.91.91 0 0 1 1.2-.5c1.2.6 2.4 1.1 3.6 1.6l.9.4a10.37 10.37 0 0 0 1 .4 7.46 7.46 0 0 1 1.2.7 2.84 2.84 0 0 1 .9 1.4 2.49 2.49 0 0 1 .1.8v.5c0 .3-.1.7-.1 1-.1.6-.2 1.3-.3 2l-.6 3.9a1 1 0 0 1 -1.2.9 1.17 1.17 0 0 1 -.9-1.1c.1-1.3.2-2.6.2-3.9v-3.9c0-.2-.2-.3-.4-.5a5.58 5.58 0 0 0 -.8-.5c-.3-.2-.6-.3-.9-.5-1.2-.6-2.3-1.2-3.5-1.7-.3.1-.6-.5-.4-1m9 26.9c-.1.9-.1 1.7-.2 2.6-.2 1.7-.4 3.4-.7 5.1s-.7 3.4-1.1 5a39.43 39.43 0 0 1 -1.4 4.9c-.5 1.6-1.1 3.2-1.7 4.8s-1.3 3.2-2 4.7a52 52 0 0 1 -5 8.9.71.71 0 0 1 -1.1.2.78.78 0 0 1 -.2-1 65.08 65.08 0 0 0 4-9c1.1-3.1 2.2-6.2 3-9.4s1.4-6.4 1.9-9.7c.2-1.6.5-3.3.6-4.9a39.9 39.9 0 0 0 .3-4.8 1.88 1.88 0 0 1 1.9-1.8 1.79 1.79 0 0 1 1.8 1.8 22.6 22.6 0 0 1 -.1 2.6"/><path d="m133.8 423.1a10 10 0 0 1 -2.3-3 17.83 17.83 0 0 0 0 4 6.13 6.13 0 0 1 2.3-1"/><path d="m138.6 435.6c1.7 1.4 5.3 1.3 6.7 1.1a11.45 11.45 0 0 1 -.1-5.8 13.61 13.61 0 0 1 -2.1-8.1 28.26 28.26 0 0 1 -4.4 1.2 5.82 5.82 0 0 1 1.8 2.4c2.4 4.9.2 7.4-1.9 9.2"/><path d="m410.7 165.2a8.7 8.7 0 0 1 1.2-1.4 126.29 126.29 0 0 0 -15.3 2.6c-.8.2-.4.8.1.9 5.2 1 2.8 5.7.7 8.5a33.33 33.33 0 0 0 13.3-10.6"/><path d="m393.8 429.9a3 3 0 0 0 -.2-2.6 17.86 17.86 0 0 1 -1.2-4 6.36 6.36 0 0 1 -1.8.6c-.4 2-1.9 4-4.9 5.9a13.66 13.66 0 0 0 2.1 1.5c2 1 4.9.7 6-1.4"/><path d="m397.4 422.3c-.5-.5-1-1.1-1.6-1.7v.3a13.13 13.13 0 0 0 .1 2.8 6.73 6.73 0 0 1 1.5-1.4"/><path d="m382.7 418.4a16.32 16.32 0 0 1 -1.8-4.3 10.46 10.46 0 0 0 -.4 1.7 15.48 15.48 0 0 0 0 4.3 8 8 0 0 1 2.2-1.7"/><path d="m397.7 412.5c2.4-2.1 5-4.4 7-6.3.6-.6 1.2-1.3 1.7-1.9-3.4.2-5.2-1.3-6.2-4.2-1.1 3.8-2.9 6-5.7 7.3a5.82 5.82 0 0 1 -1.6.5 8 8 0 0 1 4.8 4.6"/><path d="m413.1 424.8c-.4-.8-.8-1.8-1.2-2.8a7.71 7.71 0 0 0 -1.1 4.9 7.59 7.59 0 0 1 2.3-2.1"/><path d="m429.1 219.9c-10.7.3-29.2-.7-38.7-1.2 3.6 1.6 7.4 3.7 10.6 5.5 56.9 1.2 70.9-8.2 79.4-24.6-9.8 13.2-26.3 19.5-51.3 20.3"/><path d="m408.4 405.2c-.5.7-1 1.5-1.6 2.2-1.1 1.3-3.4 3.5-5.5 5.5a15 15 0 0 1 9.8 5.5c1.3-1.5 3-3.4 5-5.5a14.14 14.14 0 0 0 2.4-3.6c-4.6 1.1-7.7-1.5-10.1-4.1"/><path d="m407.4 425.8a2.77 2.77 0 0 1 -.9.1 6.17 6.17 0 0 1 -1.8 4.2 18.06 18.06 0 0 1 -2.8 2.8c2.3 1.3 4.9 1.4 6.9-.9a10.25 10.25 0 0 1 -1.4-6.2"/><path d="m372.2 179.1c4.8-1.1 8.3-3.2 13.8-11.5-4.7 0-12.5 2-13.3 2.2s-.4.7 0 .8a2.76 2.76 0 0 1 2.6 2.8 9.22 9.22 0 0 1 -3.1 5.7"/><path d="m307.4 396.8a11.3 11.3 0 0 1 -5.9 5.7c-.2.1-.3.2-.5.2 2.2.2 4.3.7 5.6 3.4a26.57 26.57 0 0 1 5.2-4.5 23.21 23.21 0 0 0 2.8-2.4 7.91 7.91 0 0 1 -7.2-2.4"/><path d="m420.1 102.6c2.1 2.8 2.6 5.5.9 8.8a20.9 20.9 0 0 1 2.5-.1 89.34 89.34 0 0 1 22.5 3.7c9.9-3.6 17-18.7 18.6-24.5-12.4 9.6-28.9 12.3-44.5 12.1"/><path d="m436.1 158.5a121.92 121.92 0 0 0 -13.2 2.5c-1.5.3-1.2 1.2 0 1.7 4.5 1.7 5.1 6.5-.8 12.5 9.2-3.1 12.1-9.3 12.3-10.3a2.76 2.76 0 0 1 2.7-2.1c14.4-1.4 27.6 2.7 31.9 14.8-1.7-9-9.4-21.9-32.9-19.1"/><path d="m287.9 418.6c-.4 1 .7 1.1.9.6s.5-1.3.8-2.2a3.93 3.93 0 0 0 0-2.4 15 15 0 0 1 -.2-2c-.5.2-1.2.4-1.8.6a5.39 5.39 0 0 1 .3 5.4"/><path d="m281.2 410.7a14.09 14.09 0 0 1 -1.8-4.1 11.35 11.35 0 0 0 .2 4.8c.6-.3 1.1-.5 1.6-.7"/><path d="m304.7 424.3c-.2-2.9 0-5.3 1.1-7.2a12.29 12.29 0 0 1 -.9-2.2 5.28 5.28 0 0 1 -1.3.1c1.3 3.1-.1 6-3.3 8.1 1.2 1.7 3.3 1.5 4.4 1.2"/><path d="m294.4 403.9a30.6 30.6 0 0 1 6.3-3.1 11.54 11.54 0 0 0 5.6-4.6 6.14 6.14 0 0 1 -4.7-2.5 13.08 13.08 0 0 1 -9.2 4.3 11.48 11.48 0 0 0 -1.9.1 6.61 6.61 0 0 1 3.9 5.8"/></g><path d="m328.9 157.3c-11-5.9-16.4-16.6-10.6-27.9a33.77 33.77 0 0 1 7.8-10.1 7 7 0 0 0 -5.3 2.4 19.69 19.69 0 0 0 -4.9 6.7 22.49 22.49 0 0 0 -1.5 9.8c.4 7.5 4.5 15 14.5 19.1" fill="#bb7727"/><path d="m361.9 171.3c-.1-.4-.7-.3-1.3-.3a42.3 42.3 0 0 0 -4.9.6 1 1 0 0 0 -.7 1.7c.9 1.1.8 3 .2 4.6a34.8 34.8 0 0 0 6.7-6.6" fill="#bb7727"/><path d="m386 167.5a44.93 44.93 0 0 0 -9.1 1.2c.3.7.6 1 .9 1.1s.8.1 1.2.7c.6 1 .6 3.1.1 5.3 2-1.6 4.2-4.2 6.9-8.3" fill="#bb7727"/><path d="m435.3 428.1c-4.7 7.3-11 8.5-15.1 6.1a14.52 14.52 0 0 1 -2.9 2.1c4.8 3.9 11.1 2 14.5-1.4a11.78 11.78 0 0 0 3.5-6.8" fill="#bb7727"/><path d="m403 166.3c1.1 1 1.5 3.5 1.4 5.3a34.77 34.77 0 0 0 6.3-6.4 11 11 0 0 1 1-1.1c-3 .3-7.7 1.2-8.2 1.3s-.9.6-.5.9" fill="#bb7727"/><path d="m349.6 303a53.47 53.47 0 0 1 -5.7-12.5c-3.7-.5-9.6-.2-16.4 3.4-3.9-5.7-11.5-5.2-16.7-3.6a67 67 0 0 0 -17.3 9 4.59 4.59 0 0 0 -1.5 2.1c-3.2 6.3-5.8 18.6.6 24.5l.2.2c10.5-13.2 34.8-22.4 54.5-8.7a26.3 26.3 0 0 1 2.3-14.4" fill="#bb7727"/><path d="m393.8 429.9a3.1 3.1 0 0 0 -.1-2.5 4.53 4.53 0 0 1 -4.9 0 14.79 14.79 0 0 1 -2.9 2.4 13.66 13.66 0 0 0 2.1 1.5c1.8 1 4.7.7 5.8-1.4" fill="#bb7727"/><path d="m405.1 429.7c-.1.2-.3.3-.4.5a18.06 18.06 0 0 1 -2.8 2.8c2.3 1.4 4.9 1.4 6.9-.9a12.23 12.23 0 0 1 -1-2.4 3.56 3.56 0 0 1 -2.7 0" fill="#bb7727"/><path d="m432.1 112a38.6 38.6 0 0 1 5.1.9c4-6.2 3.1-9.5 1.8-11.7-1.9.3-3.8.6-5.7.8 1.5 2.6 1.7 6.1-1.2 10" fill="#bb7727"/><path d="m158.3 432.8a16 16 0 0 1 -2.9 4c3.2 1.4 7.4-.8 8.9-1.9a9.86 9.86 0 0 1 -.3-2.4 10.17 10.17 0 0 1 -5.7.3" fill="#bb7727"/><path d="m145 431.4a5.33 5.33 0 0 1 -3.8.8 8.84 8.84 0 0 1 -2.6 3.4c1.7 1.4 5.3 1.3 6.7 1.1a10.85 10.85 0 0 1 -.3-5.3" fill="#bb7727"/><path d="m187.1 427.1a12.09 12.09 0 0 0 .5-1.8c-3.7 5.4-6.8 6.2-8.9 6l-.3.6a22.44 22.44 0 0 1 -1.9 2.7c4.8 1.2 8.5-1.7 10.6-7.5" fill="#bb7727"/><path d="m422.8 131a35.21 35.21 0 0 0 4.9-1.1c3.8-5.5 2.1-10 .4-13-.2-.1-.4-.1-.6-.2a27.13 27.13 0 0 0 -6.5-1.4c4.8 4.3 5.9 9.7 1.8 15.7" fill="#bb7727"/><path d="m433.6 127.6a60 60 0 0 0 9.8-6.1c-3.1-.7-6.4-1.7-9.8-2.8a9.93 9.93 0 0 1 0 8.9" fill="#bb7727"/><path d="m441.7 113.8c1.5.4 3 .7 4.3 1.1 9.9-3.6 17-18.7 18.6-24.5a53.65 53.65 0 0 1 -20.5 9.6c1.5 2.3 3.3 6.8-2.4 13.8" fill="#bb7727"/><path d="m428.7 161.3c3.8 3.2 2.7 6.6 1.3 9.4 3-2.6 4.2-5.2 4.3-5.9a2.76 2.76 0 0 1 2.7-2.1c7.8-.8 15.3.1 21.2 3-10.2-8.2-23-5.8-29.5-4.4" fill="#bb7727"/><path d="m286.1 245.2c15.6-7 12.4-24.4 10-32.4a14.46 14.46 0 0 1 -4-1.3c5.1 14.9-.1 25.1-9.9 29.7-.3 20.8-14.1 27.8-23.8 27.3-1.2 8.7-7.6 16.2-15.6 15.8-1.1 8.5-6.3 13.9-11.5 15.6a11 11 0 0 1 -2 8.8 26.37 26.37 0 0 1 4.5 1.5 22.3 22.3 0 0 0 2.5-6.4 1.86 1.86 0 0 1 1-1.7c6.2-3.8 9.9-10.5 9.9-14.2 0-.6.6-1 1.3-1.2 7-1.9 10.7-6.9 12.7-11.9 17.5-2.3 24.6-20.5 24.9-29.6" fill="#b75422"/><path d="m349.6 303a53.47 53.47 0 0 1 -5.7-12.5c-3.7-.5-9.6-.2-16.4 3.4-3.9-5.7-11.5-5.2-16.7-3.6a67 67 0 0 0 -17.3 9 4.59 4.59 0 0 0 -1.5 2.1 33 33 0 0 0 -3 9.9 60.64 60.64 0 0 1 19.6-10.4c13.7-4.5 31-4.4 40.4 4.2a5.56 5.56 0 0 1 .6-2.1" fill="#b75422"/><path d="m227 313.1c-3.6 6.1-7.9 9.5-12.6 11.2l-.6 3.9c7.3-1.9 12.2-6.3 16-11.6a19.55 19.55 0 0 0 -2.8-3.5" fill="#b75422"/><path d="m208.6 329.1c.1-1.3.2-2.5.3-3.5a22.34 22.34 0 0 1 -3.7.2 29.86 29.86 0 0 1 -15.5-4.3c-2.1.3-4.1.5-6.1.6 5.6 6.5 12.1 8.5 25 7" fill="#b75422"/><path d="m454.4 218.5c-7.5 1.9-21.8 4.4-32.3 4.4a191.78 191.78 0 0 1 -26.9-1.8c2 1 4 2.2 5.8 3.2 28.4.6 46.2-1.4 57.8-5.7a7.36 7.36 0 0 0 -4.4-.1" fill="#b75422"/><path d="m406.2 129.1c1.7-1 2.5-2.4 2.5-4.9a4.4 4.4 0 0 0 -3.5-4.3 22.08 22.08 0 0 0 -3.3.6c2.5.9 3.9 2.2 2.2 4.8-1.4 2.1-2.6 2.2-4.9 2.1-1.1-.1-1.2.5-.9 1a81.23 81.23 0 0 0 9.5 2.3c-.1-.6-.5-1.1-1.6-1.6" fill="#fff"/><path d="m340.5 263.7c-4.4-5.6-8.8-7.3-11.6-8-2.2-.5-3.3.7-1.8 1.3a6.44 6.44 0 0 1 2.6 1.9 20 20 0 0 1 7.2 5c3.3.7 6.2 6 9 10.3.7 1 1.2.4.8-.4a41.52 41.52 0 0 0 -6.2-10.1" fill="#fff"/><path d="m404.5 415.2c.3-.3.3-1-.8-.9a8.1 8.1 0 0 0 -5.7 3.9c-.2.4.2.7.6.4.5-.5 1.4-.8 4.4-.5a6.6 6.6 0 0 1 1.5-2.9" fill="#fff"/><path d="m413.5 353.2c-.3-1.5-1-1.5-1.9-.5-.7 4.5-1.8 10.9-3.2 18.1-2.2 11.3-5.5 20.6-7.4 26.6 3.9-2.8 5.3-7.9 6.3-11.2 1.4-4.8 4.1-14.8 5.5-21.7s1.2-9.4.7-11.3" fill="#fff"/><path d="m281.4 407.6a4.21 4.21 0 0 1 4.2.4c0-2.3.4-3.4 2.4-5.8-2.5.2-6.1.6-6.6 5.4" fill="#fff"/><path d="m382.3 112.8c4.4 2.5 8.6 4.5 8.6 4.5 2.6-1.1 7.5-4.3 7.6-9.8 0-2.3-1.8-5.6-4.6-7.4-1.6-.3-3.2-.5-4.6-.8-1.1.4-1.6 1-.8 1.1 3 .4 5.9 3.1 6 5.9 0 4-4.8 6.8-7.8 6.8s-3.4-.7-3.9-1.1a.48.48 0 1 0 -.5.8" fill="#fff"/><path d="m301.3 138.1a35 35 0 0 0 25.7 32.7 2.78 2.78 0 0 0 -1.9-1.9 45.42 45.42 0 0 1 -15.9-14.4 31.79 31.79 0 0 1 -5.3-16.3c-.4-6.5 2.6-13.4 6.5-19.2.4-.6.5-1.2 0-1.6a1.9 1.9 0 0 0 -.9-.3c-5.4 6.5-8.4 13.9-8.2 21" fill="#fff"/><path d="m300.2 409.2a5 5 0 0 1 1.3-3.4c.3-.3.3-1-.8-.5a28.77 28.77 0 0 0 -4.9 3.3c-.3.4-.1.6.4.5 1.2-.2 3.1-.4 4 .1" fill="#fff"/><path d="m155.2 418.4c-.2-.4-.7-2.1 2.2-3.9.6-.4.9-1.2-.5-1-3.6.6-5.1 3.1-6.5 5.9-.4.8-.2 1.9.9 1.4a8.9 8.9 0 0 1 3.3-1.2c1 0 .8-.8.6-1.2" fill="#fff"/><path d="m136.7 418.2a10.13 10.13 0 0 1 3.1-4.9 2.69 2.69 0 0 0 .8-1.3c.2-.5.2-1.1-1.1-.4-1.5.8-5.2 2.9-5.2 7.6 0 .6 1.9 1.8 2.4-1" fill="#fff"/><path d="m171 414.8a9.56 9.56 0 0 0 -3.8 5.8c-.1.6.4 1.4 1.4.9a5.84 5.84 0 0 1 2.1-.9c.3 0 .5-.4.3-1a4.6 4.6 0 0 1 1-4.1c.4-.5-.4-1.3-1-.7" fill="#fff"/><path d="m420.7 421.5a5.34 5.34 0 0 1 -.4-4.8c-2.6 1.1-4.5 2.3-5.6 4.8 1.3-.7 4.1-1.2 6 0" fill="#fff"/><path d="m389.1 414.4a4.41 4.41 0 0 1 2.6-3.3c-3.6-.8-7.6.7-8.9 4 1.9-.9 3.4-1 6.3-.7" fill="#fff"/><path d="m314.2 408.9a3.61 3.61 0 0 0 .7-1.9 2.75 2.75 0 0 1 1.5-2.1c.7-.4 0-.8-.9-.4a16 16 0 0 0 -4.7 3.1 2.4 2.4 0 0 0 -.8 1.7c0 .4.4.3.8.1.3-.4 1.5-1 3.4-.5" fill="#fff"/><path d="m162.7 366.7c-.3 4.4-.7 8.1-1.2 11.6 5.7-5.1 5.7-31.4 5.4-44-.2-12 2.4-28.3 3.7-35.9.5-2.7 1.2-5.9 1.7-7.6a31.32 31.32 0 0 0 1.3-5.7c.3-2.1-.2-2-.8-1.1-.7 1.2-1.5 2.7-3.2 6.1-3.9 14.1-5.5 30.8-6 43-.3 9.3-.2 22.2-.9 33.6" fill="#fff"/><path d="m171.5 428.6a1.1 1.1 0 1 0 -1.1 1.1 1.11 1.11 0 0 0 1.1-1.1" fill="#f89728"/><path d="m152.6 428.2a1.1 1.1 0 1 0 -1.1 1.1 1.11 1.11 0 0 0 1.1-1.1" fill="#f89728"/><path d="m135 428.7a1.16 1.16 0 0 0 -1.2-1.2 1.29 1.29 0 0 0 -1.2 1.2 1.2 1.2 0 1 0 2.4 0" fill="#f89728"/><path d="m282.4 415.4a1.1 1.1 0 1 0 -1.1 1.1 1.11 1.11 0 0 0 1.1-1.1" fill="#f89728"/><path d="m295.9 416.9a.82.82 0 0 0 -.8-.9c-.4 0-1.3.6-1.3 1.2a1.1 1.1 0 0 0 .9 1.1 1.75 1.75 0 0 0 1.2-1.4" fill="#f89728"/><path d="m311.3 417.1a.79.79 0 0 0 -.8-.8 1.1 1.1 0 0 0 -1.1.9.92.92 0 0 0 1 .8.9.9 0 0 0 .9-.9" fill="#f89728"/><path d="m385.1 422.8a1.21 1.21 0 0 1 -1.5.1c-.3-.3-.1-.8.4-1.3s1.1-.5 1.4-.2.2 1-.3 1.4" fill="#f89728"/><path d="m400.7 426.3c-.5.5-1.2.6-1.5.2s-.1-.9.4-1.4 1.2-.7 1.5-.3a1.08 1.08 0 0 1 -.4 1.5" fill="#f89728"/><path d="m415.7 429.3c-.5.5-1.1.5-1.4.1a1 1 0 0 1 .2-1.4c.5-.5 1.1-.5 1.4-.1s.3.9-.2 1.4" fill="#f89728"/><path d="m222.9 170.1c-2.7 3.6-5.8 6.9-4.8 20.8-1.2-3.5-3.3-10.2 1.1-21.5l-3.5 1.9c-2 5.7-5.7 15.9-1.1 26.1.4.9.8 1.2 1.4 1 5.1-1.5 8.9-7.3 8.7-14.4a21.22 21.22 0 0 1 3.3-11.4c-1.4-.6-3.7-1.7-5.1-2.5" fill="#ef4123"/><path d="m225.2 192.2a26.07 26.07 0 0 1 -1.2 8.3c-1 3-3.1 7.7-7.5 10.5-2.2 1.4-4.2 1.3-6-.4a18.08 18.08 0 0 1 -5.9-9.8c-.2-.7-.4-3.1.9-4.1.6-.5 1.5-.7 2.5.4a8.53 8.53 0 0 0 4.1 3 7.55 7.55 0 0 0 6.6-.8 16.76 16.76 0 0 0 4.2-4.2c1.1-1.7 1.5-2.4 2.3-2.9" fill="#ef4123"/><path d="m204.2 195.6a5.31 5.31 0 0 1 1.3-1.3c1.5-1 2.1-.7 3.2.3a7.85 7.85 0 0 0 3.2 1.5 23.34 23.34 0 0 1 -1.3-9.2c-1.9-1.4-3.4-3.9-3.4-10 0-1.2-.6-1.9-2.1-2-.9 0-2.1-.1-2.1-.1a27.38 27.38 0 0 1 -.2 11c-.6 3.2-1 7.3 1.4 9.8m12.1-45.4c1.5 1.5 3.2 3.3 4.1 4.2 1.3-1.2 2.6-2.6 4.1-4.2-1.2-1.2-1.5-1.6-.6-2.6a1.78 1.78 0 0 1 3 .2 23.85 23.85 0 0 0 3.2-3.8c-2.1-.3-6.6-.4-9.8 2.2-1-1.5-4.5-2.3-7.3-2a6.47 6.47 0 0 0 -2 .4.47.47 0 0 0 .1.6c.6.6 1.5 1.6 2.6 2.7a1.82 1.82 0 0 1 3-.2c1.1.8.7 1.5-.4 2.5m50.4-24.9a11.22 11.22 0 0 0 .8-2.6 23.65 23.65 0 0 1 -8.5 5.1c-.1 1.1-.2 2.4-.2 3.7 3.6-1 6.5-3.1 7.9-6.2m-7.4.1c4.5-2 8.9-4.8 8.3-12.3-2.5 1.7-5.7 4.3-7.1 7.8a14.83 14.83 0 0 0 -1.2 4.5m.8 17.7c-1.2-1.1-3-1.7-3.7-.2a22.66 22.66 0 0 1 -5.1 7c4.1 1.3 9.2 5.6 11.9 9.7s5.4 8.3 6.5 11.5 3.9 4.4 7.5 2.3 5.3-5.4 5.2-7.9c-1.2.1-5.7.3-10.8-6a62.78 62.78 0 0 1 -5.8-9.3 31.17 31.17 0 0 0 -5.7-7.1m-27.4 55.4c4.7-1.8 8.1-5.6 6.1-14.4a76.42 76.42 0 0 1 -1.6-9.1l-3.2-.1c.4 4.6 2.3 11.7-7.3 13.3a26.15 26.15 0 0 1 -.3 11.8 38.25 38.25 0 0 0 6.3-1.5m-59.5-76.3a15.83 15.83 0 0 0 .9 3.1c1.1 3.1 5.2 5.2 8.2 6.2-.1-1.5-.3-3-.5-4.2-2.2-.6-6.3-2.2-8.6-5.1m85 89.2c-7.8-7.2-8.6-17.7-8.9-24.7s-1.3-15-5.7-18.6c-2.6 2.6-3 7.3-1.7 13.8s2.4 13.9-4.1 18.5c-3.5 2.4-5.6 3.7-12.2 4.4a5.7 5.7 0 0 1 -1.3.1 26.46 26.46 0 0 1 -4.9 6.9c-2.1 2.2-4.4 5-9.5 2.2s-6.8-8.3-7.4-13.4a6.55 6.55 0 0 1 0-1.4c-4.4-4.2-4.6-7.6-3.8-11.5a37.39 37.39 0 0 0 1-10.3c0-2.3-.2-4.9-1.5-6.5a25.83 25.83 0 0 1 -2.5-4.2 25.68 25.68 0 0 0 -3.6 7.6 61.23 61.23 0 0 0 -1 13.5c.2 10.4-2.1 18-8.6 24.3-9.8 9.6-18.3 19.3-17.6 29.9.4 5.4 3 11.5 9.2 17.2.4.4.8.1.8-.4.8-9.7 2.4-17 8-26.3a39.12 39.12 0 0 1 9-10.2c-7.7 11.8-12.9 34.4-12.8 41.2.3 10.7 5 23.4 17.6 31.1.6.3 1 .1.8-.6-2.1-9.7-10.1-40.7 3.8-56.6a33.44 33.44 0 0 1 3.8-3.8c.6-.5 1 0 .5.8-6.7 10.9-10.8 23.3-4.8 47.1 2.7 10.6 4.2 23-3.8 35.5-.3.5-.3.9.2.8 8.8-2.6 17.4-11.1 18.3-30.5a.43.43 0 0 1 .8-.2c1.9 3.1 2.9 7.6 3.4 17.1 0 .5.3.8.6.4 11.5-16.3 5.3-34 4.1-37.3-.2-.6.4-1.1.8-.5 3.9 5 5.3 13.2 5.4 22.1 0 .5.5.6.7.3 4.9-4.9 10.3-16.6.4-36-4.3-8.5-5.1-15.2-4-19.4.2-.8 1.1-.7 1.1-.1 0 7.7 1.8 11.8 5.6 17.8 4.1 6.6 10.6 12.3 7.1 27.2 5.2-2 11.5-9.6 12.1-21.8.3-6.9-1.4-14.5-7.5-23a19.86 19.86 0 0 1 -3.9-14.8c.1-.6.5-.6.7-.2 1.4 3.6 5.4 8.1 10.3 12.2 5.9 5 12.9 15.1 11.3 27.3 5.7-5 20.5-22-6.3-47m18.1-12.3c5 2.8 15.9 3.4 17.1-7.9-2.5 2.2-9.1 5.8-17.8-1.6-6.1-5.2-10-13.4-11.4-17.2-2.3-6.2-8.5-16.3-18.5-16.7 0 1.2 0 4-.2 6.1 3.4 2.2 7.2 8.7 8.1 20.4.7 8.8.6 13 2 16.6 1.2 3.1 3.6 5.8 8.6 10.6 8.5 8.4 14.9 15.2 16.6 26.1 2.9-2.6 8.8-11 2.3-23.5-2.6-5-7.3-10-10.3-13.1a3.89 3.89 0 0 1 3.5.2m-18 60.3c1.2-1.2 4.6-4.8-.8-12.2a36.73 36.73 0 0 1 .8 12.2m-93.9-86.9c4.8 2.2 8.9-1.5 10.1-4.5a58 58 0 0 1 5.8-11.7c2-3.3 4.3-5.5 6.4-6.3.9-.3 1.5-1 .4-1.9a10.62 10.62 0 0 1 -2.8-4.9c-.2-1.1-1.1-1-1.8-.7-3.5 1.6-7.2 6.8-9.2 11.3s-3 6.1-5.9 9.2c-3.2 3.4-6.5 3.7-8.6 2.9.4 1.4.7 4.4 5.6 6.6m16.7-47.8a21.06 21.06 0 0 0 -8.2-11.2c0 4.9 4.5 9.8 8.2 11.2m-5.7 87.4c11.2-11.8 10.6-17.5 11.4-28.9.8-11.6 4-18.8 8.3-21.5a20.81 20.81 0 0 1 -.3-6.5 14.24 14.24 0 0 0 -9.9 4.4c-2.8 3-4.6 6.6-6.7 10.8-3.6 7-6.5 13.2-12.3 18a19.06 19.06 0 0 1 -19.2 3.5c4.4 12.8 16.3 9.9 21.9 4.6.1 3-1.4 5.2-2.9 7.3s-2.9 4.1-4.2 5c-3.4 2.4-4.2 3.3-5.2 6.4-3.6 10.9 1.7 16 3.9 17.8 2.3-11.6 9.4-14.9 15.2-20.9m53.8-89.6c-.5-1.8.3-4-.2-6.2-.1-.3-.6-.4-.7-.1a80 80 0 0 1 -4.6 9.4c1.5 4 2.7 6.4 4.5 11.3.3.9.6 1.9 1 2.9-4.6-.1-6.4 1.4-7.4 2.1a3.27 3.27 0 0 1 -2.9 0 13.52 13.52 0 0 0 -6.5-1.3c1.5-4.8 3.2-9.9 4.8-14a19.67 19.67 0 0 1 -3-5.3 16 16 0 0 0 -2.3-4.9c-.3-.4-.7-.3-.8.2a4.09 4.09 0 0 0 .2 2.1 7.2 7.2 0 0 1 .1 4.1 17.1 17.1 0 0 1 -13.1-2.5.9.9 0 0 0 -1.1 0c-1.7.9-3.7 1.8-5 2.4-.5.2-.5.5-.4.7a12.33 12.33 0 0 1 1.5 3.5c.1.3.5.5.9 0s2.4-3.7 2.4-3.7a17.26 17.26 0 0 0 2.8 1.9c-4.3 5-2.5 10 .3 11.2 3.2 1.4 7.5-.6 7.1-8.8a20.55 20.55 0 0 0 5.8 0s-3.4 9.4-5.3 14.6c-1 2.8-1.1 4.7.2 5.9 2.9 2.6 10.3 9.1 10.3 9.1v6.2a3.2 3.2 0 0 1 -1.1 2.8 29.52 29.52 0 0 1 -6.7 3.6c-8.7 2.5-9.6-4.2-10.4-10.3-.7-5 1.3-9.7 3.2-12.6.3-.5 0-.9-.5-.8a16.36 16.36 0 0 0 -5.6 3c-9-6.7-9.4-9.7-9.5-21s-6.7-13.8-10.8-15.1c6.3-1.1 10.6 1.4 13.1 4.6a1.24 1.24 0 0 0 1.7.1c6.8-4.8 14.5-6.4 18.3-6.4a23.66 23.66 0 0 1 11.1 2.4 17.6 17.6 0 0 1 9.5-2.8c8.5 0 15.1 3.4 21.1 7.2a17.89 17.89 0 0 1 11.4-5.1c-8.2 8.5-10.2 12.5-9.6 19 .6 6.2.4 10.9-3.3 13.9-1.9 1.5-3.4 2.3-4.7 2.1a25.82 25.82 0 0 1 -6.8-1.9s-1 0-.5.8a17.16 17.16 0 0 1 3.2 12.6 22.08 22.08 0 0 1 -2.9 8.8 3 3 0 0 1 -3.1 1.5 11.18 11.18 0 0 1 -3.4-.5 33 33 0 0 1 -7.8-3.6 2.49 2.49 0 0 1 -1.3-2.3v-4.4a4.36 4.36 0 0 1 1.5-3c1.7-1.6 7.2-5.7 10.1-8.4 1.3-1.2 1.3-2.9.3-5.7a94.71 94.71 0 0 0 -7-15.2 11.75 11.75 0 0 0 7 .8c-.4 8.2 4 10.2 7.1 8.8 2.8-1.3 4.6-6.2.3-11.2a23.08 23.08 0 0 0 2.8-1.9s2.1 3.2 2.4 3.7.8.3.9 0a12.33 12.33 0 0 1 1.5-3.5c.1-.2.1-.5-.4-.7-1.2-.6-3.3-1.5-5-2.4a1.08 1.08 0 0 0 -1.1 0 17.55 17.55 0 0 1 -13.1 2.5z" fill="#fd0"/><path d="m201.4 130.4c2.2.4 2.9-1.1 2.6-3.6-.7-.2-1.4-.4-2.2-.7a3 3 0 0 0 -1.2 1.7c-.2.8-.3 2.3.8 2.6" fill="#fff"/><path d="m215.2 179.1a14.21 14.21 0 0 0 -2.2 1.3 28.27 28.27 0 0 0 1.5 17c.4.9.8 1.2 1.4 1l.9-.3c-3-8.6-2.6-14.1-1.6-19" fill="#f89728"/><path d="m222.9 170.1a19.93 19.93 0 0 0 -4.1 7.6 7.55 7.55 0 0 1 2.2 1.1c3.3 2.4 2.9 14.5-6.3 18.9.4.6.7.8 1.3.7 5.1-1.5 8.9-7.3 8.7-14.4a21.22 21.22 0 0 1 3.3-11.4c-1.4-.6-3.7-1.7-5.1-2.5" fill="#ba272b"/><path d="m215.7 171.3a54.22 54.22 0 0 0 -2.2 7.3 7.56 7.56 0 0 1 3.5-1.1 38.21 38.21 0 0 1 2.3-8z" fill="#ba272b"/><path d="m207.8 197a1.65 1.65 0 0 0 -2.3-.3c-1.2.9-1 3.4-.9 4.1a17.07 17.07 0 0 0 3.8 7.5c-2.1-7.7-1.8-9.8-.6-11.3" fill="#f89728"/><path d="m206.4 205.5a17.72 17.72 0 0 0 4.1 5 4.56 4.56 0 0 0 6 .4 17.34 17.34 0 0 0 5.5-6c-7 4.8-11.6 3.2-15.6.6" fill="#ba272b"/><path d="m240.3 127.8a3.82 3.82 0 0 0 -1.2-1.7 18.66 18.66 0 0 1 -2.2.7c-.3 2.5.4 4 2.6 3.6 1.1-.3 1-1.8.8-2.6" fill="#fff"/><path d="m164.4 172.5c4.8 2.2 8.9-1.5 10.1-4.5a58 58 0 0 1 5.8-11.7c2-3.3 4.3-5.5 6.4-6.3.9-.3 1.5-1 .4-1.9a6 6 0 0 1 -.8-.8 10 10 0 0 0 -4.5 2.2 17.24 17.24 0 0 0 -4.5 6 3.54 3.54 0 0 1 -5.3 1.1 26.64 26.64 0 0 1 -4.5 6.4c-3.2 3.4-6.5 3.7-8.5 2.9.2 1.4.5 4.4 5.4 6.6" fill="#dfb120"/><path d="m271.5 159.5a62.78 62.78 0 0 1 -5.8-9.3 24.47 24.47 0 0 0 -5.6-7.1c-1.2-1.1-3-1.7-3.7-.2a22.66 22.66 0 0 1 -5.1 7c4.1 1.3 9.2 5.6 11.9 9.7s5.4 8.3 6.5 11.5 3.9 4.4 7.5 2.3 5.3-5.4 5.2-7.9c-1.3.1-5.8.3-10.9-6" fill="#dfb120"/><path d="m175.4 212.1c11.2-11.8 10.6-17.5 11.4-28.9.8-11.6 4-18.8 8.3-21.5-.2-1-.3-1.8-.4-2.6-3 1-6.5 3.9-8.7 7-2.4 3.5-4.5 6.7-5.7 10.2-1.1 3.2-3.6 3-6.1 1.7a45.68 45.68 0 0 1 -4.7 6.8 4.77 4.77 0 0 0 6.1 1.6c-2.7 3.1-8.5 9.7-13.5 4.6a18.85 18.85 0 0 1 -15.4 1c4.4 12.8 16.3 9.9 21.9 4.6.1 3-1.4 5.2-2.9 7.3s-2.9 4.1-4.2 5c-3.4 2.4-4.2 3.3-5.2 6.4-3.6 10.9 1.7 16 3.9 17.8 2.3-11.7 9.4-15 15.2-21" fill="#dfb120"/><path d="m187.8 234.5c-.1-.9-.5-1.2-.9-1.3-1.3 3.2-2.4 6.5-3.4 9.8 3.4 8.6 9 9.3 11.4 9.2a42.92 42.92 0 0 1 2.2-7.2 10 10 0 0 1 -5.8-1.9c-2.7-2.3-3.1-4-3.5-8.6" fill="#dfb120"/><path d="m185.5 229.4c-7.7-.5-8.9-6.6-8.9-10.9a78.11 78.11 0 0 0 -5.3 6.4c3.2 8 6.5 9.8 10.9 9.5a14 14 0 0 1 1-1.6 33.38 33.38 0 0 1 2.3-3.4" fill="#dfb120"/><path d="m167.7 230.9a21.71 21.71 0 0 0 -2.5 11.3c.4 5.4 3 11.5 9.2 17.2.4.4.8.2.8-.4.6-7.3 1.7-13.2 4.5-19.5-7.1.6-10.8-5.3-12-8.6" fill="#dfb120"/><path d="m226 267.1c3.8 5 5.2 13.1 5.3 21.9 0 .5.5.6.8.3 4.5-4.5 9.4-14.8 2.4-31.6a9.62 9.62 0 0 1 -8.5 9.4" fill="#dfb120"/><path d="m234.3 250.2c.3.4.5.9.8 1.3 4.1 6.6 10.6 12.3 7.1 27.2 5.2-2 11.5-9.6 12.1-21.8a32.37 32.37 0 0 0 -3.9-17.1c-.5 7.1-6.8 11.1-16.1 10.4" fill="#dfb120"/><path d="m227.2 275.6c-1.5 3-4 5.2-5.8 5.2-2.9 0-4.6-2-5.7-8.7a74.46 74.46 0 0 1 -1-11.5 22 22 0 0 1 .9-7.3c.2-1-.9-1.2-1.2-.6a15.77 15.77 0 0 0 -1.2 4.5c-.8 5.3-2.5 9-6.2 9.4-3.2.4-6.7-4.6-8.5-7.1a68.82 68.82 0 0 0 .8 11.5c5.2 3.5 9.8 3.8 13.4-.1 1.2 3 2 7.7-.7 10-3.3 2.7-7.8 1.4-10.6.2a1.27 1.27 0 0 1 .1.6c2.7 10.6 4.2 23-3.8 35.5-.3.5-.3.9.2.8 8.8-2.6 17.4-11.1 18.3-30.5a.43.43 0 0 1 .8-.2c1.9 3.1 2.9 7.6 3.4 17.1 0 .5.3.8.6.4a38.72 38.72 0 0 0 6.2-29.2" fill="#dfb120"/><path d="m198 294.2c-1.4-6.6-5.6-22.9-3.8-37.6-7 .4-10.8-4.2-12.5-6.8-1.5 6.1-2.3 11.3-2.2 14 .3 10.7 5 23.4 17.6 31.1.6.2 1.1 0 .9-.7" fill="#dfb120"/><path d="m267.5 122.7a23.65 23.65 0 0 1 -8.5 5.1c-.1 1.1-.2 2.4-.2 3.7 3.7-1 6.6-3 7.9-6.1a27.59 27.59 0 0 0 .8-2.7" fill="#dfb120"/><path d="m266.1 220.1c-.2 3.9-1.7 10.6-9.4 13.7 5.1 5.5 9.9 14.3 8.6 24.6 4.3-4.4 16.3-18.1.8-38.3" fill="#dfb120"/><path d="m210.9 131.5c.9-2.4 1.5-4.2 1.5-4.2a20.55 20.55 0 0 1 -5.8 0 12.93 12.93 0 0 1 -.3 4.1 23.75 23.75 0 0 0 4.6.1" fill="#dfb120"/><path d="m260.5 120.9a22.4 22.4 0 0 0 -1.2 4.5c4.5-2 8.9-4.8 8.3-12.3-2.5 1.7-5.7 4.3-7.1 7.8" fill="#dfb120"/><path d="m225.5 140.1a18.63 18.63 0 0 1 3.6-.3 24.69 24.69 0 0 0 -1-2.9c-1.8-4.9-3-7.3-4.5-11.3 2.3-3.7 3.2-6.5 4.6-9.4.1-.2.3-.2.5-.1a13.12 13.12 0 0 0 -.3-2.7 6.49 6.49 0 0 0 -2 2.5c-.7 1.3-2.8 5.4-4.6 8.4a3.25 3.25 0 0 0 -.4 3.5c.7 1.9 3.1 9 4.1 12.3" fill="#dfb120"/><path d="m265.1 218.9c-.9-1.1-1.9-2.3-3-3.5a13.27 13.27 0 0 1 -3.5 8.9 14.56 14.56 0 0 1 -7.6 4.2c.8.8 1.7 1.6 2.6 2.4a12.86 12.86 0 0 0 6.1-3 18.27 18.27 0 0 0 5.4-9" fill="#dfb120"/><path d="m283.2 212.1c-2.6-5-7.3-10-10.3-13.1a3.26 3.26 0 0 1 3.4.1c5 2.8 15.9 3.4 17.1-7.9-2.5 2.2-9.1 5.8-17.8-1.6-6.1-5.3-10-13.4-11.4-17.2-2.3-6.2-8.5-16.2-18.5-16.7 0 1.2 0 4-.2 6.1 3.4 2.2 7.2 8.7 8.1 20.4.7 8.8.6 13 2 16.6 1.2 3.1 3.6 5.8 8.6 10.7 8.5 8.4 14.9 15.2 16.6 26.1 3.1-2.6 9-10.9 2.4-23.5" fill="#dfb120"/><path d="m249.2 237.4c-.7-1.2-1.5-2.3-2.3-3.5a25.6 25.6 0 0 1 -1.6-2.5c-4.7 8.5-11.8 9-15.4 6.9a23.6 23.6 0 0 0 1.8 6.7c6.8 1.4 12.8-.8 17.5-7.6" fill="#dfb120"/><path d="m248.8 124a18.16 18.16 0 0 0 -1.1 2.8c-.1.3-.5.5-.9 0s-2.4-3.7-2.4-3.7a17.26 17.26 0 0 1 -2.8 1.9c4.3 5 2.5 10-.3 11.2-3.2 1.4-7.5-.6-7.1-8.8a12 12 0 0 1 -7-.8 98.94 98.94 0 0 1 7 15.2c1 2.8 1 4.5-.3 5.7-.2.2-.4.3-.6.5 1.9 1.7 4.2 4.2 4.4 6.3.3 2.6.1 5.5-5.1 8.1-4 2-8.6-2-10-5a3.08 3.08 0 0 0 -.3 1.3c-.1 1.8 0 3.5 0 4.4a2.38 2.38 0 0 0 1.3 2.3 29.48 29.48 0 0 0 7.8 3.6 11.61 11.61 0 0 0 3.4.5 3.11 3.11 0 0 0 3.1-1.5 22.08 22.08 0 0 0 2.9-8.8 17 17 0 0 0 -3.2-12.6c-.5-.8.5-.8.5-.8a30.77 30.77 0 0 0 6.8 1.9c1.3.1 2.8-.6 4.7-2.1 3.7-3 3.9-7.7 3.3-13.9a22.84 22.84 0 0 1 0-3.7 9.88 9.88 0 0 0 -4.1-4" fill="#dfb120"/><path d="m207.4 180.4a35.29 35.29 0 0 1 -.2-3.6c0-1.2-.6-1.9-2.1-2-.9 0-2.1-.1-2.1-.1a21.71 21.71 0 0 1 .4 6.6 15.27 15.27 0 0 0 4-.9" fill="#dfb120"/><path d="m226 147a1.89 1.89 0 0 1 1 .8 23.85 23.85 0 0 0 3.2-3.8c-.5-.1-1.2-.1-1.9-.2a6.66 6.66 0 0 1 -2.3 3.2" fill="#dfb120"/><path d="m217.4 148.6a2.23 2.23 0 0 1 -1 1.5c1.5 1.5 3.2 3.3 4.1 4.2 1.2-1.2 2.5-2.6 4.1-4.2a8.18 8.18 0 0 1 -1-1.1c-.9.7-1.8 1.5-2.9 2.5 0 0-2.1-1.8-3.3-2.9" fill="#dfb120"/><path d="m216.5 165.9a3.33 3.33 0 0 0 1.1-2.8v-6.2s-1.1-1-2.7-2.4a11.75 11.75 0 0 1 -3.5 8.1c-3.5 3.1-7.6 2.8-11.1 2 1.1 3.9 3.3 6.7 9.4 5a29.56 29.56 0 0 0 6.8-3.7" fill="#dfb120"/><path d="m194.8 125.6a13.77 13.77 0 0 0 2.6 2.2 11 11 0 0 1 1.9-2.9 23.08 23.08 0 0 1 -2.8-1.9s-1 1.5-1.7 2.6" fill="#dfb120"/><path d="m202.8 304.5a37.48 37.48 0 0 1 -5.2 12.6c-.3.5-.3.9.2.8 5.6-1.7 11.2-5.8 14.7-13.6-4.3 1.9-7.5 1.4-9.7.2" fill="#bb7727"/><path d="m216.3 284.8.8 2.5a10.91 10.91 0 0 1 .6 1.1 10.43 10.43 0 0 0 9.9-.7c.1-1.1.2-2.2.3-3.2a9.07 9.07 0 0 1 -11.6.3" fill="#bb7727"/><path d="m165.4 243.7c.7 5 3.4 10.5 9 15.6.4.4.8.1.8-.4a85.28 85.28 0 0 1 1.3-9.4c-4.4 2.1-8.4-2-11.1-5.8" fill="#bb7727"/><path d="m237.8 269.8c-3 4.6-6.1 5.9-7.9 6.2a58.88 58.88 0 0 1 1.4 13c0 .5.4.6.7.3 3.4-3.3 6.9-9.7 5.8-19.5" fill="#bb7727"/><path d="m239 257.3c3.2 4.9 5.7 10.9 3.3 21.4 5.2-2 11.5-9.6 12.1-21.8a33.08 33.08 0 0 0 -.6-8.2c-3.5 9-9.9 9.7-14.8 8.6" fill="#bb7727"/><path d="m275.7 189.6a19.85 19.85 0 0 1 -2.1-2 5.12 5.12 0 0 1 -4.4 2.6c-1.2 0-1.4-.4-1.7-1.1-.6-1.4-1.3-3-2.2-5.1a7.29 7.29 0 0 0 4.6-1 47.93 47.93 0 0 1 -3.3-5.6 3.63 3.63 0 0 1 -2.9.8c-.8-.1-1-.4-1.3-1.4-2.5-6.4-7.4-14.7-16.5-16.9 0 .6-.1 1.3-.1 1.9 3.4 2.2 7.2 8.7 8.1 20.4.7 8.8.6 13 2 16.6 1.2 3.1 3.6 5.8 8.6 10.6 8.5 8.4 14.9 15.2 16.6 26.1 2.9-2.6 8.8-11 2.3-23.5a4.67 4.67 0 0 1 -.5-1c-1.5 5.9-4.1 5.3-5.2 5.3a47.84 47.84 0 0 0 -4.3-4.9c3.8-.7 5-3.8 5.1-6.6a36.62 36.62 0 0 0 -3.1-3.5c-1.3 4.2-3.8 6-6.3 6.7-4.9-3.8-8.4-7.1-10.3-11.3-1.3-2.9-1.8-6.6-2.1-11.7-.8-13.8-3.4-16.9-5.6-20.3 5 2.9 8.7 9.9 9.9 13.8 2.2 7.2 3.5 10.2 6.2 14.1a21.17 21.17 0 0 0 6.3 6 3.57 3.57 0 0 1 2.9.4c5 2.8 15.9 3.4 17.1-7.9-2.5 2.4-9.2 6-17.8-1.5" fill="#bb7727"/><path d="m226.6 292.6a11.68 11.68 0 0 1 -7.3 1.3 92.47 92.47 0 0 1 1.1 10.4c0 .5.3.8.6.4a36.52 36.52 0 0 0 5.6-12.1" fill="#bb7727"/><path d="m156.7 214c-.1.4-.3.8-.4 1.2-3.6 10.9 1.7 16 3.9 17.8a25.32 25.32 0 0 1 4.3-10.2c-4.8-.6-6.8-3.3-7.8-8.8" fill="#bb7727"/><path d="m166.9 163.4c2.5 4.7 5.6 4.7 7.7 4.3l.9-2.1c-3 .9-4.8-1-6.3-4.6-.5.6-1 1.2-1.7 1.9a1 1 0 0 0 -.6.5" fill="#bb7727"/><path d="m203.4 292.3a42.37 42.37 0 0 1 .2 6.2 11.41 11.41 0 0 0 11.3-.9 44.62 44.62 0 0 0 1.1-6.7 14.79 14.79 0 0 1 -12.6 1.4" fill="#bb7727"/><path d="m157.3 201.1c-4.2-3.7-3.8-6-3-7.9a18.06 18.06 0 0 1 -7.6-1.2c2.2 6.5 6.4 8.9 10.6 9.1" fill="#bb7727"/><path d="m273 233.6c-1.7 6.5-5.7 8.2-10.5 8.8a28.72 28.72 0 0 1 2.7 15.9c3.3-3.2 11-11.9 7.8-24.7" fill="#bb7727"/><path d="m197.2 294.8c.6.3 1 .1.8-.6a185.39 185.39 0 0 1 -3.9-22.3c-5.1 2.9-10.7.5-14.6-7.3.5 10.5 5.3 22.7 17.7 30.2" fill="#bb7727"/><path d="m258.3 259.4c1.2-1.2 4.6-4.8-.8-12.2a36.89 36.89 0 0 1 .8 12.2" fill="#bb7727"/><path d="m164.4 172.5a7 7 0 0 0 8.7-2.3c-.5-.6-.8-.3-1.1 0-1.7 1.4-3.1 1.7-4.8 1-2.5-1-3.4-3.8-3.7-5.5a6.64 6.64 0 0 1 -4.6.1c.3 1.5.6 4.5 5.5 6.7" fill="#bb7727"/><path d="m168.4 218.6c1.2-1.2 2.5-2.3 3.7-3.4-4.9-.5-7.3-3.8-7.8-9.4a18.82 18.82 0 0 1 -2.9 3.2c-.2.1-.4.3-.6.4 0 6.1 2.8 8.4 7.6 9.2" fill="#bb7727"/><path d="m266.8 152.1c-1.6 2.2-3.4 2.1-3.8 1.6a17.84 17.84 0 0 1 -1.4-1.4 80.23 80.23 0 0 0 -7.8-5.2 16.32 16.32 0 0 1 -2.5 2.7c4.1 1.3 9.2 5.6 11.9 9.7s5.4 8.3 6.5 11.5 3.9 4.4 7.5 2.3 5.3-5.4 5.2-7.9c-1.2.1-5.5.3-10.5-5.7-2.1 1.5-4.2 1-5.4-.8a8.79 8.79 0 0 1 -.6-1 11.37 11.37 0 0 0 3.5-1.7 20.14 20.14 0 0 1 -2.6-4.1" fill="#bb7727"/><path d="m258.7 131.5a19.43 19.43 0 0 0 3.6-1.5c0-1.3 0-2.6.1-3.7a19.28 19.28 0 0 1 -3.5 1.5c-.1 1.1-.1 2.3-.2 3.7" fill="#b75422"/><path d="m245.8 155.7c0 1.2 0 4-.2 6.1a12.74 12.74 0 0 1 3 3.1 25.87 25.87 0 0 0 1.6-8.3 16.4 16.4 0 0 0 -4.4-.9" fill="#b75422"/><path d="m256.3 142.9a22.66 22.66 0 0 1 -5.1 7 13 13 0 0 1 3.2 1.5 17.07 17.07 0 0 0 5.7-8.3c-1.3-1.1-3.1-1.8-3.8-.2" fill="#b75422"/><path d="m259.3 125.4a23.13 23.13 0 0 0 3.5-1.8c.7-4.9 2.4-7.4 4.9-9.2a6.15 6.15 0 0 0 -.1-1.3c-2.5 1.7-5.7 4.3-7.1 7.8a14.83 14.83 0 0 0 -1.2 4.5" fill="#b75422"/><path d="m228.5 199.6a24.08 24.08 0 0 0 -.3-11.8c-.5.1-1 .3-1.6.4a26.15 26.15 0 0 1 -.3 11.8 17 17 0 0 0 2.2-.4" fill="#b75422"/><path d="m227.3 126.5a98.94 98.94 0 0 1 7 15.2 7.94 7.94 0 0 1 .7 3.7 6.63 6.63 0 0 0 .6-5.3 74 74 0 0 0 -4.6-11.2 2.15 2.15 0 0 1 -.3-1.5 9.72 9.72 0 0 1 -3.4-.9" fill="#b75422"/><path d="m226.8 207.4c7.7-.6 12.9-2.1 15.7-4.7 3.2-2.9 3.9-8.4 3.7-12.7a101.37 101.37 0 0 0 -1.2-12.7c-.6-3.6-.2-5.5.6-7.2a8.6 8.6 0 0 0 -1.8-2c-2.6 2.6-3 7.3-1.7 13.8s2.4 13.9-4.1 18.5c-3.5 2.4-5.6 3.7-12.2 4.4a5.7 5.7 0 0 1 -1.3.1 26.46 26.46 0 0 1 -4.9 6.9c-.6.6-1.1 1.2-1.8 1.8 4.4.3 6.8-3.6 9-6.2" fill="#b75422"/><path d="m205.2 174.8c-.9 0-2.1-.1-2.1-.1a12.4 12.4 0 0 1 .4 2.2 12.94 12.94 0 0 0 3.7-.6 2 2 0 0 0 -2-1.5" fill="#b75422"/><path d="m233.9 174.9a34 34 0 0 1 .4 5.7 7.32 7.32 0 0 0 4 1.3c-.5-2.6-.8-4.4-1.1-6.9z" fill="#b75422"/><path d="m213.2 144.1a6.47 6.47 0 0 0 -2 .4.47.47 0 0 0 .1.6.35.35 0 0 1 .1.2c1.9-.1 5.2-.1 6.4.7 1 .7 1.4-.1 1.2-.8a11 11 0 0 0 -5.8-1.1" fill="#fff"/><path d="m218.3 124.4c-.4-.9-4.3-7.8-4.6-8.3s-.4-1.1-.9-1-.6.7-.6 1.9a15.71 15.71 0 0 1 1.8 4.2 19.67 19.67 0 0 0 3 5.3c-1.6 4.1-3.3 9.2-4.8 14.1a18.08 18.08 0 0 1 5.8.9 10.36 10.36 0 0 1 1.6.1 1.11 1.11 0 0 0 1-1.9 14.48 14.48 0 0 0 -5-1.2c1-4.5 2.4-9.1 2.9-10.7a3.85 3.85 0 0 0 -.2-3.4" fill="#fff"/><path d="m205.1 164.5c-4.7-1.1-2.9-8.5-1.5-12.4.4-.9 1.3-2.5 1-4a.92.92 0 0 0 -1.5-.5 11 11 0 0 0 -2.2 2.2 17.4 17.4 0 0 0 -1.5 9.5c.2 1.3.4 2.6.6 3.8 1.5 3.9 4.6 2.1 5.1 1.4" fill="#fff"/><path d="m187.9 224.7s1.5-1.9 2-2.6c-7-3.2-6.3-7.7-4.2-11.8.3-.5-.1-.7-.6-.7a28.4 28.4 0 0 1 -2.4 2.6c-.7.6-1.3 1.3-1.9 1.9-.7 5.7 1.4 9.5 7.1 10.6" fill="#fff"/><path d="m211.7 257.2c.4-1.3.8-2.2 1.2-3.5a15.56 15.56 0 0 0 .7-3.2c-1.5 2.7-2.9 4.7-6.9 3.1s-3.9-6.3-4-10.5c0-.6-.2-.7-.6-.7a44.79 44.79 0 0 0 -2.8 9.4c1.5 3.5 5.1 8 8.1 8.2a4.23 4.23 0 0 0 4.3-2.8" fill="#fff"/><path d="m194.7 238.4c2.5 2.1 4.4 1 5.3-.1a43.72 43.72 0 0 0 3.1-4.4c-3 2.4-5.3.5-7.3-1.6s-3.7-4.4-2.4-8.5c.4-1.4-.5-1.3-1.5-.7a39.82 39.82 0 0 0 -2.3 4.1 16.4 16.4 0 0 0 5.1 11.2" fill="#fff"/><path d="m146.4 221.9c.4 5.2 2.4 14.6 11.5 19.3-.7 7 .1 17.4 10.1 26.2-1.4 4.9-2.9 10-4.6 16.8a44.51 44.51 0 0 1 -20.5-14.2.77.77 0 0 0 -1.2.9c5 10.9 4.8 22.5-5 31.1.2-3.6.2-5.8-1.1-7.8-2.1-3.4-9-14.6-11.5-19.2a10.59 10.59 0 0 1 -1.3-7.1c.2-1.4-1.4-1.4-1.5-.2-.5 3.5-1.3 7.1-4.7 9.8a21.67 21.67 0 0 0 -4.2-13.1c-3.2-4.6-8.7-12.6-8.1-19.3.1-1-1-1.2-1.2-.3-.5 2.8-1.1 7.7-4.4 10.8a14 14 0 0 0 -2.4-8.5c-1.8-2.5-3.8-6-5.5-8.5.1-3.1 0-9.2 0-11.5 2.5-2 6.1-5.1 7.5-7.2a10.65 10.65 0 0 0 2.1-8.8 17.57 17.57 0 0 1 2.8-12.6c6.9 8.5 24 27.8 43.2 23.4m-42.4 8.6c-.8-1.7-2.1-1.7-2.5-1.2a2.75 2.75 0 0 0 -.4 3.1c3.3 5.1 7.5 9.8 13.6 16.9a150.26 150.26 0 0 0 16.3 16.5c.6.5 2-.1 1.2-.9-7.2-7.2-23.9-25.2-28.2-34.4" fill="#dfb120"/><path d="m75.2 232a8.39 8.39 0 0 1 -5.4.3c-.9 9.9-4.1 22.2-16.7 28.3 5.2 5 11.3 11 15.9 19.5 4.5-6.8 10.6-16 14.4-32.6a106.75 106.75 0 0 0 2.2-22 33.42 33.42 0 0 1 -10.4 6.5" fill="#ef4123"/><path d="m146.9 120.2-7.7-5.3 6.7-24.1-20.2 6.1-7.9-11.4s-8 9.2-12.7 13.8c-2.7 2.6-6.5 2.5-5.1-3.4 2.4-9.9 7.6-32 7.6-32l-15.6 7.2-13.8-23.8-12.2 23.3-14.2-5.8s4.4 22.9 5.2 26.6 1.9 9.4.4 10.2-3.8-.8-6.6-4.2-11-12.1-11-12.1l-6.1 11.8-21-5.7s5.2 21.2 5.3 23.6c-1.8 1.7-8 4.9-8 4.9l36.8 28.1-5.1 15.2 29.2-5.3v8.7c3.7.3 8.9 2.3 14.4 8.9-.1-11.3-.1-17.6-.1-17.6l31.7 5.4-6.2-16.5z" fill="#ef4123"/><path d="m99.8 102.6a4 4 0 0 0 2.2.8 7.45 7.45 0 0 0 5.1-2.3c3.2-3.1 7.7-7.7 10.5-10.9l.3-4.7s-8 9.2-12.7 13.8c-1.3 1.2-2.8 1.8-3.9 1.5z" fill="#f89728"/><path d="m101.2 100.9c-1.2-.3-2-1.8-1.2-5 2.4-9.9 7.6-32 7.6-32l-4.4 5.1c-.9 3.6-3.5 14.9-4.4 19a.31.31 0 0 1 -.1.2 5.07 5.07 0 0 0 -.2.9c-.5 2.3-1.3 7.4-.5 11a4.64 4.64 0 0 0 1.6 2.6z" fill="#ba272b"/><path d="m78.8 230.3a90.1 90.1 0 0 1 -1.5 17c-2.8 12.3-6.7 18.3-13.1 25.2a62.12 62.12 0 0 1 4.9 7.6c4.5-6.8 10.6-16 14.4-32.6a106.75 106.75 0 0 0 2.2-22 43.38 43.38 0 0 1 -6.9 4.8" fill="#ba272b"/><path d="m146.9 120.2-5.9.5-33.9 25.3 5.2 13.8-30.9-5.9s.2 7.6.1 17.7a31 31 0 0 1 3.9 4.1c-.1-11.3-.1-17.6-.1-17.6l31.7 5.4-6.2-16.5z" fill="#ba272b"/><path d="m146.9 120.2-7.7-5.3-5 1.6c2.3 1.3 6.8 4.1 6.8 4.1z" fill="#f89728"/><path d="m139.2 114.9 6.7-24.1-3.7 3.7c-1.3 4.4-3.9 13.7-8 22z" fill="#ba272b"/><path d="m145.9 90.8-20.2 6.1-2.1 4.4c3.2-.5 12.4-4.1 18.6-6.8z" fill="#f89728"/><path d="m125.8 96.9-7.9-11.4-.3 4.7s4 7.2 6 11.1z" fill="#ba272b"/><path d="m107.7 63.9-15.7 7.2-1.3 3.8 12.6-5.9z" fill="#f89728"/><path d="m92 71.1-13.8-23.8-.1 6.2 12.6 21.4z" fill="#ba272b"/><path d="m46.6 159.2 4.8-11.8-36.4-27.7c1.8-1 4.5-2.2 5.9-2.9 1-.5 1-1.5.7-2.6-1.4-5.4-3.1-11.9-4.7-18.8l-4-4.1s5.2 21.2 5.3 23.6c-1.8 1.7-8 4.9-8 4.9l36.8 28.1-5.1 15.2z" fill="#f89728"/><path d="m41.8 163.2 29.3-5.3 3.7-4.2-28.2 5.5z" fill="#ba272b"/><path d="m74.9 167.5-.1-13.8-3.7 4.2v8.7a12.18 12.18 0 0 1 3.8.9" fill="#f89728"/><path d="m69.8 232.3c-.9 9.9-4.1 22.2-16.7 28.4 1.2 1.1 2.4 2.3 3.6 3.5 5.5-2.9 9.3-8.2 11.9-13.9a59.76 59.76 0 0 0 4.5-17.8 9.2 9.2 0 0 1 -3.3-.2" fill="#f89728"/><path d="m16.8 95.4 18.8 5-1.8-3.4-21-5.7z" fill="#ba272b"/><path d="m35.6 100.4 5.1-9.5-.9-5.7-6 11.8z" fill="#f89728"/><path d="m40.7 90.8c1.7 1.8 6.6 6.8 10.6 10.2 1.8 1.6 4.5 3.3 6.5 2.5l-.4-2c-1.4.8-3.8-.8-6.6-4.2s-11-12.1-11-12.1z" fill="#ba272b"/><path d="m57.9 103.6c1.1-.4 1.9-1.4 2.4-3.7a30.82 30.82 0 0 0 -.4-9v-.1c-.5-2.5-3.1-14.2-4.5-21.2l-3.6-4.8s4.4 22.9 5.2 26.6 1.9 9.4.4 10.2z" fill="#f89728"/><path d="m55.4 69.6 11.7 5.2-1.1-4.2-14.1-5.8z" fill="#ba272b"/><path d="m78.2 47.3-12.2 23.3 1.1 4.2 11-21.3z" fill="#f89728"/><path d="m52.8 111.5c5.9 10.4 14.1 19.2 21.9 24.3a47.76 47.76 0 0 0 .6-5.3c-3.6-1.6-13.9-9.7-17.1-14.2a24.41 24.41 0 0 0 -4.2-4.9c-.7-.5-1.2-.5-1.4-.2a.77.77 0 0 1 .2.3" fill="#ba272b"/><path d="m77.6 96.3a31 31 0 0 0 -8.4-9.2.75.75 0 0 0 -1 .2 78 78 0 0 1 9.4 12.4z" fill="#ba272b"/><path d="m53.2 117.7a115.29 115.29 0 0 1 -12.7-5.8c-.4-.2-.8-.1-.9.1a101.73 101.73 0 0 0 14.8 9.1 17 17 0 0 1 -1.2-3.4" fill="#ba272b"/><path d="m59.3 150.7c3.7.8 12 2.3 20-2.8 5.1 3.5 15.9 7.6 20.3 4.8a54.9 54.9 0 0 1 -20.7-7.6 38.56 38.56 0 0 1 -19.6 5.6" fill="#ba272b"/><path d="m122.5 110.8a9.22 9.22 0 0 0 -.8.5c.2.1.2.4 0 .6-6.2 6.5-8.2 8.6-12.7 13.2 1 .1 2 .3 3 .4 3.3-3.8 7.6-9.4 11.3-14 .3-.4 0-1.1-.8-.7" fill="#ba272b"/><path d="m51.3 126.3c-.6-.5-1.1-1.1-1.7-1.6-4.9 0-7.7.5-9.5 2a73.6 73.6 0 0 1 11.2-.4" fill="#ba272b"/><path d="m82.1 99.9c1-1.5 2-2.9 2.9-4.2-1.7-5.6-3.3-15.3-4.3-22.2-.6 7.3.7 19.4 1.4 26.4" fill="#ba272b"/><path d="m107.9 119.6c.3-2.7-.3-5.9-1.3-7a34.38 34.38 0 0 1 -1.4 8.9c.8-.6 1.7-1.2 2.7-1.9" fill="#ba272b"/><path d="m92.2 87.3c-6.7 13.3-8.6 34.5-9.1 48.7a33.76 33.76 0 0 0 4.1-2.4c-.6-11.6.5-30.8 5.7-45.7.2-.5-.1-1.3-.6-1 0 .2 0 .3-.1.4" fill="#ba272b"/><path d="m86.4 142.1a36.88 36.88 0 0 0 2.8 2.8 73.06 73.06 0 0 1 16.3-11.9c4.3-2.3 8.2-2.9 13.5-3.9.9-.2 1.2-1 .6-1.1h-.4c-15.2.7-25.3 6.6-32.8 14.1" fill="#ba272b"/><path d="m121.6 111.8a.38.38 0 0 0 0-.6.75.75 0 0 0 -.8 0c-.7.3-8.1 5-12.9 8.3l-2.7 1.9a35.76 35.76 0 0 0 1.4-8.9c0-.5-.5-.5-.7-.1-4.4 6.6-10.2 15.5-18.7 21.2a33.76 33.76 0 0 1 -4.1 2.4c.5-14.2 2.3-35.4 9-48.7a.76.76 0 0 0 .1-.4c0-.3-.4-.2-.6 0-2 2.4-4.2 5.1-6.8 8.6-.9 1.3-1.9 2.7-2.9 4.2-.6-7-1.9-19-1.4-26.4.1-1.4-1.4-1.6-1.7.1-.9 5.2-1.2 17-1.3 22.8v3.4a84.42 84.42 0 0 0 -9.4-12.4l-.2-.2c-.6-.7-1.1-.2-.4.8 5.1 7.9 9.3 24.4 7.8 42.7a50.6 50.6 0 0 1 -.6 5.3c-7.8-5.2-16-13.9-21.9-24.3-.1-.1-.1-.2-.2-.3-.3-.3-.7.1-.6.5a40.87 40.87 0 0 0 1.2 6 25.51 25.51 0 0 0 1.1 3.3c-5.2-2.8-10.9-6-14.8-9.1-.2-.1-.3-.3-.5-.4-.6-.5-1 .1-.7.5.9 1.7 5 6.4 11.3 12.6.5.5 1.1 1.1 1.7 1.6-2.2-.1-8.1-.2-11.1.4a4.3 4.3 0 0 0 -1.6.5c-.5.3-.4.8.4.9 8.2.7 15 1.6 32.1 13.4a49.49 49.49 0 0 1 -14.1 7.7.8.8 0 0 0 .1 1.6h2.2a39 39 0 0 0 19.5-5.6 53.26 53.26 0 0 0 20.7 7.6h.4c.8.1.9-.6.3-.9-5.6-2.8-8.9-5-11.1-7a36.88 36.88 0 0 1 -2.8-2.8c7.5-7.5 17.6-13.4 32.8-14.1h.3c.6-.1.5-.6-.1-.7a67.6 67.6 0 0 0 -7.5-1.7c-1-.2-2-.3-3-.4 4.6-4.7 6.7-6.8 12.8-13.3" fill="#f89728"/><path d="m75.2 232a8.39 8.39 0 0 1 -5.4.3c-.2 1.8-.4 3.8-.8 5.7a22.52 22.52 0 0 0 6.3-.2 53.58 53.58 0 0 0 9.9-3.6c.2-2.7.3-5.6.4-8.7a33.42 33.42 0 0 1 -10.4 6.5" fill="#8d364a"/><path d="m142.9 269.9a44 44 0 0 0 20.5 14.2l1.9-7.6c-14.4-1.7-22.8-9.7-28.1-18.5a36.07 36.07 0 0 0 2.5 7.5c.4 1 .6 1.7.4 2s-.9 0-1.8-.5a25 25 0 0 1 -7.2-5.4 24.58 24.58 0 0 1 -6.2-12.7c-.2-1-.8-1.5-.8-.6a58.58 58.58 0 0 0 .8 8.8c2.8 3.1 5.4 5.8 7.4 7.7.4.4.2.8-.1.9 6.3 6.5 3.8 10.7 1.9 13a10.32 10.32 0 0 1 -5.5 3.2c.8 1.3 1.6 2.6 2.3 3.9 6.5-.4 8.6-5.7 9.1-8.4 4.7 7.7-1.4 13.7-6.1 13.4.8 1.3 1.5 2.4 1.9 3.1 1.2 2 1.3 4.2 1.1 7.8 9.8-8.6 10-20.2 5-31.1-.5-.7.7-1.1 1-.7" fill="#bb7727"/><path d="m124.6 260.2c-1.8-1.8-3.7-3.7-5.7-5.9a10.85 10.85 0 0 1 .9 6.5c-.5 2.8-3.3 4.6-6.5 5a22.13 22.13 0 0 1 3.3 11.7c3.3-2.7 4.2-6.3 4.6-9.8a.84.84 0 0 1 1.3-.7 13.64 13.64 0 0 1 2.1-6.8" fill="#bb7727"/><path d="m98.7 255.5c3.3-3.2 4-8 4.4-10.8.1-.6.5-.7.8-.6a28.53 28.53 0 0 1 1-6.2c-1.3-1.6-2.4-3.1-3.5-4.7a13.45 13.45 0 0 1 .2 5.7c-.8 3.9-1.1 6.7-5.4 8.1a13.38 13.38 0 0 1 2.5 8.5" fill="#bb7727"/><path d="m110.4 231.4c0-.6-.8-.6-.9.1a17.42 17.42 0 0 0 .6 8.5c3.8 5 8.5 10.4 12.8 15.2a28.71 28.71 0 0 1 -5.3-15.2 23.17 23.17 0 0 0 -.6 6.5c-5.4-3.2-6.5-12.2-6.6-15.1" fill="#bb7727"/><path d="m117.9 253.1c-.8-.8-1.5-1.7-2.3-2.6-1.5 3-3.3 4.8-5.6 5.5a7.43 7.43 0 0 1 -2.6.3c.7 1.3 1.4 2.6 2.2 3.8 4.5-.7 7.6-2.3 8.3-7" fill="#bb7727"/><path d="m104.3 211.6a41.82 41.82 0 0 1 1.9-9.6c-1.1-1.3-2.2-2.6-3-3.7a17.46 17.46 0 0 0 -2.8 12.6 11 11 0 0 1 -2.1 8.8c-1.4 2.1-5.1 5.2-7.5 7.2 0 2.3.1 8.4 0 11.5.9 1.3 1.8 2.8 2.8 4.3.8-5.5 1.4-14 1.4-14l4.9-4.5c3.3-2.9 3.9-5.8 4.4-12.6" fill="#b75422"/><path d="m88.3 172.8s-.1 5.6-.1 6.2.1 1.1.4 1.3a6.37 6.37 0 0 0 1.9.1 12.61 12.61 0 0 1 -3.1 7.5v5s-.2 1.9 3.8 2.3c-.4 6.1-3 8.6-3.7 9.3v2.9c0 1 2.1 1.4 3.4.4a14.94 14.94 0 0 1 -.4 9.5 9.65 9.65 0 0 0 4.4-9.8c-.7-5.2-.8-7.7.7-11s2.6-4.7 2.8-9.9c.3-4.8-2.2-10.6-10.1-13.8" fill="#dfb120"/><path d="m86.1 183.5c-1.8 3.1-2.7 4.2-6 5.9-5.5 2.9-8.8-.1-10-2s.1-4.2.9-5.2a2.08 2.08 0 0 1 3 0c3.1 2.5 9.7 2.2 12.1 1.3m-9.1 16a3.27 3.27 0 0 0 -4.7.7c-1.1 1.8-1.4 3.8.8 5 2.8 1.5 10.2 1.2 13.9-5.5-3.6 1.5-8.5 1.1-10-.2m1.8 14.9a4.2 4.2 0 0 0 -2.8.7c-1 .9-1.7 2.1-1 3.4 1.1 2 3.4 2.6 5.9 1.1 3.4-2.1 5-3.4 6.3-7.3-4.6 1.7-6.1 2-8.4 2.1" fill="#ef4123"/><path d="m70.8 171.8c7.1 2.8 8.6 7.4 8.7 10.1-2.7.7-5.1-1.7-7.1-1.7-2.8 0-5.1 2.7-4.9 4.9.3 4.7 3.1 6.2 6 7.1-6.1 2.2-11.2.8-14.2-1.8s-1.8-8-1.7-9.3a8.09 8.09 0 0 1 1.8-4.1 24 24 0 0 1 5.2-4.6 8.58 8.58 0 0 1 6.2-.6m10.5 27c-.8-4.4-3.2-5.3-5.4-4.3-3.5 1.5-10.9 4.2-18.5.2-1.6 1.6-2.7 5-2.5 7.8.1 3 1 4.4 3.9 6.1 5.2 3 16.4 2.9 18.3-.8-2.8-.2-7-.8-7-6.1a4.87 4.87 0 0 1 5-4.5c2.3-.2 2.3 1.9 6.2 1.6m.7 9.7c-3.9 3.1-9.2 8.3-21 4.4-.8-.3-1.4.1-1.5 1-.1.7-.2 4 1.9 6 6.3 5.9 18.1 9.3 22.7.5a.61.61 0 0 0 -.9-.8 6.77 6.77 0 0 1 -7.9 1.5c-2.3-1-2.5-3.7-1.3-5.8a4.61 4.61 0 0 1 4.1-2.4 10.84 10.84 0 0 0 5.6-1.7 6.14 6.14 0 0 0 -1.7-2.7" fill="#fd0"/><path d="m59.4 190.5c2.9 2.5 8.1 3.9 14.2 1.8-2.9-.9-5.7-2.4-6-7.1v-.1c-3.4.6-6.5-1.7-9-6.6a6.13 6.13 0 0 0 -.8 2.8c-.3 1.1-1.4 6.6 1.6 9.2" fill="#dfb120"/><path d="m58.8 208.4c5.2 3 16.4 2.9 18.3-.8-2.1-.1-5.1-.5-6.4-3.1-4.5 2.5-12.6-.2-15.7-4.2a12.1 12.1 0 0 0 -.1 1.9c.2 3.2 1 4.5 3.9 6.2" fill="#dfb120"/><path d="m83.2 219.7a6.77 6.77 0 0 1 -7.9 1.5 3.13 3.13 0 0 1 -1.1-.8 5.9 5.9 0 0 1 -3.5 2.4 17.53 17.53 0 0 1 -5.6 0c6.4 3.9 15.1 4.9 19-2.3.4-.8-.4-1.3-.9-.8" fill="#dfb120"/><path d="m72.6 172.6a9.3 9.3 0 0 1 .9 7.8c1.8.5 3.8 2 6.1 1.5-.2-2.4-1.5-6.4-7-9.3" fill="#dfb120"/><path d="m83.7 211.3a5.91 5.91 0 0 0 -1.7-2.8 33.41 33.41 0 0 1 -5.2 3.8 2.92 2.92 0 0 1 .2.9 3.75 3.75 0 0 1 1.1-.1c1.6-.2 4.4-.8 5.6-1.8" fill="#dfb120"/><path d="m81.3 198.8c-.8-4.4-3.2-5.3-5.4-4.3a32.6 32.6 0 0 1 -4.2 1.5 7.68 7.68 0 0 1 1 1.8 6 6 0 0 1 2.3-.6c2.4-.2 2.4 1.9 6.3 1.6" fill="#dfb120"/><path d="m63.4 174.4c.2 2 3.2 5.7 3.6 6.2s-.5 1.5-1 1.2a18.87 18.87 0 0 1 -4.9-5.6c.8-.7 1.8-1.4 2.3-1.8m-6.4 21.5s-.6 1.7-1.2 3.2c1.6 1.3 3.9 2.5 9.2 2.1.4 0 .5-.7-.1-.8a11.56 11.56 0 0 1 -4.7-1.8 12.4 12.4 0 0 1 -3.2-2.7m3 18.9a5.32 5.32 0 0 0 1 3.9 1 1 0 0 0 1.3.5 39.33 39.33 0 0 1 5.9-.6c1.6.1 1-1.2 0-1.3s-5.5-.3-7.2-2.3c-.5-.4-.9-.8-1-.2" fill="#fff"/><path d="m78.2 182a5.7 5.7 0 0 0 1.3-.1 9.68 9.68 0 0 0 -1.1-3.9 15.47 15.47 0 0 1 -.2 4" fill="#bb7727"/><path d="m78.7 194.3a13.25 13.25 0 0 1 1.4 4.5h1.2c-.5-2.6-1.5-4-2.6-4.5" fill="#bb7727"/><path d="m82 208.5a7 7 0 0 1 -1 .8 11.66 11.66 0 0 1 1.8 2.6 8.79 8.79 0 0 0 1-.6 7.08 7.08 0 0 0 -1.8-2.8" fill="#bb7727"/><path d="m59.4 190.5c2.9 2.5 8.1 3.9 14.2 1.8a10.37 10.37 0 0 1 -3.5-1.7c-2.4 1.5-7.7.5-11.6-1.1a7.3 7.3 0 0 0 .9 1" fill="#bb7727"/><path d="m77.1 207.7c-.9-.1-1.9-.2-3-.4a31.89 31.89 0 0 1 -11.5 2.7c5.6 1.3 13 .6 14.5-2.3" fill="#bb7727"/><path d="m84.1 220.4a.61.61 0 0 0 -.9-.8 5.63 5.63 0 0 1 -2.6 1.7 12.6 12.6 0 0 1 -4.3 4.3 9.15 9.15 0 0 0 7.8-5.2" fill="#bb7727"/><path d="m89.6 201.8a12.61 12.61 0 0 1 -2 2.8v2.9a.85.85 0 0 0 .7.8 18.54 18.54 0 0 0 4.1-5.9 6.09 6.09 0 0 1 -2.8-.6" fill="#b75422"/><path d="m93.7 185.8c.6-1.4-.4-1.6-1.5-1.3a8.44 8.44 0 0 1 -2.8.1 14.55 14.55 0 0 1 -2 3.3v5a1.75 1.75 0 0 0 .1.5 15.21 15.21 0 0 0 6.2-7.6" fill="#b75422"/><path d="m87.2 212.2c-1 .4-1.9.7-2.6 1a8.49 8.49 0 0 1 -3.1 4.1 5.65 5.65 0 0 1 -3.2 1.5 18 18 0 0 0 -3 .2c1.2 1.6 3.3 2 5.6.6 3.4-2.1 5-3.4 6.3-7.4" fill="#ba272b"/><path d="m73.1 205.2c2.8 1.5 10.2 1.2 13.9-5.5a11.4 11.4 0 0 1 -3.3.8 11.83 11.83 0 0 1 -7.8 3.8c-1.9.1-3.5-.6-4.1-.2a3.61 3.61 0 0 0 1.3 1.1" fill="#ba272b"/><path d="m80.1 189.5a11.92 11.92 0 0 0 5.3-4.8c-2.7 1.7-6.5 3.7-9.7 3.7a7.87 7.87 0 0 1 -4.6-1.5c-.6-.5-1 0-.9.8 1.3 1.8 4.5 4.6 9.9 1.8" fill="#ba272b"/><path d="m77.4 218.3a1.1 1.1 0 1 1 1.1-1.1 1 1 0 0 1 -1.1 1.1m-1.7-15.8c.5-.4.2-1-.2-1.5a1.41 1.41 0 0 0 -1.8-.3c-.5.4-.4 1 .1 1.5a1.44 1.44 0 0 0 1.9.3m-2.8-16.9a1.51 1.51 0 0 0 0-2c-.4-.6-1.3-.3-1.7.1s-.2 1.4.1 1.8a1.12 1.12 0 0 0 1.6.1" fill="#dfb120"/><path d="m197.4 52.3a17.26 17.26 0 0 1 6.5 9.8 3.78 3.78 0 0 1 4-.7v-10.3c-3.1-1.6-5-2.1-7.7-2s-4.8.7-8.2 5.2c-1.9 2.5-3.1 3.3-4.9 3.4a2.39 2.39 0 0 1 -2.3-1.8c0-.2.3-.4.4-.1.6 1.2 2 1.1 3.4.2 1.9-1.3 2.9-3.2 3.9-4.3-2.8-1.5-8.4-4.2-12.1-1.1s-2.9 7.8.8 13.5l3.9-1 .9 2.4c.7-2.5 3.2-3 6-2.6a12.24 12.24 0 0 1 5.4-10.6" fill="#ef4123"/><path d="m243.9 51.7a16.16 16.16 0 0 0 -6.5 11.3c-2.6-2.4-4-2.1-5.8-1.3l.1-10a11.91 11.91 0 0 1 7.8-2.2c2.7.2 5 .8 9.4 4.3 3 2.5 3.8 3.2 5.6 3.3a3 3 0 0 0 2.6-2c0-.2 0-.4-.2-.2-.9 1.3-3.4.9-4.8 0a27 27 0 0 1 -4.5-3.6c1.5-2.2 9.4-4.3 12.7-1.5 3.7 3.1 2.3 9.2-.3 13.3l-5.6-.7-.7 1.8c-1.3-1.2-4.1-1.5-6.1-.6.2-3.3-.4-9.8-3.7-11.9" fill="#ef4123"/><path d="m179.4 71.9c-.5.6.5.9.8.6.6-.5 3.4-3 5.3-4.9 1.1 3.7 2.2 8.3 2.8 10.9-5.6-1.9-7.1-2.2-8.3-2a12.39 12.39 0 0 0 8.3 3.4 7 7 0 0 0 7-5.1 6.73 6.73 0 0 0 2.8.6c-1.7 5.2-5.7 7.3-10.2 7.4-3.7.1-7.4-2-10.6-5.1-.8-2.4-2.4-7-3.2-9.7a56.33 56.33 0 0 1 8.5-2.2c.1 1.2-2.3 5-3.2 6.1m20.4 3.6a13.54 13.54 0 0 0 4.6 4.3c1.5.8 2.8.9 5.4.8 3.3-.1 5.1-.3 6.4-1.2a17.84 17.84 0 0 0 3.1-3 5 5 0 0 1 -1.8-1 9.26 9.26 0 0 1 -6.9 3 10 10 0 0 1 -5.3-1.4 5.28 5.28 0 0 1 -1.8-2.4c-1.1.3-2.3.6-3.7.9m22.1.9c1.2 1.6 3.3 4.3 8.8 4.1s8.2-2.4 10.1-5a11.23 11.23 0 0 1 -3-.8c-1.5 1.6-3.3 3.5-7 3.5s-5.5-1.4-6.9-3.3a4.1 4.1 0 0 1 -2 1.5m20.2-.8c1.1 2.8 3.2 7.5 9.3 7.3a15.51 15.51 0 0 0 11.9-6.4s2.3-6.7 2.9-8.5c.1-.4.3-1.3-.5-1.5a60.19 60.19 0 0 0 -7.5-1.4s2.7 5 3.4 6.2c.2.4.1 1.8-.8.8a39 39 0 0 0 -5.7-5.2c-.6 2.3-1.4 7.1-1.9 10.1-.1.4-.3.9.7.6s4.5-1.8 5.7-2.2 1.4.5.8.9c-2.4 1.6-5.3 3.7-8.6 3.7a7 7 0 0 1 -6.6-4.3 29.12 29.12 0 0 0 -3.1-.1m-33.6-67.2v11.2c2-1.2 5.7-2.8 7.9-4.1a4.55 4.55 0 0 1 0-4.1c-1.2-.4-5.5-2-7.9-3m16.1 2.9a4.55 4.55 0 0 1 0 4.1c2.6 1.5 5.1 2.7 7.9 4.1v-11.2c-2.9 1.2-6.8 2.7-7.9 3m-7.4 5.4c-.6 1-1.6 2.7-2.1 3.7a25.71 25.71 0 0 1 10.7 0c-.6-1.1-1.5-2.6-2.1-3.7a4.68 4.68 0 0 1 -6.5 0m10.3-13.6h-13.8c.7 1.4 2.9 5.4 3.7 7a4.5 4.5 0 0 1 3.2-1.3 4.75 4.75 0 0 1 3.2 1.3c.7-2.1 3.1-5.5 3.7-7m-9.7 18.8v6.3c-2.4 0-6.5.3-7.4.9a12.4 12.4 0 0 0 .5 4.1c4.2-1.1 14.1-1.6 19.2.2a13.51 13.51 0 0 0 .7-4.4 59.17 59.17 0 0 0 -7.5-.9v-6.3a.9.9 0 0 0 -1-1h-3.4c-.9 0-1.1.5-1.1 1.1m11.9 12.6c-2.1-.8-6.2-1.1-9.9-1.1a32.2 32.2 0 0 0 -7.6.7c-.6.2-.7.5-.5 1.1a8.51 8.51 0 0 0 5.1 4.4c-.4-2 .5-4.7 3.7-4.7 2.5 0 4.1 2.1 3.7 4.7 2.1-.4 4.6-3.1 5.5-5.1m-14.3-12.5c-1.9.7-3.9 3.1-4.6 5.6a19.31 19.31 0 0 1 5-.7c.3 0 .5-.3.5-.8v-3.5c-.1-.6-.2-.9-.9-.6m9 .4v3.6a.94.94 0 0 0 1 1 21.42 21.42 0 0 1 4.7.7c-1.1-2.8-2-4.4-4.7-5.8-.7-.4-1-.1-1 .5m-35.3 43c-1.3.9-1.5 2.7-.8 4.6s2.6 5.5 4.5 6.3c1.2.5 2.1-.4 1.3-1.3-1.1-1-1.8-1.6-1.9-3 0-.9 1.5-1.1 2.1-.3.3.4.9.7 2.5.7a22 22 0 0 0 5.3-.4 2.9 2.9 0 0 0 1.7-1c.2-.3.7-1.2 1.3-1.1s1.3 1.1 1.2 1.9a3.73 3.73 0 0 1 -1.2 2.7c-.5.5.3 1.8 1.1 1s3.5-3.8 3.4-7.4c-.1-3.4-2.2-4.5-3.6-4.5-1.8 0-3.7 2.1-4.5 5.1-.2.6-.8.6-.8-.2a32.79 32.79 0 0 0 .8-4.8c-.1-3.3-1.8-6.4-4.7-9.1-1.6 2.7-2.4 4.8-2.4 7.1a14.71 14.71 0 0 0 2.3 7.4c.2.3.1 1-.5.5a26.35 26.35 0 0 1 -2.2-3.2 3.46 3.46 0 0 0 -4.9-1m42.8-.9c-1.3.9-1.9 2.9-1 5.4a15.27 15.27 0 0 0 4 5.6c.9.8 1.6-.2.9-1.3a6 6 0 0 1 -.9-4.1c.2-.9 1.1-.9 1.8 0a3.77 3.77 0 0 0 2.2 1.5 23.1 23.1 0 0 0 4.9.7 5.48 5.48 0 0 0 2.4-.6c.3-.2.9-.9 1.4-.6s.7 1 .3 1.9a6.51 6.51 0 0 1 -1.5 2.3c-.5.5.2 1.6 1 1.2 1-.5 5.1-3 5.9-6.5.5-2.4 0-4.8-2.7-5.4-1.7-.4-4.1.9-5.8 4.7-.3.6-.8.4-.4-.3a23.43 23.43 0 0 0 1.5-5.3 13.13 13.13 0 0 0 -2.1-9.6 14.05 14.05 0 0 0 -3.7 6.5 16.08 16.08 0 0 0 .3 7.9c.1.4 0 .8-.4.2a19.48 19.48 0 0 0 -2.6-3.6 4.47 4.47 0 0 0 -5.5-.6m-15.1 5.1a41 41 0 0 0 -4-2.9c-.6-.4-.9-.4-1 .4-.2 1.2-.2 8.1-.2 8.5s.2.6.6.4 3-1.3 4.2-2a4.46 4.46 0 0 1 .4-4.4m7.7 4.4a36.77 36.77 0 0 0 4.2 2c.5.2.6-.1.6-.4s0-7.3-.2-8.5c-.1-.8-.4-.8-1-.4a41 41 0 0 0 -4 2.9 4.46 4.46 0 0 1 .4 4.4m-10-11.3a34 34 0 0 0 3.5 5.7 4.57 4.57 0 0 1 4.9 0c.7-1.2 2.5-4.6 3.2-5.7-2.7-.1-9.3-.2-11.6 0m24.3 9.9c-.3-.1-.9-.2-.9.2s-.2 1 .5 1.3a17.06 17.06 0 0 0 4.9.7c1.1 0 1.5 0 1.5-.8s0-1-.8-.9a8.6 8.6 0 0 1 -2.4.2c-.9-.2-1.7-.4-2.8-.7m-30.7-30.8a20.61 20.61 0 0 1 -8.4-2.6c-3.2-1.7-10-4.8-16.4-4.8-8.8.1-20.4 9.7-9.7 31.3l4.1-1.5c-1.2-2.6-3.9-8.2-3.7-13.3.2-5.8 3.4-11.8 10.5-11.9 3.4 0 9.6 2.3 13.1 3.8 2.6 1.1 6.2 2.8 10.4 3.3zm23.6 5.4a51.14 51.14 0 0 0 10.7-2.8c2.2-.8 6.2-2.5 9.7-4.2a12.81 12.81 0 0 1 5.3-1c5.4.1 8.1 4.3 8.3 10.2.2 5.1-1.2 10.1-2.6 14.1l3.7 1.1c1.7-5.5 3.2-11.7 3.2-16.2-.1-8.5-3.9-13.8-12.1-13.9a16.55 16.55 0 0 0 -8.6 2.1 97.53 97.53 0 0 1 -10 4.1 24.26 24.26 0 0 1 -7.6 1.5zm-35.5 25.8c-.6-.2-1.2.5-.8.9a4.57 4.57 0 0 0 3.4.9c1.9-.1 3.8-.3 4.5-1.2.5-.7-.3-1.4-.7-1.1-1.2.9-4.2 1.2-6.4.5m15.9-29.6v16.7c0 .7.8.9 1.6 1s1.6.2 1.6-.8v-16.9c.1-2.9-3.2-2.7-3.2 0m12.5-.4v17c0 .7.3.8 1.6.8.8 0 1.6.1 1.6-.9v-16.9c0-2.9-3.2-2.7-3.2 0" fill="#fd0"/><path d="m181.1 86.9.2 1.7s3.6 2.2 5.1 3c.5.3.4.8 0 1.2-.5.6-2.1 2.6-2.6 3.2a.74.74 0 0 0 0 1c.2.3.5.5 1.5.1 7-2.4 17.4-4.3 35.8-4.3 11.4 0 25.8 1.2 34.7 4.4l.6-2s-2.7-2.9-3.1-3.3a.73.73 0 0 1 .3-1.2c.6-.3 4.5-2.4 4.5-2.4l.3-1.1c-9.9-2.7-26.3-4.7-40.4-4.7a147.71 147.71 0 0 0 -36.9 4.4" fill="#fd0"/><path d="m186 93.4c.2 1.1.4 2.3.6 3.4a22.88 22.88 0 0 1 2.8-.8c-.6-3.5-1.2-7.1-1.6-10.6-1.1.2-2.1.4-3.2.7.2 1 .6 2.8 1 5.1a5.58 5.58 0 0 1 .8.5c.5.3.4.8 0 1.2 0 .1-.2.3-.4.5" fill="#dfb120"/><path d="m195.5 84.1c-1.3.2-2.6.4-3.8.6.3 3 .8 8 1 10.5 1.1-.2 2.3-.5 3.6-.7-.1-2.9-.6-8.4-.8-10.4" fill="#dfb120"/><path d="m246.1 84.7c-.3 2.2-1.1 7.6-1.4 9.9 2.5.4 4.8.9 7 1.4.5-2.5 1.6-7 2.2-9.9-2.3-.5-5-1-7.8-1.4" fill="#bb7727"/><path d="m233.8 93.4c.8.1 1.6.1 2.4.2.4-2.8.9-6.9 1-10a19.42 19.42 0 0 0 -2.4-.2 86.82 86.82 0 0 1 -1 10" fill="#bb7727"/><path d="m209.8 82.7c0 2.6 0 6.4.7 7.9.2.4 1.2 1 1-.5a59 59 0 0 1 -.1-7.5 8.6 8.6 0 0 1 -1.6.1" fill="#fff"/><path d="m205.5 91.4c.2.5 1.1 1.5 1.2-.6.1-1.9-.3-5.4-.5-7.9-.6 0-1.2.1-1.7.1a49.45 49.45 0 0 0 1 8.4" fill="#fff"/><path d="m181.1 86.9.1 1.2c11.9-3.3 23.7-4.5 37.7-4.5a174.79 174.79 0 0 1 39.4 4.6l.3-1c-9.9-2.7-26.3-4.7-40.4-4.7a148.22 148.22 0 0 0 -37.1 4.4" fill="#b75422"/><path d="m189.1 112a106.93 106.93 0 0 1 31.3-5.3 134 134 0 0 1 30.9 4.2 3.86 3.86 0 0 0 2.8-.2 7.46 7.46 0 0 0 2.9-3.9 3.77 3.77 0 0 0 -.1-3.5c-1-1.8-2.1-4-8.2-5.2a153.18 153.18 0 0 0 -30-3c-13.1 0-25.7 2.3-30.6 4-3.7 1.2-4.3 4.7-4.1 6.9.2 2.6 1.3 5 5.1 6" fill="#fff"/><path d="m189.8 90a.8.8 0 1 1 .8-.8.79.79 0 0 1 -.8.8m1.7 2.7a.9.9 0 1 0 -.9.9.9.9 0 0 0 .9-.9m17.4-5.8a.79.79 0 0 0 -.8-.8.8.8 0 1 0 0 1.6.79.79 0 0 0 .8-.8m.4 3.2a.79.79 0 0 0 -.8-.8.86.86 0 0 0 -.8.8.8.8 0 1 0 1.6 0m23.6-3.4a.8.8 0 1 0 -.8.8.79.79 0 0 0 .8-.8m-.3 3a.8.8 0 1 0 -.8.8.79.79 0 0 0 .8-.8m19.2-.7a.91.91 0 1 0 -.9.8.88.88 0 0 0 .9-.8m-.2 3.1a.8.8 0 1 0 -.8.8.79.79 0 0 0 .8-.8"/><g fill="#dfb120"><path d="m216.8 39.5a4.24 4.24 0 0 1 .3-2.7 6.64 6.64 0 0 1 -3-3.2 10.62 10.62 0 0 0 -1.9.4c-.6.2-.7.5-.5 1.1a7.94 7.94 0 0 0 5.1 4.4"/><path d="m244.4 61.9a21.32 21.32 0 0 1 -1.4 6.6c-.6 1.3.3 2.9 1.2 1.7.1-.1.2-.3.3-.4-.2 0-.3-.2 0-.6a23.43 23.43 0 0 0 1.5-5.3 13.54 13.54 0 0 0 -2-9.6c-.1.1-.2.2-.2.3.1 1.6.8 4.4.6 7.3"/><path d="m234.8 64.8c1.8.7 3.8 2.2 4 3.7a3.79 3.79 0 0 0 1 2c.5.4 1.3.1.9-.8-.1-.2-.2-.5-.3-.7 0 .3-.2.4-.5-.1a19.48 19.48 0 0 0 -2.6-3.6 4.67 4.67 0 0 0 -2.8-1.4c-.3.2-.5.6.3.9"/><path d="m254.8 39.4a12.78 12.78 0 0 1 2.6-.2c4.1 0 6.6 2.5 7.7 6.2.5-4.1-3.6-7.8-8-7.8a16.23 16.23 0 0 0 -5.2.8 3.58 3.58 0 0 1 2.9 1"/><path d="m253.3 70a5.35 5.35 0 0 0 -.4-3.8c-.5-.2-.9 0-.9.6 0 .9.3 5-5.4 9.6a.72.72 0 0 0 .9.1c.9-.5 5-3 5.8-6.5"/><path d="m227.8 59.9v-16.9c0-1.3-.7-2-1.4-2.1l-.1 19.9c.8.1 1.5.1 1.5-.9"/><path d="m214.1 61c.7.1 1.3.1 1.3-.8v-16.9a2.27 2.27 0 0 0 -.8-1.9c0 3.4 0 16.6-.5 19.6"/><path d="m225.9 32.5a16.18 16.18 0 0 1 4.2 1 8 8 0 0 0 .5-2.2c-.1-.8-.2-1.5-.3-2.2-1.1-.2-2.4-.4-3.6-.5a8.76 8.76 0 0 1 -.8 3.9"/><path d="m225.8 20.3c-.6-1.1-1.5-2.6-2.1-3.7a5 5 0 0 1 -2.1 1.2 9.2 9.2 0 0 1 .2 1.9 34.32 34.32 0 0 1 4 .6"/><path d="m253.7 77.5c1-.4 4.5-1.8 5.7-2.2a1.35 1.35 0 0 1 .9 0c.2-.6-.5-1.2-1.5-.9s-3.8 1.2-5.6 1.8c0 .3-.1.5-.1.8s-.4.9.6.5"/><path d="m245 75.5h-1a6.12 6.12 0 0 0 4.9 4.6.47.47 0 0 0 .6-.6 6.48 6.48 0 0 1 -4.5-4"/><path d="m179.2 77.9c1.5 1.3 3.5 1.9 7.2 2.6.8.2 1.6-.3 1.5-.7a12.83 12.83 0 0 1 -7.6-3.1c-1.2 0-2.2.3-1.1 1.2"/><path d="m262.5 76.1c-2 2.2-4.3 4.8-9.9 5.5a.79.79 0 0 0 -.6 1.2 15.76 15.76 0 0 0 11.3-6.3s.1-.3.2-.7a1 1 0 0 0 -1 .3"/><path d="m262.8 78.8a24.42 24.42 0 0 1 -6.7 4.6 10.64 10.64 0 0 0 4.5 1.1 45.45 45.45 0 0 0 2.2-5.7"/><path d="m230.8 16c0 .4-.2.5-.4.4s-4.3-1.9-5.4-2.4a5.73 5.73 0 0 1 -.4 1.4c2.6 1.5 5.1 2.7 7.9 4.1v-11.2c-.5.2-1.1.4-1.6.6-.1 1.6-.1 6.7-.1 7.1"/><path d="m215.8 13.8-7.4 3.5v2.3c2-1.2 5.7-2.8 7.9-4.1a7.67 7.67 0 0 1 -.5-1.7"/><path d="m175.2 45.1c1.6-3.4 4.5-6.1 9.2-6.1 3.4 0 9.6 2.3 13.1 3.8 2.6 1.1 6.2 2.8 10.4 3.3v-1.4c-2.2-.1-4.3-.7-9.4-2.7-5.9-2.4-10.5-4.6-15.6-4.4-3.9.1-8.3 3.7-9.9 8.3.7-1.4 1.8-2.4 2.2-.8"/><path d="m183.8 83a15.8 15.8 0 0 1 -6-3.5 34.24 34.24 0 0 0 1.7 5s3.8-.6 4.5-.8c.3-.1.2-.6-.2-.7"/><path d="m220.5 76.6a10.06 10.06 0 0 1 -3.7 3.3c1.2.1 2.1.2 3.7.2a20 20 0 0 0 3.7-.2 12.28 12.28 0 0 1 -3.7-3.3"/><path d="m199.2 76.4a14.09 14.09 0 0 1 -3.8 5c1.5 0 6.1-.5 8.2-.8a15.72 15.72 0 0 1 -4.4-4.2"/><path d="m197.7 76.4c-.2-.9-1.4-1.2-1.7-.2a5.63 5.63 0 0 1 -.7 1.8c-1.1 1.6-3.9 3-6 3.3-.8.1-1.6.5-.6 1a3.9 3.9 0 0 0 1.6.2 9.84 9.84 0 0 0 7.4-6.1"/><path d="m178.8 73.7a7.13 7.13 0 0 0 1.8-1.5c-.2.2-.3.3-.4.3-.4.3-1.3 0-.8-.6 1-1.1 3.4-5 3.3-6.1-.8.2-1.6.3-2.5.5-.5 1.2-1.3 3-2.3 5.1-.4.9-.9 2.2-.5 2.5s1 .1 1.4-.2"/><path d="m205.1 77a5.28 5.28 0 0 1 -1.8-2.4c-.4.1-.8.3-1.3.4a7.41 7.41 0 0 0 4.7 3.6c.3.1 1 .1 1.1-.4a6.86 6.86 0 0 1 -2.7-1.2"/><path d="m240.8 75.6c-.4-.1-.9-.2-1.4-.3a10.43 10.43 0 0 1 -7.1 4.1 1.62 1.62 0 0 0 -1.4 1.2c5.4-.3 8.1-2.5 9.9-5"/><path d="m188.3 78.5c-.6-2.6-1.7-7.2-2.8-10.9-.5.5-1 1-1.6 1.5a59.2 59.2 0 0 1 1.6 8.5 18 18 0 0 1 2.8.9"/><path d="m241.3 76.6a13 13 0 0 1 -5 4.2c2.4.4 6 .6 8.4.9-1.1-1.3-3-3.8-3.4-5.1"/><path d="m219.2 76.5a1.88 1.88 0 0 1 -1-.4 8 8 0 0 1 -5.6 3.5c-.3 0-.8.2-.8 1a7.93 7.93 0 0 0 4.3-1.1 12.74 12.74 0 0 0 3.1-3"/><path d="m223.9 75.1a5.72 5.72 0 0 1 -.8.7c1.6 1.8 3.2 3.2 5.6 3.2a2.33 2.33 0 0 0 1.5-.7 7.35 7.35 0 0 1 -6.3-3.2"/><path d="m222.1 9.1a5.43 5.43 0 0 1 1.5.9c.9-2 3.2-5.4 3.8-7h-3z"/><path d="m225.2 33.6a13.69 13.69 0 0 1 -2 2.3 4.34 4.34 0 0 1 1 3.6c2.1-.3 4.7-3.1 5.5-5a20.88 20.88 0 0 0 -4.5-.9"/><path d="m229.3 75.6c.1-.4 0-7.3-.2-8.5-.1-.8-.4-.8-1-.4a4.35 4.35 0 0 1 -.7.4v4.7c0 .6-.3.6-.6.6s-1.3-.2-2-.3a4.88 4.88 0 0 1 -.4 1.9 36.77 36.77 0 0 0 4.2 2c.5.2.6 0 .7-.4"/><path d="m222.9 68.4c.7-1.2 2.5-4.6 3.2-5.7-.7 0-1.7-.1-2.9-.1a49.5 49.5 0 0 1 -2.6 5.1 6.15 6.15 0 0 1 2.3.7"/><path d="m226.1 23.3c-1.4-.9-1.2.6-1 1.1a23.61 23.61 0 0 1 1.2 2.6 23.34 23.34 0 0 1 3.5.6 8.31 8.31 0 0 0 -3.7-4.3"/><path d="m211.6 75.6c.1.4.2.6.6.4s3-1.3 4.2-2a3.79 3.79 0 0 1 -.4-2.2 10.28 10.28 0 0 1 -4.4 1.7z"/><path d="m199.4 69.7c-.3 1.1.8 1.8 1.7-.4-.2 0-.4-.2-.4-.6a32.79 32.79 0 0 0 .8-4.8c-.1-3.3-1.8-6.4-4.7-9.1-.3.5-.5.9-.7 1.3a13.91 13.91 0 0 1 3.1 7.4c.6 3.7.5 5.3.2 6.2"/><path d="m195.7 70c.3.2.8.3.8-.1a.35.35 0 0 0 -.2-.1 26.35 26.35 0 0 1 -2.2-3.2 3.49 3.49 0 0 0 -5-1.2l-.2.2a1.29 1.29 0 0 0 1.5.7 2.86 2.86 0 0 1 3.1 1.2 12.25 12.25 0 0 0 2.2 2.5"/><path d="m207.4 64.1a.88.88 0 0 0 -.2 1.5c1.1 1 1.1 2.4.6 4.4a21.89 21.89 0 0 1 -1.6 4.1 1.93 1.93 0 0 0 0 1.5c.9-.9 3.4-3.9 3.4-7.3a4.68 4.68 0 0 0 -2.2-4.2"/></g><path d="m231.7 47.2a51.14 51.14 0 0 0 10.7-2.8c2.2-.8 6.2-2.5 9.7-4.2a9.24 9.24 0 0 1 2.7-.8 3.23 3.23 0 0 0 -2.9-.9 20 20 0 0 0 -2.6 1c-2.5 1.2-4.7 2.3-6.7 3.1a39.48 39.48 0 0 1 -10.9 2.6z" fill="#bb7727"/><path d="m247.5 70.2c-1 0-1.9.7-2.7 2a5 5 0 0 0 1.5-.5c.3-.2.9-.9 1.4-.6l.2.2c.5-.4.5-1.1-.4-1.1" fill="#bb7727"/><path d="m177.6 64.2c-1.3-2.6-3.9-8.2-3.7-13.3a16.34 16.34 0 0 1 1.3-5.8c-.4-1.6-1.5-.6-2.1.8a11.48 11.48 0 0 0 -.6 3.7 39.1 39.1 0 0 0 3.8 15.1z" fill="#bb7727"/><path d="m234.3 69c-.5 1.5-1 3.6 1.3 5a5.16 5.16 0 0 1 -.7-3.8.75.75 0 0 1 1.1-.6c-.6-2.9-1.3-1.9-1.7-.6" fill="#bb7727"/><path d="m191.3 72.2a5.31 5.31 0 0 0 1.7 3.5c.8.6 1.1.2 1.2-.4 0-.1-.1-.1-.2-.2-1.1-1-1.8-1.6-1.9-3a.6.6 0 0 1 .1-.4c-.4-.2-.9-.1-.9.5" fill="#bb7727"/><path d="m204.2 68.8c-1.6.3-2 2.3-2.1 3.3a2.6 2.6 0 0 0 1.5-1c.2-.3.7-1.1 1.2-1.1.4-1.3-.3-1.2-.6-1.2" fill="#bb7727"/><path d="m226.5 24.3a4.32 4.32 0 0 1 1.2 2.8c.4.1.8.1 1.2.2a3.23 3.23 0 0 0 -2.4-3" fill="#bb7727"/><path d="m227.2 33.9a6.08 6.08 0 0 1 -3.1 3.6 4.44 4.44 0 0 1 .1 2c2.1-.3 4.7-3.1 5.5-5a8.34 8.34 0 0 0 -2.5-.6" fill="#bb7727"/><path d="m216.8 39.5a5.28 5.28 0 0 1 -.1-1.3 8.08 8.08 0 0 1 -4.5-4.2h-.1c-.6.2-.7.5-.5 1.1a8.44 8.44 0 0 0 5.2 4.4" fill="#bb7727"/><path d="m216.5 5.2c1.1 0 3.7-.1 4.3 0s1.3.1 1.4-.2a2.37 2.37 0 0 0 .1-1.9h-8.7l.9 1.8a6 6 0 0 0 2 .3" fill="#fff"/><path d="m249.3 36.7c-.5.3-1.1.5-1.7.8-1.3 1 1.7 1.3 4.2.3a19.31 19.31 0 0 1 6.9-1.2c2.5-.1 5.5 1.5 6.3 1.9s1.3-.1.7-.8a11.46 11.46 0 0 0 -2.8-2.3 12.76 12.76 0 0 0 -5-.9c-3.3 0-5.1.5-8.6 2.2" fill="#fff"/><path d="m196.3 68.4c1 1 1.4 0 1.1-.8a12.59 12.59 0 0 1 -.8-6.9 14 14 0 0 0 .2-2.3c-.1-1.1-.8-1.5-1.5-.2a9.37 9.37 0 0 0 -.7 3.7 11.7 11.7 0 0 0 1.7 6.5" fill="#fff"/><path d="m187.9 68.6a17.23 17.23 0 0 0 1.2 2.1c.4.6 1.2.4.7-.4s-.3-2.3.1-3.6c.3-1-.4-1.1-1-1a3.18 3.18 0 0 0 -1 2.9" fill="#fff"/><path d="m202.7 72.5-.1.1a1 1 0 0 0 .8 1c.5-.7-.4-1.4-.7-1.1" fill="#fff"/><path d="m173.3 40.6c4.7-5.1 10.4-4.8 16.8-3.6 1.9.4.8-.9-.2-1.8a24.44 24.44 0 0 0 -6.6-.9 14.08 14.08 0 0 0 -10.7 5.3c-.3 1-.2 1.9.7 1" fill="#fff"/><path d="m265.6 66.5a60.19 60.19 0 0 0 -7.5-1.4s.3.6.8 1.4c1.7.7 5.1 2 7.2 1.8 0-.1.1-.2.1-.3 0-.4.2-1.3-.6-1.5" fill="#fff"/><path d="m178.6 66.7c-1.4.4-3 .8-4.4 1.3.1.4.3.9.4 1.4a2.38 2.38 0 0 0 1.4.3 6.46 6.46 0 0 0 3.8-1.6c1.4-1.2.1-1.4-1.2-1.4" fill="#fff"/><path d="m208.5 13.4c0 .4.1.8.1 1.2.4 2.7 2.2 1.3 2.3-.8a10.66 10.66 0 0 0 -1.5-4.9c-.3-.1-.7-.3-1-.4v4.9z" fill="#fff"/><path d="m221 64.4c1 .2 1.5-.4.8-1.1a5 5 0 0 0 -.8-.7c-2.5 0-5.2 0-6.4.1 0 0 .3.6.8 1.5a42.88 42.88 0 0 1 5.6.2" fill="#fff"/><path d="m213 72.9a43.3 43.3 0 0 0 0-5.1c0-1-.7-1.2-1.2-.8v.1c-.1.8-.2 3.9-.2 6.2.5.8 1.3.5 1.4-.4" fill="#fff"/><path d="m202.4 66.6c-.2 1.1.9 1.3 1.1.9a3.36 3.36 0 0 1 2.4-1.9 1.9 1.9 0 0 0 .9-.3 1.38 1.38 0 0 0 .6-1.1 2.73 2.73 0 0 0 -1.4-.4c-1.3 0-2.6 1.1-3.6 2.8" fill="#fff"/><path d="m219.9 29.5a11 11 0 0 1 -.2-2.4c0-1.7.2-4.3.3-6.3h-1.3c-.8 0-.9.5-.9 1.1v6.3c-2.4 0-6.5.3-7.4.9a5.4 5.4 0 0 0 0 1.8c1.1-.7 4.8-.7 9-.9.5 0 .5-.3.5-.5" fill="#fff"/><path d="m231.7 67.3a6.08 6.08 0 0 1 1-1.4 1.44 1.44 0 0 1 1.6-.3c.6.2.7-.3.4-.5a2.1 2.1 0 0 0 -1.1-.4 3 3 0 0 0 -2.7 2.3c-.2.7.6.7.8.3" fill="#fff"/><path d="m251.4 65.4a8.18 8.18 0 0 0 -.9-.8c-1.5-.2-3.4.8-4.9 3.4.1.5.7.5 1.1.1a7.2 7.2 0 0 1 4.3-1.7c.7 0 .7-.6.4-1" fill="#fff"/><path d="m215.1 24.9a1 1 0 0 0 -.8-.9c-.4 0-.6.3-.6.8a1 1 0 0 0 .9.9c.3 0 .5-.3.5-.8" fill="#fff"/><path d="m239.8 62.4a7.27 7.27 0 0 0 .6 2.1c.5 1.2 1.3 1 1.1-.7a9.59 9.59 0 0 1 1.9-7c.4-.5-.4-1-1.1-.8a12.22 12.22 0 0 0 -2.2 4.8c-.1.5-.2 1.1-.3 1.6" fill="#fff"/><path d="m231.7 42.3v4.9a35.5 35.5 0 0 0 4.7-.9v-4.7a15.53 15.53 0 0 1 -4.7.7" fill="#b75422"/><path d="m248.1 53.1a4.11 4.11 0 0 0 -1.5 2.5 23.75 23.75 0 0 1 1.1 7.9 6 6 0 0 1 3.5-.4 25.42 25.42 0 0 0 -1.1-8.4 10.63 10.63 0 0 0 -1.1-.9 5.5 5.5 0 0 0 -.9-.7" fill="#8d364a"/><path d="m236.1 49.7a12.5 12.5 0 0 0 -4.4 1.9l-.1 10a4 4 0 0 1 4.1 0c.1-3.5.4-9.8.4-11.9" fill="#8d364a"/><path d="m256.3 52.2a5.61 5.61 0 0 0 -7 .5 24.26 24.26 0 0 0 2.9 2.1c1.4 1 3.9 1.3 4.8 0 .2-.2.2 0 .2.2a2.63 2.63 0 0 1 -1.5 1.8 3.09 3.09 0 0 0 1.4-.7c.7-.6 1.3-2.3-.8-3.9" fill="#ba272b"/><path d="m261.7 52.3a11.48 11.48 0 0 0 -.2-1.4 12 12 0 0 0 -1.1-1.2c-3.3-2.8-11.1-.7-12.7 1.5a3.21 3.21 0 0 0 2.7-.1c3.6-1.4 7.8-.6 10.1 1.5 1 .9 1.2.2 1.2-.3" fill="#f89728"/><path d="m191.6 52.6a2.18 2.18 0 0 1 .4-.5 4.66 4.66 0 0 0 -1.4-1.4c-3-1.4-7.3-2.7-10.3-.2a5.71 5.71 0 0 0 -1.3 1.4l.3 1.8c3.3-4.1 10.1-2.5 12.3-1.1" fill="#f89728"/><path d="m189.5 56.8a4.76 4.76 0 0 1 -2.5.9 2.39 2.39 0 0 1 -2.3-1.8c0-.2.3-.4.4-.1.6 1.2 2 1.1 3.4.2a12.21 12.21 0 0 0 2.3-2.2c-3.2-1.7-6.7-1-6.5 1.7.3 3.2 3.8 2.7 5.2 1.3" fill="#ba272b"/><path d="m181.1 89.7 4.2 2.5-2.3 3.1-3.6-2.7z" fill="#ef4123"/><path d="m258.6 89.5 1.9 2.7-3.2 2.2-2.6-2.7z" fill="#ef4123"/><path d="m220.5 75.1a2.9 2.9 0 1 1 2.9-2.9 3 3 0 0 1 -2.9 2.9" fill="#fff"/><path d="m223.3 57.4a2.9 2.9 0 1 0 -2.9 2.9 2.84 2.84 0 0 0 2.9-2.9" fill="#fff"/><path d="m223.1 50.5a2.7 2.7 0 1 0 -2.7 2.7 2.69 2.69 0 0 0 2.7-2.7" fill="#fff"/><path d="m222.9 44.5a2.4 2.4 0 1 0 -2.4 2.4 2.43 2.43 0 0 0 2.4-2.4" fill="#fff"/><path d="m222.9 38.6a2.4 2.4 0 1 0 -2.4 2.4 2.43 2.43 0 0 0 2.4-2.4" fill="#fff"/><path d="m174.1 74.3c-1.8.7-2.9 2.4-2.3 4.1s2.2 2.2 4.1 1.6c-.5-1.4-1.6-4.9-1.8-5.7" fill="#fff"/><path d="m264.9 78.5c1.8.7 3.6.1 4.2-1.6s-.4-3.4-2.3-4.1c-.2.8-1.4 4.4-1.9 5.7" fill="#fff"/><path d="m223.7 13.4a3.3 3.3 0 1 0 -3.3 3.3 3.27 3.27 0 0 0 3.3-3.3" fill="#fff"/><path d="m169.7 69.7a2.9 2.9 0 1 1 2.9-2.9 2.9 2.9 0 0 1 -2.9 2.9m-.6-12.1a3 3 0 1 0 -3 3 3 3 0 0 0 3-3m-.7-9.2a3 3 0 1 0 -3 3 3 3 0 0 0 3-3m3.4-9.7a3.22 3.22 0 0 0 -3.2-3.2 3.2 3.2 0 1 0 0 6.4 3.1 3.1 0 0 0 3.2-3.2m25-6.6a3.2 3.2 0 1 0 -3.2 3.2 3.22 3.22 0 0 0 3.2-3.2m54.1.4a3.22 3.22 0 0 0 -3.2-3.2 3.2 3.2 0 1 0 0 6.4 3.22 3.22 0 0 0 3.2-3.2m24.4 6.2a3.2 3.2 0 1 0 -3.2 3.2 3.22 3.22 0 0 0 3.2-3.2m-71.7-3.9a3 3 0 1 0 -3 3 3 3 0 0 0 3-3m6.9 2.7a3 3 0 1 0 -3 3 3 3 0 0 0 3-3m60.7 30.3a2.9 2.9 0 1 0 -2.9-2.9 2.9 2.9 0 0 0 2.9 2.9m2.1-8.9a3 3 0 1 0 -3-3 3.08 3.08 0 0 0 3 3m.9-9a3 3 0 1 0 -3-3 3.08 3.08 0 0 0 3 3m-8.9-14.6a3.4 3.4 0 1 0 -3.4-3.4 3.37 3.37 0 0 0 3.4 3.4m-9.4-1.6a3.4 3.4 0 1 0 -3.4-3.4 3.37 3.37 0 0 0 3.4 3.4m-76.1-1.8a3.4 3.4 0 1 0 -3.4 3.4 3.44 3.44 0 0 0 3.4-3.4m9.4-1.8a3.4 3.4 0 1 0 -3.4 3.4 3.44 3.44 0 0 0 3.4-3.4m51.5 8.2a3 3 0 0 0 3-3 3 3 0 0 0 -6 0 3 3 0 0 0 3 3m-7 2.7a3 3 0 0 0 3-3 3.08 3.08 0 0 0 -3-3 3 3 0 0 0 0 6" fill="#fff"/><path d="m243 92.8a11 11 0 0 1 -1.8-.2c-3-.6-5-2.5-4.6-4.4.3-1.4 1.9-2.4 4.2-2.4a11 11 0 0 1 1.8.2c3 .6 5 2.5 4.6 4.4-.3 1.5-1.9 2.4-4.2 2.4"/><path d="m242.4 87.1c-2.3-.5-4.5.1-4.7 1.4s1.4 2.7 3.8 3.2 4.5-.1 4.7-1.4-1.4-2.7-3.8-3.2m1.6 3.5c-1.4 1.2-4-.1-4.1-1.3 2.9 1.4 3.8.3 3.5-1a1.35 1.35 0 0 1 .6 2.3" fill="#008750"/><path d="m197.9 92.8a11 11 0 0 0 1.8-.2c3-.6 5-2.5 4.6-4.4-.3-1.4-1.9-2.4-4.2-2.4a11 11 0 0 0 -1.8.2c-3 .6-5 2.5-4.6 4.4.3 1.5 1.9 2.4 4.2 2.4"/><path d="m241.8 88.8c-.2.3-.9.2-1.3 0s-.6-.5-.5-.8 1-.3 1.4-.1a.63.63 0 0 1 .4.9" fill="#bfd730"/><path d="m203.2 88.5c-.3-1.3-2.4-1.9-4.7-1.4s-4 1.9-3.8 3.2 2.4 1.9 4.7 1.4 4.1-2 3.8-3.2m-1.2.6a3.27 3.27 0 0 1 -3.7 1.5c.1-.3.6-.5.9-.6a1.55 1.55 0 0 0 1.3-1.3c-.1-1.1 1.9-.4 1.5.4" fill="#008750"/><path d="m199.2 88.8c0 .4-.5.6-1 .6a.72.72 0 1 1 0-1.4 1 1 0 0 1 1 .8" fill="#bfd730"/><path d="m214.6 91.4a1.22 1.22 0 0 1 -1.2-1.2v-3.5a1.22 1.22 0 0 1 1.2-1.2h11.8a1.22 1.22 0 0 1 1.2 1.2v3.5a1.22 1.22 0 0 1 -1.2 1.2z"/><path d="m214.1 86.9a.65.65 0 0 1 .6-.6h11.4a.65.65 0 0 1 .6.6v3a.65.65 0 0 1 -.6.6h-11.4a.65.65 0 0 1 -.6-.6z" fill="#034e95"/><path d="m215.3 87.4c0-.1.1-.2.3-.2h4.9c.1 0 .3.1.3.2v1.2c0 .1-.1.2-.3.2h-4.9c-.2 0-.3-.1-.3-.2z" fill="#58b0e2"/><path d="m193.3 97.9c-1.7.4-3.1.7-4.3 1.1-1.3 5.8.5 9.7 3.1 12.2 1.3-.4 2.7-.8 4.1-1.1-4.1-3.9-4.1-7.9-2.9-12.2" fill="#afd2e3"/><path d="m235.7 107.9c1.7.2 3.4.5 5.1.8a20.54 20.54 0 0 0 1.9-11.6c-1.5-.2-3-.5-4.7-.7.7 2.3 1.4 6.1-2.3 11.5" fill="#afd2e3"/><path d="m246.8 97.8c.8 4.2.5 7.8-2.2 11.6q2.85.6 5.4 1.2c1.7-2.6 2.9-5.9 2.3-11.5a31.91 31.91 0 0 0 -3.4-.9c-.7-.1-1.4-.3-2.1-.4" fill="#9ba2a8"/><path d="m187 107.1a15.4 15.4 0 0 0 3.1-3.3 11.77 11.77 0 0 1 6.8-3.9c1.3-.1 1.6 1 .1 1.2a7.09 7.09 0 0 0 -4.2 2.3c-.5.5-.1 1 .7 1.1s2.2-.1 3 .7a11.91 11.91 0 0 0 -4.7.8 9.47 9.47 0 0 1 -4.8 1.1m15.4-3.6a6.63 6.63 0 0 1 3.4-1.2 20 20 0 0 1 5.1.7c-.6-1.2-2.2-1.4-3.9-1.7-.5-.1-.7-.4-.2-.8a7.92 7.92 0 0 1 5.1-1.5c.8 0 1-.5.1-.7-4.5-1-7.9 2-8.9 3a8.77 8.77 0 0 1 -4 2.2c.5.7 2.2.8 3.3 0m24.7-5a6.54 6.54 0 0 0 -4.2 0 24.11 24.11 0 0 0 -4.9 2.6 5.88 5.88 0 0 1 -4.1.8c.2.7 2.5 1.2 5 .5s4.9-.7 6 .2c.7.5 1.6 0 1-.6a4.7 4.7 0 0 0 -3-1c-.6-.1-.8-.6-.5-.8.5-.4 2.4-1.8 4.2-.9.6.2 1.2-.4.5-.8m1.5 3.7c.5.8.8 1.7 3.2.8s5.8.2 6.7.7 1.1-.2.6-.5a15.08 15.08 0 0 0 -2.8-1c-.8-.1-.3-.7 0-.9a6.66 6.66 0 0 1 4.5-1.3c.9 0 .7-.5-.2-.6s-3.4-.3-8 1.8c-.4.5-1.6 1.6-4 1m24.7.5c-1.5-.9-3.5-2-4.9-.9a28.55 28.55 0 0 1 -7.6 3.1c.8.5 1.9.5 3.6.1 1.4-.3 3.1-.6 4.4 0a12.56 12.56 0 0 0 2.9 1.2c.5.2.6-.3.2-.6a14 14 0 0 0 -2.2-1.4c-.6-.3-.3-.8 0-1s1.2-.5 3.6-.5"/><path d="m259.2 90.3-.5-.8-4 2.2.7.7c1-.5 2.9-1.5 3.8-2.1" fill="#f89728"/><path d="m181.1 89.7-1.7 2.9 1 .8a5.13 5.13 0 0 0 1.7-3z" fill="#f89728"/><path d="m203.8 62.1a6.38 6.38 0 0 1 1.4-.8 16.94 16.94 0 0 0 -4.4-9.2 14.51 14.51 0 0 0 -1.2 2.2 16.17 16.17 0 0 1 4.2 7.8" fill="#8d364a"/><path d="m181.2 64 2.8-.7c-3.1-5.3-4.1-9.3-4.4-12-2.8 3.1-1.9 7.5 1.6 12.7" fill="#8d364a"/></svg>