<svg viewBox="0 0 67.09 16.27" xmlns="http://www.w3.org/2000/svg"><g fill="#11175e"><path d="m7.29 7.34-.8 3.35h2.74c-.27 1.8-4.7 2.58-4-1.78.47-3 4.29-4.69 5.13-2.33l4.69-1.18c-1.61-7-14-5.57-15 3.76-.49 4.54 2.91 7 6.85 7a11.29 11.29 0 0 0 6.1-1.87l1.65-6.95z"/><path d="m15.83 6.07-2.28 9.69h4.75l2.28-9.69z"/><path d="m22.87 0-3.72 15.76h4.76l3.71-15.76z"/><path d="m21.67 1.58h-4.75l-.85 3.56 5.05-1.26z"/><path d="m65.88 5.24c.14 0 .26 0 .28-.14s-.1-.1-.16-.1h-.31v.26zm.41.81h-.29l-.2-.56h-.22l-.08.56h-.28l.21-1.32h.57c.27 0 .43.09.38.4a.39.39 0 0 1 -.35.36zm.45-.66a.76.76 0 0 0 -.55-.91.6.6 0 0 0 -.23 0 1.06 1.06 0 0 0 -1.08.93.75.75 0 0 0 .54.91.69.69 0 0 0 .25 0 1.08 1.08 0 0 0 1.08-.93m-2.19 0a1.53 1.53 0 0 1 1.44-1.26 1 1 0 0 1 1.08.87 1.12 1.12 0 0 1 0 .41 1.53 1.53 0 0 1 -1.45 1.26 1 1 0 0 1 -1.09-.9.88.88 0 0 1 0-.36"/><path d="m59.72 5.29a6 6 0 0 0 -4.66 2.31v-.06l.39-1.54h-1.63l1-4.21h-4.74l-1 4.21h-.88l1-4.21h-4.75l-1 4.21h-1.45l-.6 2.6a4.54 4.54 0 0 0 -4.62-3.3 6.19 6.19 0 0 0 -5.78 4.08l2.22-9.38h-4.74l-3.71 15.76h4.74l1-4.14c-.1 1.78.69 4.65 4.78 4.65 2.14 0 4.89-1.39 5.55-3.33l-3.71-.65a2.15 2.15 0 0 1 -1.65.86c-1 0-1.31-.87-1.1-1.65h6.9a4.68 4.68 0 0 0 .26-1.34c0-.24 0-.49 0-.73h1.15l-1.53 6.34h4.84l1.51-6.35h.85l-1.49 6.35h4.75l1.51-6.35h.87a7 7 0 0 0 -.48 1.8c-.24 1.7.33 5 4.74 5 2.14 0 4.89-1.39 5.55-3.33l-3.71-.65a2.15 2.15 0 0 1 -1.65.86c-1 0-1.31-.87-1.1-1.65h6.9a4.75 4.75 0 0 0 .26-1.35c.18-3.29-2.39-4.81-4.79-4.81zm-22.21 4.27h-2.63c.4-1.36 2.84-1.67 2.63 0zm23 0h-2.67c.4-1.34 2.84-1.66 2.63.02z"/></g></svg>