<svg enable-background="new 0 0 623.3 623.3" viewBox="0 0 623.3 623.3" xmlns="http://www.w3.org/2000/svg"><circle cx="311.6" cy="311.6" fill="#fff" r="311.6"/><g fill="#015294"><path d="m310.8 1c9.2 0 18.5-2.1 27.6-.2 40.6 3.6 80.7 14.8 116.9 33.8 46.8 24 87 60.4 116.2 104 29.8 44.4 51.8 106.2 51.8 173 0 51.7-13.1 100-31.2 136.4-47.6 97.4-142.3 163-250.1 173.3-8.9.6-17.8 2.3-26.8 1.6-6-.4-12 1.5-17.8-.9 21.9-61.6 43.9-123.2 65.9-184.8 24-.5 48.1.2 72.1-.3 15.3-.5 30.5-9.9 35.5-24.8 20.3-57.2 41.2-114.3 60.9-171.8 3.2-8.7 5-18.4 2.5-27.5-3.5-11.5-14-19.7-25.4-22.7-9.8-3.1-20.2-1.9-30.4-2.1-30.9-.1-61.7.2-92.6-.1-.5 1-1.5 3.1-2 4.1-50 140.3-100 280.7-150 421-116.2-30.3-204.9-124.7-227.7-242.7-3.7-18.8-5.1-38-6.1-57.1.8-39.8 7.4-79.8 22.4-116.9 36.6-93.5 121.3-167.2 219.7-188.3-50.4 139.7-99.6 279.9-150 419.6 3.2 1 6.6.6 9.9.6 18.4-.1 36.7 0 55.1 0 2.5 0 2.2-3.5 3.3-5.1 22.1-62.5 44.5-124.9 66.7-187.3 1.2-3.9 2.7-7.7 4.4-11.4 11.5.2 23 0 34.5.1-24.1 67.7-48 135.4-72.5 203 2.6 1 5.4.7 8 .8 19.3-.2 38.6.1 57.8-.1 21.8-61.5 43.8-122.9 65.7-184.3 4.7-12.6 5.1-27.4-2.3-39-6.5-10.3-18.8-15.2-30.5-15.6-16-.5-32.1 0-48.2-.2 22-62.9 44.8-125.3 66.7-188.1z"/><path d="m438.7 225.2c1.9-2.2 5.3-.9 7.9-1.2 8.9.2 17.8-.1 26.7.1-20.8 59.2-42.5 118.2-62.9 177.5-11.5.8-23.2.3-34.7.2 21.1-58.8 41.9-117.7 63-176.6z"/></g></svg>