<svg viewBox="0 0 180.47 78.93" xmlns="http://www.w3.org/2000/svg"><g fill-rule="evenodd"><path d="m39.47 78.93a39.47 39.47 0 1 0 -39.47-39.46 39.46 39.46 0 0 0 39.47 39.46z" fill="#c40452"/><path d="m49.08 53.35h-8.18v-30.88h-3.03v33.94h3.03v-.03h8.18z" fill="#fff"/><path d="m69.48 40.73h-20.36v-3h23.34v1.77a33 33 0 1 1 -33-33h1.43v3c-.47 0-.95 0-1.43 0a30 30 0 1 0 30 31.39v-.09z" fill="#fff"/><path d="m27.14 31.61a4.64 4.64 0 1 0 -4.64-4.61 4.64 4.64 0 0 0 4.64 4.64z" fill="#fff"/></g><path d="m112.15 65.09h21.73v-10h-24.53v-41.24h-11.83v51.24zm47.77-19.53h9.65v8.95a27.22 27.22 0 0 1 -8.57 1.36c-10.65 0-14.2-5.41-14.2-16.41 0-10.48 3.38-16.65 14-16.65 5.93 0 9.31 1.86 12.09 5.41l7.36-6.77c-4.43-6.45-12.25-8.36-19.65-8.36-16.58 0-25.28 9-25.28 26.29s7.86 26.47 25.19 26.47c8 0 15.74-2 20-5v-24.85h-20.59z" fill="#6c6d6d"/></svg>