<svg enable-background="new 0 0 136 23" viewBox="0 0 136 23" xmlns="http://www.w3.org/2000/svg"><g clip-rule="evenodd" fill-rule="evenodd"><path d="m10.7 7.3v-6.8h-10.2v10.5c0 5.8 4.7 10.5 10.5 10.5h10.5v-10.2h-6.7c-2.3 0-4.1-1.8-4.1-4z" fill="#ee3124"/><path d="m14.1 5.1v-4.6h-3.1v6.9c0 1.9 1.6 3.5 3.5 3.5h6.9v-3.1h-4.6c-1.4 0-2.6-1.2-2.7-2.7z" fill="#f78e1e"/><path d="m17.8 2.8v-2.3h-3.1v4.6c0 1.2 1 2.1 2.1 2.1h4.6v-3h-2.3c-.7 0-1.3-.6-1.3-1.4z" fill="#f78e1e"/><path d="m18.4.5v2.3c0 .4.3.8.8.8h2.3v-3.1z" fill="#f78e1e"/></g><path d="m48.5 5.9c5 0 8.2 3.3 8.2 8.4 0 5-3.2 8.4-8.2 8.4s-8.2-3.3-8.2-8.4 3.3-8.4 8.2-8.4zm0 13.4c3 0 3.9-2.6 3.9-5.1 0-2.6-.9-5.1-3.9-5.1-2.9 0-3.8 2.6-3.8 5.1s.9 5.1 3.8 5.1zm9.4-18.8h4.3v7.7h.1c1.1-1.6 3-2.4 5-2.4 3.2 0 6.5 2.6 6.5 8.4s-3.4 8.4-6.5 8.4c-2.3 0-4.2-.7-5.2-2.4h-.1v2h-4.1zm7.8 8.7c-2.6 0-3.7 2.4-3.7 5.1 0 2.6 1.1 5.1 3.7 5.1s3.7-2.4 3.7-5.1-1.1-5.1-3.7-5.1z" fill="#231f20"/><path clip-rule="evenodd" d="m74.9.5h4.3v21.7h-4.3z" fill="#231f20" fill-rule="evenodd"/><path d="m80.8 11.3c.2-4.1 3.9-5.3 7.4-5.3 3.1 0 6.9.7 6.9 4.5v8.3c0 1.4.2 2.9.5 3.5h-4.4c-.2-.5-.3-1-.3-1.5-1.4 1.5-3.4 2-5.3 2-3 0-5.4-1.5-5.4-4.8 0-3.6 2.7-4.5 5.4-4.8 2.7-.4 5.1-.3 5.1-2.1 0-1.9-1.3-2.1-2.8-2.1-1.6 0-2.7.7-2.9 2.4zm9.9 3.2c-.7.6-2.3.7-3.6.9-1.3.3-2.6.7-2.6 2.3s1.3 2 2.7 2c3.4 0 3.5-2.7 3.5-3.7z" fill="#231f20"/><path clip-rule="evenodd" d="m114.7 22.2h-4.5l-2.8-10.6-2.7 10.6h-4.5l-5-15.9h4.6l2.9 10.8h.1l2.6-10.8h4.2l2.7 10.8h.1l2.9-10.8h4.5zm8.6-5.1c0 1.9 1.6 2.7 3.3 2.7 1.3 0 2.8-.5 2.8-2 0-1.3-1.8-1.8-4.9-2.4-2.5-.5-5-1.4-5-4.2 0-4 3.5-5.1 6.9-5.1s6.6 1.2 6.9 5.1h-4.1c-.1-1.7-1.4-2.1-3-2.1-1 0-2.4.2-2.4 1.5 0 1.6 2.4 1.8 4.9 2.4s5 1.5 5 4.5c0 4.2-3.6 5.5-7.2 5.5-3.7 0-7.2-1.4-7.4-5.6zm-90.5.6c-1 0-1.9-.8-1.9-1.9v-15.3h-4.8v15.3c0 1.7.7 3.3 1.9 4.5 1.1 1.1 2.7 1.9 4.5 1.9h7.7v-4.5z" fill="#231f20" fill-rule="evenodd"/><path d="m135.1 5.4c.3.3.4.7.4 1.1s-.2.8-.5 1.1c-.2.2-.6.4-1 .4s-.8-.1-1.1-.4-.4-.6-.4-1.1c0-.4.2-.8.5-1.1s.6-.4 1-.4c.4-.1.8.1 1.1.4zm-1.1-.2c-.3 0-.6.1-.9.4-.2.2-.4.5-.4.9 0 .3.1.6.4.9.2.2.5.4.9.4.3 0 .6-.1.9-.4.2-.2.4-.5.4-.9 0-.3-.1-.6-.4-.9s-.6-.4-.9-.4zm-.2 1.5v.6h-.4v-1.7h.5.3c.1 0 .2 0 .3.1s.2.2.2.4c0 .1 0 .2-.1.3s-.2.1-.3.1c.1 0 .2.1.2.1.1.1.1.2.1.4v.3h-.4v-.2c0-.1 0-.2 0-.2 0-.1-.1-.1-.1-.1h-.1zm.1-.3c.1 0 .2 0 .2-.1.1 0 .1-.1.1-.2s0-.2-.1-.2-.1 0-.3 0h-.1v.5z"/></svg>