<svg viewBox="0 0 204.81 59.75" xmlns="http://www.w3.org/2000/svg"><path d="m7.5.81v41.5h-7.5v-41.5zm35.31 26.88a14.91 14.91 0 0 1 -4.69 11 16 16 0 0 1 -5.18 3.25 16.72 16.72 0 0 1 -6.32 1.18 16.87 16.87 0 0 1 -6.37-1.18 16.37 16.37 0 0 1 -5.13-3.25 15 15 0 0 1 -4.68-11 14.84 14.84 0 0 1 1.25-6.13 15.37 15.37 0 0 1 3.43-4.9 15.92 15.92 0 0 1 5.13-3.28 16.68 16.68 0 0 1 6.37-1.19 16.53 16.53 0 0 1 6.32 1.19 15.62 15.62 0 0 1 5.18 3.28 15.24 15.24 0 0 1 3.44 4.9 14.84 14.84 0 0 1 1.25 6.13zm-22.31 5.93a8.43 8.43 0 0 0 6.12 2.44 8.52 8.52 0 0 0 6.13-2.4 8 8 0 0 0 2.5-6 8 8 0 0 0 -2.5-6 8.49 8.49 0 0 0 -6.13-2.41 8.48 8.48 0 0 0 -6.12 2.41 7.92 7.92 0 0 0 -2.5 6 8 8 0 0 0 2.5 5.96zm26.12-12.06a15.4 15.4 0 0 1 3.44-4.9 15.92 15.92 0 0 1 5.13-3.28 17 17 0 0 1 6.37-1.19 15 15 0 0 1 2.75.25 16.89 16.89 0 0 1 2.63.68h10.5v5.82l-2.13.68a12.15 12.15 0 0 1 1.81 3.72 15.06 15.06 0 0 1 .63 4.35 15.23 15.23 0 0 1 -1.25 6.12 15 15 0 0 1 -3.44 4.88 16.32 16.32 0 0 1 -5.12 3.25 17.81 17.81 0 0 1 -12.75 0 16.37 16.37 0 0 1 -5.13-3.25 15.43 15.43 0 0 1 -3.44-17.13zm21.07 28.66a8 8 0 0 0 2.5-6h7.56a15 15 0 0 1 -1.25 6.13 15.24 15.24 0 0 1 -3.44 4.9 15.88 15.88 0 0 1 -5.12 3.28 17.67 17.67 0 0 1 -12.75 0 15.92 15.92 0 0 1 -5.13-3.28 15.4 15.4 0 0 1 -3.44-4.9 15 15 0 0 1 -1.24-6.13h7.62a8 8 0 0 0 2.47 6 8.4 8.4 0 0 0 6.09 2.4 8.52 8.52 0 0 0 6.13-2.4zm-12.22-16.6a8.31 8.31 0 0 0 6.09 2.44 8.52 8.52 0 0 0 6.13-2.4 8 8 0 0 0 2.5-6 8 8 0 0 0 -2.5-6 8.49 8.49 0 0 0 -6.13-2.41 8.36 8.36 0 0 0 -6.09 2.41 8 8 0 0 0 -2.47 6 8.07 8.07 0 0 0 2.47 5.96zm28.97-33.62a5 5 0 0 1 3.56 1.38 4.54 4.54 0 0 1 1.44 3.43 4.49 4.49 0 0 1 -1.44 3.38 5 5 0 0 1 -3.56 1.37 4.89 4.89 0 0 1 -3.5-1.37 4.49 4.49 0 0 1 -1.44-3.38 4.54 4.54 0 0 1 1.44-3.43 4.86 4.86 0 0 1 3.5-1.38zm-3.69 13.12h7.5v29.19h-7.5zm14.75 6.5h-4.06v-6.5h4.06v-9h7.44v9h4.12v6.5h-4.12v22.69h-7.44zm21.94 22.38a14.78 14.78 0 0 1 -5.06-3.22 13.94 13.94 0 0 1 -3.19-4.84 16.38 16.38 0 0 1 -1.13-6.13 16.1 16.1 0 0 1 1.19-6.19 14.88 14.88 0 0 1 3.31-5 15.3 15.3 0 0 1 5.06-3.28 17 17 0 0 1 12.5 0 14.8 14.8 0 0 1 4.85 3.4 15 15 0 0 1 3.15 5.26 19.38 19.38 0 0 1 1.13 6.81v1.75h-23.31a7.8 7.8 0 0 0 3 4.5 8.63 8.63 0 0 0 5.28 1.63 9.37 9.37 0 0 0 4.56-1.13 18.79 18.79 0 0 0 3.87-2.81l5.07 4.81a17.23 17.23 0 0 1 -6.16 4.16 20.08 20.08 0 0 1 -7.53 1.4 18.2 18.2 0 0 1 -6.59-1.12zm14.06-17.31a7.76 7.76 0 0 0 -2.81-4.53 8.17 8.17 0 0 0 -5-1.54 8.35 8.35 0 0 0 -5.07 1.57 7.75 7.75 0 0 0 -2.87 4.5zm39.25 12.56a15.15 15.15 0 0 1 -5.53 4.31 17 17 0 0 1 -7.28 1.56 16.76 16.76 0 0 1 -6.32-1.18 16.16 16.16 0 0 1 -5.18-3.25 15 15 0 0 1 -3.44-4.88 15.23 15.23 0 0 1 -1.25-6.12 15 15 0 0 1 1.25-6.13 15.24 15.24 0 0 1 3.44-4.9 15.73 15.73 0 0 1 5.18-3.28 16.57 16.57 0 0 1 6.32-1.19 16.75 16.75 0 0 1 7.28 1.59 15.74 15.74 0 0 1 5.53 4.28l-5.19 5a12.83 12.83 0 0 0 -3.44-2.75 8.77 8.77 0 0 0 -4.31-1.06 8.28 8.28 0 0 0 -6.06 2.41 8.09 8.09 0 0 0 -2.44 6 8.05 8.05 0 0 0 2.44 6 8.31 8.31 0 0 0 6.06 2.4 8.81 8.81 0 0 0 4.35-1.06 12.94 12.94 0 0 0 3.4-2.72zm2.81-36.44h7.5v15.07a11.11 11.11 0 0 1 4-2.72 13.11 13.11 0 0 1 5.09-1 12.08 12.08 0 0 1 8.82 3.43q3.5 3.45 3.5 9.5v17.22h-7.5v-15.87a7.53 7.53 0 0 0 -1.69-5.28 6.28 6.28 0 0 0 -4.87-1.85 7.21 7.21 0 0 0 -5.38 2 7 7 0 0 0 -1.94 5.16v15.84h-7.5zm28.69 6.88a2.46 2.46 0 0 1 1.81.75 2.39 2.39 0 0 1 .75 1.75 2.43 2.43 0 0 1 -.75 1.84 2.51 2.51 0 0 1 -1.81.72 2.62 2.62 0 0 1 -1.84-.72 2.36 2.36 0 0 1 -.79-1.84 2.32 2.32 0 0 1 .79-1.75 2.56 2.56 0 0 1 1.84-.75zm0 .37a2.19 2.19 0 0 0 -1.59.63 2 2 0 0 0 -.66 1.5 2.13 2.13 0 0 0 .66 1.62 2.32 2.32 0 0 0 3.18 0 2.13 2.13 0 0 0 .66-1.62 2 2 0 0 0 -.66-1.5 2.19 2.19 0 0 0 -1.59-.63zm-.56 2.44v1h-.38v-2.56h.94a1.54 1.54 0 0 1 .72.15.63.63 0 0 1 .28.6.7.7 0 0 1 -.16.53.9.9 0 0 1 -.47.22l.69 1.06h-.37l-.69-1zm0-.31h.56a.81.81 0 0 0 .53-.13.46.46 0 0 0 .16-.37.38.38 0 0 0 -.16-.31.81.81 0 0 0 -.53-.13h-.56z" fill="#231f20"/></svg>