<svg viewBox="0 0 115.48 21.17" xmlns="http://www.w3.org/2000/svg"><path d="m62 13-1.67.2c-1.45.18-2.72.69-2.72 1.92a1.57 1.57 0 0 0 1.73 1.48 3.61 3.61 0 0 0 2.66-1.54zm0 5.3v-1.3a4 4 0 0 1 -3.24 1.51 3.3 3.3 0 0 1 -3.56-3.34c0-2.56 2.4-3.5 4.75-3.75l.92-.1c.89-.08 1.21-.58 1.21-1.18s-.7-1.27-1.75-1.27a3.67 3.67 0 0 0 -2.82 1.57l-1.41-1.62a5.35 5.35 0 0 1 4.34-1.89c2.54 0 4 1.31 4 3.5v7.85z"/><path d="m69.09 18.28h-2.45v-11.09h2.45v1.25a5.57 5.57 0 0 1 3.61-1.51c1.32 0 3.1.76 3.1 3.46v7.89h-2.44v-7.28c0-1.1-.46-2-1.59-2a4.76 4.76 0 0 0 -2.68 1.31z"/><path d="m84.41 7.19h2.45v11.09h-2.53v-1.19a4.74 4.74 0 0 1 -3.2 1.45 3.24 3.24 0 0 1 -3.42-3.54v-7.81h2.45v7c0 1.29.55 2.19 1.7 2.19a3.63 3.63 0 0 0 2.55-1.38z"/><path d="m92 18.28h-2.44v-14.59l2.44-2.42z"/><path d="m97.25 18.28h-2.55v-11.09h2.55zm-1.25-16.08a1.56 1.56 0 0 1 0 3.12 1.59 1.59 0 0 1 -1.6-1.57 1.58 1.58 0 0 1 1.6-1.55"/><path d="m105 9.22h-2.33v9.07h-2.44v-9.07h-1.49v-2h1.49v-2.32a3.29 3.29 0 0 1 3.48-3.47 5.55 5.55 0 0 1 2.5.57l-.77 1.91a2.86 2.86 0 0 0 -1.35-.4 1.42 1.42 0 0 0 -1.42 1.49v2.19h2.91z"/><path d="m112.91 11.52a2.42 2.42 0 0 0 -2.34-2.62 2.76 2.76 0 0 0 -2.57 2.62zm-5 1.87a2.94 2.94 0 0 0 2.84 3.07 3.51 3.51 0 0 0 2.87-1.71l1.53 1.43a5.7 5.7 0 0 1 -4.63 2.36c-3.17 0-5.13-2.38-5.13-5.8s2.12-5.81 5.2-5.81 5 1.93 4.9 6.46z"/><path d="m41.16 18.28h-2.67v-15.39h2.89l4.53 7.57 4.51-7.57h2.83v15.39h-2.65v-10.9l-4.67 7.75-4.73-7.75z"/><g fill="#00ac5b"><path d="m15.4 3.85v17.32l3.85-3.85v-17.32z"/><path d="m7.7 21.17 3.85-3.85v-17.32l-3.85 3.85z"/><path d="m0 21.17 3.85-3.85v-17.32l-3.85 3.85z"/></g></svg>