<svg viewBox="0 0 338.42 59.67" xmlns="http://www.w3.org/2000/svg"><g fill="#4d6e80"><path d="m0 18h19.91l15.02 27.39 14.96-27.39h19.78v41.23h-12.24l.62-31.84-18.3 31.84h-10.02l-17.98-31.83.37 31.84h-12.12z"/><path d="m125.22 18.19c6.37 1.17 9.46 4.45 10.32 11.06.25 1.67.37 5.01.37 10.02 0 9.95-1.05 13.97-4.58 16.88-2.47 2.1-5.93 3.09-11.93 3.34-2.22.12-7.73.19-11.75.19-9.83 0-14.84-.19-17.31-.68-4.58-.81-7.23-2.54-8.78-5.57-1.61-3.03-1.98-6.06-1.98-15.08 0-6.93.12-8.66.87-11.44 1.18-4.39 3.59-6.74 8.22-8.1 3.46-.99 7.23-1.24 18.11-1.24 11.87 0 15.52.13 18.42.62zm-30.79 10.94c-1.67 1.3-2.16 3.34-2.16 9.27s.5 8.29 2.04 9.58c1.67 1.36 3.71 1.61 13.17 1.61 10.82 0 13.04-.37 14.46-2.35 1.18-1.48 1.48-3.58 1.48-9.09 0-10.38-.19-10.51-15.64-10.51-9.21 0-11.75.31-13.35 1.48z"/><path d="m161.61 28.2h-18.36v-10.2h49.27v10.2h-18.36v31.03h-12.55z"/><path d="m200.52 18h12.55v41.23h-12.55z"/><path d="m220.56 18h13.85l16.26 31.16 16.63-31.16h13.97l-22.81 41.23h-15.89z"/><path d="m299.04 18h16.81l22.56 41.23h-13.72l-4.08-7.36h-26.58l-3.96 7.36h-14.22l23.18-41.23zm17.18 25.28-8.9-16.44-8.78 16.44z"/><path d="m143.25 10.2v-10.2h49.27v10.2z"/></g></svg>