<svg viewBox="316.2 33.8 630.2 118.2" xmlns="http://www.w3.org/2000/svg"><path d="m578.2 34v118h33.3v-118zm-262-.2v118.1h33.6v-91.7l26.2.1c8.6 0 14.6 2.1 18.7 6.5 5.3 5.6 7.4 14.7 7.4 31.2v53.9h32.6v-65.2c0-46.6-29.7-52.9-58.7-52.9zm315.7.2v118h54c28.8 0 38.2-4.8 48.3-15.5 7.2-7.5 11.8-24.1 11.8-42.2 0-16.6-3.9-31.4-10.8-40.6-12.2-16.5-30-19.7-56.6-19.7zm33 25.6h14.3c20.8 0 34.2 9.3 34.2 33.5s-13.4 33.6-34.2 33.6h-14.3zm-134.7-25.6-27.8 93.5-26.6-93.5h-36l38 118h48l38.4-118zm231.4 118h33.3v-118h-33.3zm93.4-118-46.5 117.9h32.8l7.4-20.9h55l7 20.8h35.7l-46.9-117.8zm21.6 21.5 20.2 55.2h-41z"/></svg>