<svg viewBox="0 0 118.87 48" xmlns="http://www.w3.org/2000/svg"><g fill-rule="evenodd"><path d="m90.18 26.32a2.38 2.38 0 0 1 -1.73-.69 2.35 2.35 0 0 1 0-3.36 2.4 2.4 0 0 1 1.72-.7 3.41 3.41 0 0 1 2.31.91l1.12-2.55a5.35 5.35 0 0 0 -9 4 5.17 5.17 0 0 0 1.44 3.73 5.12 5.12 0 0 0 3.96 1.51 5 5 0 0 0 3.61-1.17l-1.12-2.54a3.39 3.39 0 0 1 -2.31.86zm-12.76-6.32v-1h-3.09v9.82h3.09v-5.03a2.12 2.12 0 0 1 .59-1.7 1.94 1.94 0 0 1 1.26-.52c1 0 1.54.64 1.54 1.9v5.39h3.08v-5.7a4.63 4.63 0 0 0 -1.07-3.28 3.61 3.61 0 0 0 -5.4.11zm-8.42 5.63a2 2 0 0 1 -3 0 2.53 2.53 0 0 1 0-3.36 2 2 0 0 1 3 0 2.52 2.52 0 0 1 0 3.36zm.63-6.63v.83a3.88 3.88 0 0 0 -2.78-1.15 4.19 4.19 0 0 0 -3.27 1.53 5.33 5.33 0 0 0 -1.35 3.79 5.35 5.35 0 0 0 1.35 3.7 4.18 4.18 0 0 0 3.27 1.52 3.85 3.85 0 0 0 2.78-1.22v.83h3.08v-9.83zm-14.8 1v-1h-3.09v9.82h3.09v-5.03a2.16 2.16 0 0 1 .59-1.7 1.94 1.94 0 0 1 1.26-.52c1 0 1.54.64 1.54 1.9v5.39h3.08v-5.7a4.63 4.63 0 0 0 -1.07-3.28 3.61 3.61 0 0 0 -5.4.11zm55.43-5.49h3.07v14.35h-3.08v-14.36zm-8.18 11.14a2 2 0 0 0 3 0 2.54 2.54 0 0 0 0-3.35 2 2 0 0 0 -3 0 2.54 2.54 0 0 0 0 3.35zm3.67-6.57h3.08v9.79h-3.08v-.87a3.84 3.84 0 0 1 -2.75 1.18 4.19 4.19 0 0 1 -3.26-1.52 5.39 5.39 0 0 1 -1.37-3.66 5.38 5.38 0 0 1 1.35-3.69 4.19 4.19 0 0 1 3.28-1.56 3.84 3.84 0 0 1 2.77 1.15zm-11.37 9.78h3.07v-9.79h-3.07zm3.21-12.64a1.67 1.67 0 0 0 -.49-1.22 1.65 1.65 0 0 0 -2.37 0 1.76 1.76 0 0 0 0 2.44 1.59 1.59 0 0 0 1.18.5 1.62 1.62 0 0 0 1.19-.5 1.67 1.67 0 0 0 .49-1.22zm-50.27 12.64h3.07v-9.79h-3.07zm3.21-12.64a1.67 1.67 0 0 0 -.53-1.22 1.65 1.65 0 0 0 -2.37 0 1.76 1.76 0 0 0 0 2.44 1.65 1.65 0 0 0 2.37 0 1.67 1.67 0 0 0 .53-1.22zm-10.86 2.85h1.23v-.85c0-4.14 2.81-4.1 3.2-4.1a7.82 7.82 0 0 1 2.29.33l-.26 2.55a7.58 7.58 0 0 0 -.91-.12 1.17 1.17 0 0 0 -.69.15c-.31.19-.55.59-.55 1.43v.63h2.16v2.84h-2.14v7h-3.1v-7.02h-1.23zm77.33-3.59v.39h.27a.3.3 0 0 0 .16 0 .19.19 0 0 0 .07-.14c0-.14-.08-.2-.23-.2zm1 1.24h-.43l-.36-.51h-.21v.51h-.38v-1.58h.64a.65.65 0 0 1 .45.14.53.53 0 0 1 .16.39.59.59 0 0 1 -.09.31.52.52 0 0 1 -.24.2l.4.54zm-1.66.13a1.26 1.26 0 0 0 .93.38 1.23 1.23 0 0 0 .93-.38 1.24 1.24 0 0 0 .38-.92 1.26 1.26 0 0 0 -.38-.92 1.23 1.23 0 0 0 -.93-.38 1.3 1.3 0 0 0 -.93 2.22zm.93.76a1.69 1.69 0 1 1 1.69-1.68 1.6 1.6 0 0 1 -.49 1.2 1.63 1.63 0 0 1 -1.29.48z"/><path d="m0 48h31.17v-48h-31.17z" fill="#e1251b"/><path d="m14.71 21.29c-.5.35-1.4.86-2 1.21-.19.12-.45.34-.54-.14-.15-.8-.56-1.47-2-.94a26 26 0 0 0 -2.78-2.26c-.78-.56-2.52-1.71-3.75-2.57a29.52 29.52 0 0 1 -2.42-1.76c-1.16-1 .54-1.46 1.27-1.68.92-.27 1.75-.55 2.82-.8a47.93 47.93 0 0 1 6.65-.95c1.72-.09 5.2-.4 6.71 1.51a11.91 11.91 0 0 0 -3.93 8.38m-.54 11.08c.5 4.58-.62 2.38-.75 2.08a25.88 25.88 0 0 1 -1.16-7 11.14 11.14 0 0 1 1.91 4.9m5.27-17.65a7.15 7.15 0 0 1 -2.54 4.94 9.17 9.17 0 0 1 2.54-4.94m1.53 12.44c-.93.08-4.42 0-4.26-4.58 4.67-3.33 4.79-7 4.28-9.16a11.6 11.6 0 0 1 3.15-1.8c.46-.2 1-.31 1.22 0 .54.79 2.39.82 1.34-1.23a1.79 1.79 0 0 0 -1.86-.87 9.89 9.89 0 0 0 -4.75 2.12c-2.12-2.36-5.49-2.26-7.84-2.17a48.17 48.17 0 0 0 -12.28 2.55v4.6a39.72 39.72 0 0 0 3.38 2.21 34.74 34.74 0 0 1 6.36 4.86c.57.61.28.52 0 .85a1.26 1.26 0 0 0 .26 1.54c.23.21.47.05.46 1a32 32 0 0 0 .8 6.5 11.33 11.33 0 0 0 1.85 4.05c1.12 1.34 2.37 1.49 2.68-.64a22.22 22.22 0 0 0 0-3.41 16 16 0 0 0 -2.76-8.23c-.28-.43-.22-.55.07-.68.93-.47 1.68-.88 1.68-.88.54 4.23 2.92 5.34 5.75 5.23 2.36-.09 6.38-1.61 10.64-4.31v-2.46c-4.06 2.77-7.68 4.69-10.17 4.91" fill="#fff"/></g></svg>