<svg viewBox="0 0 2499.56 958.99" xmlns="http://www.w3.org/2000/svg"><path d="m1309.44 221.49h205.35v722.64h-205.35zm-4.61-64.68v-156.81h210.41v156.81zm-774.83 66.26c-27.42-10.1-58.85-14.92-95.26-13.31-121.17-5.38-188.46 59.24-230.18 158.81v-145.35h-204.56v721.34h204.56v-266.46c0-164 75.71-246.06 200.19-253.61 24.39-85.18 68.76-152.74 125.2-201.42m1946.52 154.16c-105.26 3.07-232.35-79.52-281.6-110.62-4.58-2.88-5.51-5.54-10.23-7.95-5.16-2.88-10.5-5.52-15.82-8.17v303.84h-.15c.19 27.2-11.61 55.89-28.61 83.4l-1.49 2.42c-49.2 79.56-152.75 125.94-249.85 93.14-94.31-31.86-119.49-123.19-69.55-204l1.5-2.43c49.16-79.54 152.7-125.94 249.81-93.13a164.73 164.73 0 0 1 21 8.81v-219.71a421.83 421.83 0 0 0 -110.48-14.83c-224.76 0-391.63 168.22-391.63 375.47v2.7c0 207.26 165.52 372.78 388.93 372.78 224.74 0 391.63-168.21 391.63-375.47v-2.7a382.83 382.83 0 0 0 -3.07-47.59c117.06-30.51 165.33-151.64 109.65-156m-160.94 507.81h-23.41v-12.9h59.17v12.9h-20.58v56.6h-15.18zm46-12.86h21l16.6 48.58h.19l15.72-48.58h21.09v69.46h-15.17v-49h-.21l-15.89 49h-12l-15.85-48.6h-.2v48.52h-15.24v-69.42m-1347.89-872.1v315.69c-48.46-57.86-115.72-107.69-224.72-107.69-170.92 0-328.38 131.88-328.38 372.78v2.7c0 240.9 160.14 372.79 328.38 372.79 106.31 0 175-49.79 224.75-117.08v104.9h205.67v-944.09zm-12.53 636.37-1.48 2.44c-49.21 79.54-152.71 125.92-249.86 93.12-94.3-31.86-119.49-123.19-69.55-203.93l1.51-2.44c49.19-79.56 152.69-125.95 249.81-93.15 94.3 31.86 119.51 123.19 69.57 204z" fill="#2d7bc8"/></svg>