<svg viewBox="0 0 1559 1087.52" xmlns="http://www.w3.org/2000/svg" xmlns:xlink="http://www.w3.org/1999/xlink"><mask id="a" height="194.2" maskUnits="userSpaceOnUse" width="164.32" x="397.8" y="495.87"><path d="m397.8 495.87h164.32v194.06h-164.32z" fill="#fff" fill-rule="evenodd"/></mask><mask id="b" height="195.69" maskUnits="userSpaceOnUse" width="474.32" x="1042.5" y="494.24"><path d="m1042.5 494.24h474.32v195.69h-474.32z" fill="#fff" fill-rule="evenodd"/></mask><mask id="c" height="195.84" maskUnits="userSpaceOnUse" width="474.32" x="1042.5" y="494.24"><path d="m1042.5 494.24h474.32v195.69h-474.32z" fill="#fff" fill-rule="evenodd"/></mask><g mask="url(#a)"><path d="m472.29 603.6c9.97-5.21 20.82-10.41 31.67-14.33v34.03s1.79 39.1-26.68 39.1c0 0-22.14.38-22.14-26.49 0 0-3.04-22.16 17.15-32.31zm89.83 81.21v-122.45s.6-46.38-42.54-61.25c-36.02-12.6-76.81-.85-104.59 18.25l2.61 24.32c18.22-14.32 46.87-25.19 71.61-15.21 9.54 5.21 16.47 13.46 16.47 25.62-.86 8.69-5.63 14.77-12.14 19.97-1.78 1.6-28.56 9.16-28.56 9.16s-67.2 12.68-67.2 54.2 32.83 52.65 58.6 52.65c0 0 28.36.87 49.3-20.46v15.34l56.43-.15z" fill="#0024cc"/></g><path d="m178.88 391.08-178.88 294.55h32.13l129.81-208.53 6.51 208.98h19.1l130.87-208.54-.19 208.1h61.76v-294.56h-47c-36.9 56.06-112.01 172.48-112.01 172.48v-172.48h-42.11" fill="#0024cc"/><path d="m1025 686.08v-130.1c.11-26.21-7.23-46.87-42.58-60.03-26.82-6.43-53 5.21-69.93 19.13v-124h-58.49v294.56h57.62v-121.93s-3.82-34.2 27.95-34.2 28.51 34.25 28.51 34.25l.07 122.32z" fill="#0024cc"/><path d="m641.37 530.67v-29.52h-56.28l-.1 184.85 56.34.08v-70.5s-5.65-86.76 61.46-86.76l.2-29.4s-27.72-5.93-61.63 31.24" fill="#0024cc"/><path d="m1230 685.08h57v-296h-57z" fill="#0024cc"/><path d="m1312 685.08h57v-296h-57z" fill="#0024cc"/><path d="m770.76 514.39c27.11 0 52.92 15.56 52.92 15.56l2.6-21.68s-21.1-14.19-53.36-14.19-64.79 19.5-64.79 55.25c0 0-3.25 32.49 26.03 49.83l26.83 13.81s30.63 14.62 30.63 33.58-24.11 20.32-28.18 20.32-25.54-.05-54.27-16.04l-2.16 23.41s24.99 14.84 62.68 14.84c0 0 65.32 0 65.32-59.85 0-41.7-32.79-55.51-32.79-55.51l-34.43-15.98c-24.95-9.48-21.85-25.22-21.85-25.22s-2.27-18.13 24.83-18.13" fill="#0024cc"/><g mask="url(#b)"><path d="m1427.77 532.68s-3.1 15.74 21.83 25.22l34.43 15.98s32.79 13.81 32.79 55.52c0 59.86-65.31 59.86-65.31 59.86-37.68 0-62.68-14.84-62.68-14.84l2.17-23.42c28.73 15.99 50.21 16.05 54.27 16.05s28.18-1.36 28.18-20.32-30.64-33.59-30.64-33.59l-26.82-13.81c-29.27-17.34-26.03-49.84-26.03-49.84 0-35.76 32.53-55.26 64.8-55.26s53.33 14.2 53.33 14.2l-2.6 21.68s-25.8-15.56-52.91-15.56-24.82 18.13-24.82 18.13" fill="#0024cc"/></g><g mask="url(#c)"><path d="m1116.93 603.78c9.97-5.2 20.82-10.39 31.66-14.3v33.96s1.79 39.02-26.67 39.02c0 0-22.11.37-22.11-26.43 0 0-3.05-22.11 17.12-32.25zm89.77 81.04v-122.2s.61-46.28-42.5-61.12c-35.99-12.57-76.76-.85-104.51 18.21l2.59 24.27c18.23-14.29 46.84-25.13 71.57-15.17 9.53 5.2 16.48 13.43 16.48 25.57-.89 8.67-5.64 14.74-12.15 19.93-5.02 4.02-28.86 8.75-28.86 8.75s-66.82 13.05-66.82 54.48 32.81 52.54 58.55 52.54c0 0 28.34.86 49.28-20.41v15.31l56.37-.15z" fill="#0024cc"/></g><path d="m1535.87 665.33h2.53c2.9 0 5.35-1.06 5.35-3.81 0-1.94-1.39-3.92-5.35-3.92-1.12 0-1.92.12-2.53.18zm0 12.33h-3.51v-22.27c1.84-.25 3.6-.53 6.23-.53 3.32 0 5.51.72 6.82 1.68 1.32.99 2.03 2.47 2.03 4.63 0 2.93-1.94 4.68-4.3 5.4v.16c1.93.37 3.23 2.14 3.69 5.42.52 3.46 1.04 4.79 1.4 5.51h-3.7c-.51-.72-1.05-2.76-1.47-5.68-.53-2.83-1.94-3.89-4.73-3.89h-2.45v9.57zm3.67-28.48c-8.67 0-15.78 7.54-15.78 16.86s7.11 16.93 15.86 16.93c8.75.09 15.78-7.44 15.78-16.86s-7.03-16.94-15.78-16.94h-.08zm.08-3.1c10.78 0 19.37 8.88 19.37 19.96s-8.59 20.04-19.45 20.04-19.55-8.77-19.55-20.04 8.76-19.96 19.55-19.96z" fill="#0024cc"/><path d="m1140.35 113.19-74.24-99.71-1.76-.44-1.32 3.95v209.53c1.32 0 2.2-1.32 3.07-2.2l77.75-102.35c1.76-3.51-1.76-6.15-3.51-8.79zm-161.65-10.98c-11.86-18.89-32.51-31.19-56.67-28.99-21.96 1.32-42.61 18.01-49.64 38.22-7.47 18.01-3.95 40.85 7.47 56.23 13.18 17.57 33.38 26.8 56.23 23.72 18.89-2.64 36.9-15.81 45.25-33.38 7.91-16.69 7.47-40.41-2.64-55.79zm6.15-83.46c3.07-1.76 1.32-7.47 1.76-10.98h168.68c9.22 9.66 16.25 20.65 24.16 31.63 0 3.51-7.03 1.32-5.71 5.71l62.82 85.22 24.6 33.82-1.32 3.95c-12.74 17.57-25.04 35.14-39.1 52.27h-1.32c-8.79-10.1-15.37-21.52-24.6-31.19l-2.2.44-52.71 68.97-3.07.88h-151.11v-11.86c-2.64-1.32-4.83 1.32-7.47 2.64-35.14 24.16-90.49 18.45-123.87-4.83-46.12-29.87-69.41-83.46-59.74-137.05 7.91-47.44 49.2-92.69 96.2-104.11 31.63-8.35 68.97-4.83 94 14.5zm523.61 62.38c0-14.5-11.86-26.36-26.36-26.36s-26.36 11.86-25.92 26.36c0 14.5 11.86 26.36 26.36 25.92 14.06 0 25.92-11.42 25.92-25.92zm3.51 0c0 16.25-13.18 29.43-29.43 29.43s-29.43-13.18-29.43-29.43 13.18-29.43 29.43-29.43c16.25-.44 29.43 13.18 29.43 29.43z" fill="#cf0a2c" fill-rule="evenodd"/><path d="m1486.06 67.5h-10.54v11.42h10.54c2.64 0 5.71-.88 6.15-4.83.44-5.71-3.51-6.59-6.15-6.59zm-14.5 28.99v-32.5h14.5c5.27 0 10.1.88 10.54 8.35 0 4.39-1.32 5.71-4.39 8.35 3.51 2.2 3.51 2.64 3.95 8.35.44 4.39-.44 4.83 1.76 7.91h-4.83l-.88-3.95c-.88-3.95 1.32-9.66-5.71-9.66h-10.54v13.18h-4.39z" fill="#cf0a2c" fill-rule="evenodd"/><path d="m231.06 139.1c9.22 12.74 10.98 30.75 2.2 44.37-9.22 14.06-25.92 22.84-43.49 19.33-14.94-2.64-28.99-15.81-32.07-31.19-3.95-17.57 3.07-34.26 18.01-43.93 10.54-7.03 28.11-8.79 39.97-2.64 6.15 2.64 10.98 8.79 15.37 14.06zm177.47.88c6.59 10.98 9.22 26.36 3.07 38.22-6.15 14.5-21.52 24.16-37.34 24.6-15.81 0-30.31-7.91-37.34-22.4-5.27-9.22-5.27-22.84-1.32-32.95 5.71-14.5 18.89-24.6 34.7-25.92 15.37-.44 29.43 5.27 38.22 18.45zm196.35-113.33 3.51-.44c30.75-27.67 83.02-32.95 119.48-13.62 34.7 17.13 57.98 53.59 60.18 91.81l.44 155.06h-74.68v-152.42c-1.32-13.18-9.66-28.11-24.16-32.07-13.18-3.07-27.67 0-36.9 10.54-8.79 8.79-10.54 20.65-9.22 33.82v141.01h-74.24l-.44-155.06c-.44-13.62-10.54-25.48-23.28-29.87-12.3-4.39-25.92-.88-35.14 7.03-7.03 7.03-10.98 15.37-11.86 25.48v152.43h-74.68l.44-151.99c.88-44.37 31.19-85.66 72.48-100.59 36.02-14.5 79.07-5.27 108.06 18.89zm723.04-17.13c-10.1 14.5-20.21 28.99-31.63 42.61h-.88c-4.39-3.95-6.15-11.86-13.62-10.1l-71.6-.44c-.44-.44-1.32-.44-1.76-1.32 7.47-10.54 14.94-21.09 23.72-30.75l3.07-1.76h91.37l1.32 1.76z" fill="#cf0a2c"/><path d="m217.88 82h-70.72v177.47h-76.88v-177.47h-70.28v-73.8h217.88zm105.86 174.83c-3.95 41.29-33.82 82.14-74.68 95.76-15.81 4.83-33.38 7.47-51.39 6.15l-1.32-1.76v-71.16c18.89 1.32 38.66-2.2 47.44-19.33 3.51-7.03 6.15-14.94 6.15-22.4v-235.01h74.68zm960.25-207.78c12.74 14.5 22.84 31.19 35.58 46.12l2.64-.88c11.86-14.06 22.4-29.43 33.82-43.49l90.05.44c2.2 0 1.32 2.64.44 3.51l-74.68 104.99c-3.07 3.07-.88 6.15.88 9.22l68.53 92.69c25.04 32.07 50.08 65.89 73.8 98.84.88 1.76-1.76 2.2-3.07 2.2l-93.13-.44-95.76-126.95-2.64-1.32c-15.37 17.57-27.23 37.34-42.17 55.35h-97.08v-2.64l87.85-119.92c1.32-3.07-.88-4.83-2.2-7.03l-79.51-108.94 1.76-1.76h94.88z" fill="#cf0a2c"/><g fill="#c51f3f"><path d="m1515.54 820.67-756.47-100.59h-2.08l-756.47 100.59-.52 15.63 758.03-101.11 756.47 101.11z"/><path d="m1497.9 942.63c0-14.59 11.41-25.02 25.42-25.02s24.9 10.42 24.9 25.02-11.41 25.02-24.9 25.02-25.42-10.42-25.42-25.02zm24.9 20.85c11.41 0 20.23-8.86 20.23-20.85s-8.82-20.85-20.23-20.85-20.23 8.86-20.23 20.85 8.82 20.85 20.23 20.85zm-5.19-6.25h-4.15v-28.67h10.9c6.74 0 9.86 2.61 9.86 8.34 0 5.21-3.11 7.3-7.26 7.82l8.3 12.51h-4.67l-7.78-12.51h-5.19v12.51zm5.19-16.16c3.63 0 6.74 0 6.74-4.69 0-3.65-3.11-4.17-6.23-4.17h-5.71v8.86h5.19z"/><path d="m1223.43 980.67c-3.11-33.36-20.75-51.6-51.88-52.64h-2.59c-12.97 0-38.91 3.65-57.59 19.81-8.3 7.3-15.57 18.24-16.6 19.81-4.67 7.3-6.74 14.59-9.34 24.5-2.59 11.47-5.19 28.67-4.15 41.17 3.11 37 19.72 52.64 54.48 52.64 24.9 0 48.25-10.94 67.45-31.27 10.38-10.42 12.97-19.81 16.6-33.36 2.59-10.94 4.67-28.67 3.63-40.65zm-55.52 80.26c-5.71 6.25-12.45 9.38-20.23 9.38-16.08 0-25.94-15.11-27.5-29.19-2.08-23.45-1.04-68.28 17.12-87.56 5.71-6.25 12.45-9.38 20.23-9.38 16.08 0 25.94 15.11 27.5 29.19 2.08 22.93 1.04 67.75-17.12 87.56z"/><path d="m1489.6 1027.06c-1.56-19.81-19.72-30.23-34.76-33.36l-19.2-4.17c-11.41-2.61-24.39-6.25-25.42-18.24-.52-6.78 1.04-12.51 4.67-16.68 4.15-4.69 10.38-6.78 18.68-6.78 11.93 0 24.39 4.69 35.28 13.55l3.11 15.11c0 .52.52.52 1.04.52h6.23l3.11-40.65c-9.34-4.69-19.72-7.3-30.61-8.34-2.08 0-4.67-.52-6.74-.52-4.15 0-7.26.52-10.38 1.04-32.69 4.17-46.18 23.97-50.85 35.96-1.04 2.61-2.08 6.25-2.59 9.38s-.52 6.25 0 9.9c2.08 23.97 22.83 32.83 40.47 36.48l14.53 3.13c14.53 2.61 21.79 9.38 22.83 20.33.52 6.25-1.04 10.94-4.15 15.11-5.71 6.25-15.57 7.3-22.83 7.3-11.93 0-32.69-7.3-42.03-17.72l-3.11-14.59c0-.52-.52-1.04-1.04-1.04h-6.23c-.52 0-1.04.52-1.04 1.04 0 4.69 0 9.38-.52 14.07h-1.04c-4.15 3.13-12.45 8.86-14.53 8.86s-3.63-2.08-4.15-4.69c0-2.61 0-9.38.52-12.51l1.04-7.82.52-5.21 17.64-159.48c.52-7.3 1.56-11.99 2.59-18.76q0-.52-.52-1.04l-3.63-3.13s-.52-.52-1.04 0c-18.68 8.34-42.55 11.99-61.74 14.59-.52 0-.52.52-.52.52l-1.56 8.86v.52l.52.52h14.53c8.3 0 11.41 3.65 12.45 13.03v8.86l-2.59 38.57h1.04v.52c-6.23-2.61-14.01-3.65-22.31-4.17h-6.74c-2.59 0-7.78 0-14.53 1.04-4.15.52-8.3 1.56-11.41 2.61-15.05 4.69-32.17 14.59-42.03 35.44-4.15 7.3-6.23 15.11-8.82 25.02-2.59 11.47-5.19 28.67-4.15 41.17 3.11 37 19.72 52.64 54.48 52.64 15.57 0 30.61-10.42 42.55-21.37-.52 2.08-1.04 4.17-.52 6.25.52 6.78 4.67 14.59 14.01 14.59 7.78 0 24.39-9.38 38.91-20.33-.52 3.65-.52 6.78-1.04 10.42 0 .52 0 1.04.52 1.04 15.05 4.69 29.57 9.38 44.1 8.86 23.35-.52 50.85-5.73 65.89-35.96 2.59-5.73 3.63-10.94 3.11-20.33zm-179.52 33.36c-5.71 6.25-12.45 9.38-20.23 9.38-16.08 0-25.94-15.11-27.5-29.19-2.08-23.45-1.04-68.28 17.12-87.56 5.71-6.25 12.45-9.38 20.23-9.38 16.08 0 25.94 15.11 27.5 29.19 1.56 23.45.52 68.28-17.12 87.56z"/><path d="m377.2 980.67c-3.11-34.4-21.79-52.64-53.96-52.64-24.9 0-47.21 10.42-67.45 31.27l-.52.52h-36.84l5.71-63.59c1.56-15.64 6.23-16.16 14.53-16.68l13.49-1.04c.52 0 1.04-.52 1.04-1.04l.52-11.47h-102.73l-.52 10.94c0 .52.52 1.04 1.04 1.04l16.6 1.04c9.86.52 11.41 3.13 11.93 8.34s.52 11.47-.52 23.45l-4.15 48.99h-92.36l6.74-64.11c1.56-15.64 6.23-16.16 14.53-16.68l13.49-1.04c.52 0 1.04-.52 1.04-1.04l.52-10.94h-102.21l-.52 11.47c0 .52.52 1.04 1.04 1.04l16.6 1.04c9.86.52 11.41 3.13 11.93 8.34.52 4.69.52 10.94-.52 23.45l-11.93 130.82c-1.04 13.03-2.59 21.37-3.63 24.5-2.08 4.17-5.19 5.21-9.86 5.73l-15.57 1.04c-.52 0-1.04.52-1.04 1.04l-.52 10.42h100.67l.52-10.94c0-.52-.52-1.04-1.04-1.04l-15.57-1.04c-9.34-.52-11.93-3.65-11.93-8.34-.52-4.17 0-8.34 0-11.99l6.23-75.05h91.32l-5.71 65.15c-1.04 13.03-2.59 21.37-3.63 24.5-2.08 4.17-5.19 5.21-9.86 5.73l-15.57 1.04c-.52 0-1.04.52-1.04 1.04l-.52 10.94h102.73l.52-10.94v-.52l-.52-.52-17.64-1.04c-9.34-.52-11.93-3.65-11.93-8.34-.52-4.17 0-8.34 0-11.99l6.74-75.05h26.98c-2.08 4.69-3.11 9.38-4.67 15.11-2.59 10.94-5.19 28.67-4.15 41.17 3.11 37 19.72 52.64 54.48 52.64 24.9 0 48.25-10.94 67.45-31.27 10.38-10.42 12.97-19.81 16.6-33.36 2.59-10.42 5.19-28.14 3.63-40.13zm-55.52 80.26c-5.71 6.25-12.45 9.38-20.23 9.38-16.08 0-25.94-15.11-27.5-29.19-2.08-23.45-1.04-68.28 17.12-87.56 5.71-6.25 12.45-9.38 20.23-9.38 16.08 0 25.94 15.11 27.5 29.19 1.56 22.93.52 67.75-17.12 87.56z"/><path d="m616.39 1050.51-3.63 2.61c-5.71 4.17-13.49 9.9-17.12 9.9-2.08 0-3.11-1.04-3.63-3.13-.52-3.65.52-14.07 2.59-29.19l8.82-58.89c1.04-8.34 1.04-16.16.52-22.93-1.04-7.82-5.71-15.11-14.53-15.11-3.11 0-7.26.52-12.45 2.08-6.23 2.08-14.53 5.21-24.39 12.51-23.87 17.72-39.43 40.13-39.43 40.13l-1.56 9.9 2.59-17.72c2.59-14.07 3.11-23.97 2.59-29.71-1.56-10.94-6.74-16.68-15.57-16.68-2.59 0-5.19.52-9.34 1.56-6.74 1.56-15.05 4.69-25.94 13.03-20.23 15.64-34.24 35.44-37.36 40.13l5.71-40.65 2.59-17.72q0-.52-.52-1.04l-4.15-2.61h-1.04c-18.68 7.3-52.92 12.51-72.12 15.11-.52 0-.52.52-.52.52l5.71 6.25v.52s.52 0 .52.52h18.68c8.3 0 11.93 3.13 12.97 10.94.52 2.08.52 4.69.52 7.82 0 0-.52 9.38-.52 13.55v8.34c-.52 9.9-1.04 21.89-2.08 31.27s-5.19 40.65-10.38 64.63h37.36c0-6.78 1.04-23.45 3.63-39.09 5.71-33.36 21.27-57.33 33.72-71.4 6.23-7.3 12.45-7.82 16.6-7.82 3.11 0 5.19 3.65 5.71 7.3 1.56 10.94-.52 26.58-2.08 39.61-.52 2.08-.52 4.69-1.04 6.78-1.04 9.38-5.19 41.17-10.38 64.63h37.88c-1.04-16.16.52-34.92 4.67-51.08 4.15-17.2 11.41-32.31 21.79-45.86 5.19-6.25 17.64-21.37 26.46-21.37 3.11 0 5.19 1.56 5.71 4.69 1.04 6.78-4.15 36.48-5.71 43.26-1.56 7.3-7.26 50.03-5.71 62.02 1.04 5.73 6.74 9.38 15.05 9.38 11.41 0 32.69-8.86 50.33-23.45l-1.56-13.55z"/><path d="m1078.67 980.67c-3.11-33.36-20.75-51.6-51.88-52.64h-2.59c-12.97 0-38.91 3.65-57.59 19.81-4.15 3.65-7.78 7.82-10.38 11.47h-97.54c-1.04 0-1.56.52-1.56 1.56l-2.08 14.07c0 .52 0 1.04.52 1.04q.52.52 1.04.52h30.61l-5.19 76.61c-5.19 9.9-28.54 16.16-52.4 10.94-26.46-7.82-42.55-30.75-45.66-66.19-3.11-36.48 4.67-86 25.42-105.28 15.05-14.07 40.99-15.64 50.85-15.64 19.2 0 39.95 8.34 47.21 12.51 1.04.52 2.08 1.04 2.59 1.56q2.08 1.04 2.08 3.13l2.08 29.19c0 1.04 1.04 1.56 1.56 1.56h11.41c1.04 0 1.56-.52 1.56-1.56 1.04-6.78 2.08-13.55 3.11-21.37 1.04-10.42 2.59-20.85 4.67-32.31 0-1.04 0-1.56-1.04-2.08-20.75-9.9-42.55-14.59-64.86-14.59-11.41 0-28.02 1.04-40.99 5.21-63.82 20.33-96.5 71.92-90.8 141.24.52 7.82 2.08 14.59 3.63 21.37-10.9 13.03-50.33 40.13-68.49 41.7-2.08 0-5.71 0-9.34-1.56-7.26-3.13-10.38-9.38-12.45-13.55-1.04-2.61-2.59-7.82-2.08-14.07 0-5.21 0-9.9 1.04-17.72 15.57-.52 35.8-6.25 49.81-13.55 15.57-7.82 33.21-20.33 30.61-46.39-1.04-11.47-7.26-19.81-17.12-24.5-4.67-2.08-9.86-3.13-17.64-3.65-7.78 0-16.6.52-23.35 2.61-38.91 9.38-49.81 45.34-49.81 45.34-3.11 7.3-5.19 15.64-7.26 24.5-2.08 10.42-5.19 32.31-4.15 44.82 0 2.08.52 3.65.52 5.21.52 1.56 2.08 9.38 3.11 11.99 1.04 3.13 4.15 7.82 6.74 10.94 6.74 7.82 16.08 11.99 27.5 12.51 11.93 1.04 36.32-.52 63.82-21.89 20.75-16.68 30.09-24.5 33.72-28.14 15.05 32.31 47.21 50.03 93.91 50.03h3.11c24.39-.52 41.51-6.78 63.82-15.11l4.67-1.56c.52 0 1.04-1.04 1.04-1.56l6.23-90.17h24.39c-2.08 4.69-3.11 9.38-4.67 15.11-2.59 11.47-5.19 28.67-4.15 41.17 3.11 37 19.72 52.64 54.48 52.64 24.9 0 48.25-10.94 67.45-31.27 10.38-10.42 12.97-19.81 16.6-33.36 3.11-10.94 5.19-28.67 4.15-40.65zm-425.45 9.9c5.19-30.75 15.05-45.34 31.13-45.34 8.3 0 14.53 6.25 15.05 15.64.52 6.25-.52 11.99-2.59 17.2-1.56 3.13-6.74 14.07-22.31 19.28-8.3 2.61-18.68 3.13-22.31 3.13.52-2.61.52-4.69 1.04-6.25v-3.65zm369.42 70.36c-5.71 6.25-12.45 9.38-20.23 9.38-16.08 0-25.94-15.11-27.5-29.19-2.08-23.45-1.04-68.28 17.12-87.56 5.71-6.25 12.45-9.38 20.23-9.38 16.08 0 25.94 15.11 27.5 29.19 2.08 22.93.52 67.75-17.12 87.56z"/></g></svg>